<?xml version="1.0" encoding="UTF-8"?>
<svg version="1.2" baseProfile="tiny" viewBox="0 0 8400 4700" preserveAspectRatio="xMidYMid" fill-rule="evenodd" stroke-width="28.222" stroke-linejoin="round" xmlns="http://www.w3.org/2000/svg" xmlns:ooo="http://xml.openoffice.org/svg/export" xmlns:xlink="http://www.w3.org/1999/xlink" xml:space="preserve">
 <defs class="ClipPathGroup">
  <clipPath id="presentation_clip_path" clipPathUnits="userSpaceOnUse">
   <rect x="0" y="0" width="8400" height="4700"/>
  </clipPath>
 </defs>
 <defs class="TextShapeIndex">
  <g ooo:slide="id1" ooo:id-list="id3 id4 id5 id6 id7 id8 id9 id10 id11 id12 id13 id14 id15 id16 id17 id18 id19 id20 id21 id22 id23 id24 id25 id26 id27 id28 id29 id30 id31 id32 id33 id34 id35 id36 id37 id38 id39 id40 id41 id42 id43 id44 id45 id46 id47 id48 id49 id50 id51 id52 id53 id54 id55 id56 id57 id58 id59 id60 id61 id62 id63 id64 id65 id66 id67 id68 id69 id70 id71 id72 id73 id74 id75 id76 id77 id78 id79 id80 id81 id82 id83 id84 id85 id86 id87 id88 id89 id90 id91 id92 id93 id94 id95 id96 id97 id98 id99 id100 id101"/>
 </defs>
 <defs class="EmbeddedBulletChars">
  <g id="bullet-char-template(57356)" transform="scale(0.00048828125,-0.00048828125)">
   <path d="M 580,1141 L 1163,571 580,0 -4,571 580,1141 Z"/>
  </g>
  <g id="bullet-char-template(57354)" transform="scale(0.00048828125,-0.00048828125)">
   <path d="M 8,1128 L 1137,1128 1137,0 8,0 8,1128 Z"/>
  </g>
  <g id="bullet-char-template(10146)" transform="scale(0.00048828125,-0.00048828125)">
   <path d="M 174,0 L 602,739 174,1481 1456,739 174,0 Z M 1358,739 L 309,1346 659,739 1358,739 Z"/>
  </g>
  <g id="bullet-char-template(10132)" transform="scale(0.00048828125,-0.00048828125)">
   <path d="M 2015,739 L 1276,0 717,0 1260,543 174,543 174,936 1260,936 717,1481 1274,1481 2015,739 Z"/>
  </g>
  <g id="bullet-char-template(10007)" transform="scale(0.00048828125,-0.00048828125)">
   <path d="M 0,-2 C -7,14 -16,27 -25,37 L 356,567 C 262,823 215,952 215,954 215,979 228,992 255,992 264,992 276,990 289,987 310,991 331,999 354,1012 L 381,999 492,748 772,1049 836,1024 860,1049 C 881,1039 901,1025 922,1006 886,937 835,863 770,784 769,783 710,716 594,584 L 774,223 C 774,196 753,168 711,139 L 727,119 C 717,90 699,76 672,76 641,76 570,178 457,381 L 164,-76 C 142,-110 111,-127 72,-127 30,-127 9,-110 8,-76 1,-67 -2,-52 -2,-32 -2,-23 -1,-13 0,-2 Z"/>
  </g>
  <g id="bullet-char-template(10004)" transform="scale(0.00048828125,-0.00048828125)">
   <path d="M 285,-33 C 182,-33 111,30 74,156 52,228 41,333 41,471 41,549 55,616 82,672 116,743 169,778 240,778 293,778 328,747 346,684 L 369,508 C 377,444 397,411 428,410 L 1163,1116 C 1174,1127 1196,1133 1229,1133 1271,1133 1292,1118 1292,1087 L 1292,965 C 1292,929 1282,901 1262,881 L 442,47 C 390,-6 338,-33 285,-33 Z"/>
  </g>
  <g id="bullet-char-template(9679)" transform="scale(0.00048828125,-0.00048828125)">
   <path d="M 813,0 C 632,0 489,54 383,161 276,268 223,411 223,592 223,773 276,916 383,1023 489,1130 632,1184 813,1184 992,1184 1136,1130 1245,1023 1353,916 1407,772 1407,592 1407,412 1353,268 1245,161 1136,54 992,0 813,0 Z"/>
  </g>
  <g id="bullet-char-template(8226)" transform="scale(0.00048828125,-0.00048828125)">
   <path d="M 346,457 C 273,457 209,483 155,535 101,586 74,649 74,723 74,796 101,859 155,911 209,963 273,989 346,989 419,989 480,963 531,910 582,859 608,796 608,723 608,648 583,586 532,535 482,483 420,457 346,457 Z"/>
  </g>
  <g id="bullet-char-template(8211)" transform="scale(0.00048828125,-0.00048828125)">
   <path d="M -4,459 L 1135,459 1135,606 -4,606 -4,459 Z"/>
  </g>
 </defs>
 <defs class="TextEmbeddedBitmaps"/>
 <g>
  <g id="id2" class="Master_Slide">
   <g id="bg-id2" class="Background">
    <path fill="rgb(255,255,255)" stroke="none" d="M 4200,4699 L 0,4699 0,0 8399,0 8399,4699 4200,4699 Z"/>
   </g>
   <g id="bo-id2" class="BackgroundObjects"/>
  </g>
 </g>
 <g class="SlideGroup">
  <g>
   <g id="id1" class="Slide" clip-path="url(#presentation_clip_path)">
    <g class="Page">
     <g class="Group">
      <g class="com.sun.star.drawing.ClosedBezierShape">
       <g id="id3">
        <path fill="rgb(255,255,255)" stroke="none" d="M 5200,3600 C 5200,3400 5200,3200 5200,3000 5400,3000 5600,3000 5800,3000 5800,3200 5800,3400 5800,3600 5600,3600 5400,3600 5200,3600 Z"/>
        <path fill="none" stroke="rgb(0,0,0)" stroke-width="20" stroke-linejoin="round" d="M 5200,3600 C 5200,3400 5200,3200 5200,3000 5400,3000 5600,3000 5800,3000 5800,3200 5800,3400 5800,3600 5600,3600 5400,3600 5200,3600 Z"/>
       </g>
      </g>
      <g class="com.sun.star.drawing.ClosedBezierShape">
       <g id="id4">
        <path fill="rgb(0,0,0)" stroke="none" d="M 5313,3427 C 5313,3342 5313,3258 5313,3173 5373,3173 5434,3173 5494,3173 5494,3184 5494,3194 5494,3205 5445,3205 5396,3205 5347,3205 5347,3230 5347,3255 5347,3280 5392,3280 5438,3280 5483,3280 5483,3290 5483,3300 5483,3310 5438,3310 5392,3310 5347,3310 5347,3338 5347,3367 5347,3395 5397,3395 5447,3395 5497,3395 5497,3406 5497,3416 5497,3427 5436,3427 5374,3427 5313,3427 Z"/>
       </g>
      </g>
      <g class="com.sun.star.drawing.ClosedBezierShape">
       <g id="id5">
        <path fill="rgb(0,0,0)" stroke="none" d="M 5537,3427 C 5537,3342 5537,3258 5537,3173 5594,3173 5650,3173 5707,3173 5707,3184 5707,3194 5707,3205 5662,3205 5616,3205 5571,3205 5571,3230 5571,3256 5571,3281 5611,3281 5650,3281 5690,3281 5690,3291 5690,3302 5690,3312 5650,3312 5611,3312 5571,3312 5571,3350 5571,3389 5571,3427 5560,3427 5548,3427 5537,3427 Z"/>
       </g>
      </g>
     </g>
     <g class="Group">
      <g class="com.sun.star.drawing.ClosedBezierShape">
       <g id="id6">
        <path fill="rgb(0,0,0)" stroke="none" d="M 2422,4106 L 2422,3802 2545,3802 C 2577,3802 2600,3808 2616,3821 2632,3833 2640,3852 2640,3876 2640,3892 2636,3906 2629,3917 2622,3928 2611,3936 2597,3942 2615,3946 2629,3954 2639,3967 2649,3979 2654,3996 2654,4015 2654,4043 2645,4065 2626,4081 2608,4098 2583,4106 2551,4106 L 2422,4106 Z M 2463,3930 L 2536,3930 C 2558,3930 2574,3926 2584,3918 2594,3911 2599,3899 2599,3882 2599,3867 2594,3856 2584,3848 2575,3841 2560,3837 2540,3837 L 2463,3837 2463,3930 Z M 2463,4069 L 2548,4069 C 2569,4069 2585,4064 2596,4055 2607,4046 2612,4032 2612,4015 2612,3997 2606,3985 2595,3976 2584,3968 2567,3964 2543,3964 L 2463,3964 2463,4069 Z"/>
       </g>
      </g>
      <g class="com.sun.star.drawing.ClosedBezierShape">
       <g id="id7">
        <path fill="rgb(0,0,0)" stroke="none" d="M 2836,3885 L 2878,3885 2785,4140 C 2776,4164 2767,4180 2758,4188 2749,4195 2736,4199 2719,4199 2715,4199 2712,4199 2708,4198 2704,4197 2701,4197 2697,4195 L 2697,4160 C 2701,4161 2704,4162 2708,4162 2712,4163 2715,4163 2719,4163 2726,4163 2732,4162 2736,4159 2741,4156 2744,4151 2746,4145 L 2756,4119 2672,3885 2714,3885 2775,4064 2836,3885 Z"/>
       </g>
      </g>
      <g class="com.sun.star.drawing.ClosedBezierShape">
       <g id="id8">
        <path fill="rgb(0,0,0)" stroke="none" d="M 2956,4050 C 2956,4060 2957,4067 2960,4070 2963,4073 2968,4075 2976,4075 2978,4075 2981,4075 2984,4075 2987,4075 2991,4074 2996,4074 L 2996,4106 C 2990,4107 2984,4108 2979,4108 2974,4109 2970,4109 2966,4109 2949,4109 2937,4106 2930,4099 2923,4092 2919,4080 2919,4063 L 2919,3915 2886,3915 2886,3885 2919,3885 2919,3823 2956,3823 2956,3885 2996,3885 2996,3915 2956,3915 2956,4050 Z"/>
       </g>
      </g>
      <g class="com.sun.star.drawing.ClosedBezierShape">
       <g id="id9">
        <path fill="rgb(0,0,0)" stroke="none" d="M 3060,3976 L 3181,3976 C 3181,3955 3176,3939 3165,3928 3155,3917 3140,3911 3122,3911 3103,3911 3089,3917 3078,3928 3068,3939 3062,3955 3060,3976 Z M 3180,4035 L 3217,4035 C 3213,4059 3202,4078 3185,4092 3168,4106 3146,4113 3120,4113 3090,4113 3065,4103 3048,4082 3030,4062 3021,4033 3021,3998 3021,3960 3030,3931 3047,3910 3065,3889 3089,3878 3120,3878 3152,3878 3177,3888 3194,3907 3211,3927 3220,3955 3220,3990 3220,3995 3220,3998 3220,4001 3220,4003 3220,4005 3219,4007 L 3060,4007 C 3061,4030 3066,4048 3077,4060 3089,4073 3104,4079 3124,4079 3139,4079 3151,4075 3161,4068 3171,4060 3177,4049 3180,4035 Z"/>
       </g>
      </g>
      <g class="com.sun.star.drawing.ClosedBezierShape">
       <g id="id10">
        <path fill="rgb(0,0,0)" stroke="none" d="M 3515,4076 C 3504,4088 3492,4098 3479,4104 3465,4110 3452,4113 3437,4113 3414,4113 3397,4107 3384,4095 3371,4084 3365,4067 3365,4046 3365,4026 3371,4011 3384,3999 3396,3988 3415,3980 3441,3977 3447,3976 3456,3975 3467,3974 3486,3972 3498,3970 3502,3969 3506,3967 3509,3965 3510,3962 3512,3959 3512,3954 3512,3945 3512,3933 3508,3925 3500,3919 3492,3914 3479,3911 3462,3911 3445,3911 3432,3914 3423,3921 3414,3928 3410,3938 3410,3952 L 3375,3952 3375,3950 C 3375,3928 3383,3910 3399,3897 3414,3884 3436,3878 3464,3878 3493,3878 3515,3884 3529,3895 3543,3906 3550,3923 3550,3947 L 3550,4057 C 3550,4066 3551,4072 3553,4075 3555,4078 3559,4079 3564,4079 3565,4079 3567,4079 3568,4079 3570,4078 3572,4078 3574,4078 L 3574,4107 C 3569,4108 3566,4109 3562,4109 3559,4110 3556,4110 3553,4110 3540,4110 3531,4107 3525,4102 3519,4096 3515,4088 3515,4077 L 3515,4076 Z M 3512,3994 C 3502,3999 3485,4003 3461,4006 3452,4007 3446,4008 3441,4009 3428,4011 3418,4015 3412,4021 3406,4027 3403,4035 3403,4046 3403,4057 3406,4065 3413,4071 3420,4077 3430,4080 3443,4080 3463,4080 3480,4075 3493,4065 3506,4055 3512,4042 3512,4027 L 3512,3994 Z"/>
       </g>
      </g>
      <g class="com.sun.star.drawing.ClosedBezierShape">
       <g id="id11">
        <path fill="rgb(0,0,0)" stroke="none" d="M 3766,3994 C 3766,3967 3760,3946 3749,3932 3738,3918 3722,3911 3700,3911 3679,3911 3663,3919 3651,3934 3640,3949 3634,3971 3634,3999 3634,4024 3640,4044 3652,4058 3664,4073 3680,4080 3700,4080 3721,4080 3737,4073 3749,4058 3760,4043 3766,4022 3766,3994 Z M 3801,3802 L 3801,4106 3765,4106 3765,4078 C 3755,4090 3745,4099 3733,4104 3721,4110 3707,4113 3693,4113 3663,4113 3640,4102 3622,4081 3605,4060 3596,4032 3596,3996 3596,3960 3605,3931 3622,3910 3640,3889 3664,3878 3693,3878 3708,3878 3722,3881 3734,3886 3746,3892 3756,3901 3765,3912 L 3765,3802 3801,3802 Z"/>
       </g>
      </g>
      <g class="com.sun.star.drawing.ClosedBezierShape">
       <g id="id12">
        <path fill="rgb(0,0,0)" stroke="none" d="M 4015,3994 C 4015,3967 4009,3946 3998,3932 3987,3918 3971,3911 3949,3911 3928,3911 3912,3919 3900,3934 3889,3949 3883,3971 3883,3999 3883,4024 3889,4044 3901,4058 3913,4073 3929,4080 3949,4080 3970,4080 3986,4073 3998,4058 4009,4043 4015,4022 4015,3994 Z M 4050,3802 L 4050,4106 4014,4106 4014,4078 C 4004,4090 3994,4099 3982,4104 3970,4110 3956,4113 3942,4113 3912,4113 3889,4102 3871,4081 3854,4060 3845,4032 3845,3996 3845,3960 3854,3931 3871,3910 3889,3889 3913,3878 3942,3878 3957,3878 3971,3881 3983,3886 3995,3892 4005,3901 4014,3912 L 4014,3802 4050,3802 Z"/>
       </g>
      </g>
      <g class="com.sun.star.drawing.ClosedBezierShape">
       <g id="id13">
        <path fill="rgb(0,0,0)" stroke="none" d="M 4106,4106 L 4106,3885 4142,3885 4142,3924 C 4148,3909 4156,3898 4166,3891 4176,3884 4188,3880 4203,3880 4206,3880 4208,3880 4209,3880 4211,3880 4212,3880 4213,3881 L 4213,3919 C 4212,3919 4211,3919 4210,3919 4208,3919 4207,3919 4204,3919 4184,3919 4169,3924 4159,3935 4148,3946 4143,3962 4143,3983 L 4143,4106 4106,4106 Z"/>
       </g>
      </g>
      <g class="com.sun.star.drawing.ClosedBezierShape">
       <g id="id14">
        <path fill="rgb(0,0,0)" stroke="none" d="M 4275,3976 L 4396,3976 C 4396,3955 4391,3939 4380,3928 4370,3917 4355,3911 4337,3911 4318,3911 4304,3917 4293,3928 4283,3939 4277,3955 4275,3976 Z M 4395,4035 L 4432,4035 C 4428,4059 4417,4078 4400,4092 4383,4106 4361,4113 4335,4113 4305,4113 4280,4103 4263,4082 4245,4062 4236,4033 4236,3998 4236,3960 4245,3931 4262,3910 4280,3889 4304,3878 4335,3878 4367,3878 4392,3888 4409,3907 4426,3927 4435,3955 4435,3990 4435,3995 4435,3998 4435,4001 4435,4003 4435,4005 4434,4007 L 4275,4007 C 4276,4030 4281,4048 4292,4060 4304,4073 4319,4079 4339,4079 4354,4079 4366,4075 4376,4068 4386,4060 4392,4049 4395,4035 Z"/>
       </g>
      </g>
      <g class="com.sun.star.drawing.ClosedBezierShape">
       <g id="id15">
        <path fill="rgb(0,0,0)" stroke="none" d="M 4464,4034 L 4500,4034 C 4501,4049 4507,4061 4516,4068 4526,4076 4539,4080 4556,4080 4572,4080 4585,4077 4594,4071 4603,4064 4608,4056 4608,4045 4608,4037 4606,4030 4601,4026 4596,4022 4587,4018 4574,4015 L 4532,4004 C 4509,3998 4493,3991 4484,3982 4475,3972 4470,3959 4470,3942 4470,3922 4477,3907 4492,3895 4507,3884 4527,3878 4553,3878 4579,3878 4600,3884 4616,3896 4631,3909 4639,3925 4639,3946 L 4639,3947 4603,3947 C 4602,3935 4597,3926 4589,3920 4580,3913 4568,3910 4553,3910 4538,3910 4526,3913 4519,3918 4511,3923 4507,3931 4507,3941 4507,3948 4509,3954 4514,3958 4519,3962 4528,3965 4542,3968 L 4578,3977 C 4603,3983 4621,3991 4631,4000 4640,4009 4645,4023 4645,4040 4645,4063 4637,4081 4621,4094 4605,4107 4582,4113 4553,4113 4524,4113 4503,4106 4487,4093 4472,4079 4464,4060 4464,4034 Z"/>
       </g>
      </g>
      <g class="com.sun.star.drawing.ClosedBezierShape">
       <g id="id16">
        <path fill="rgb(0,0,0)" stroke="none" d="M 4675,4034 L 4711,4034 C 4712,4049 4718,4061 4727,4068 4737,4076 4750,4080 4767,4080 4783,4080 4796,4077 4805,4071 4814,4064 4819,4056 4819,4045 4819,4037 4817,4030 4812,4026 4807,4022 4798,4018 4785,4015 L 4743,4004 C 4720,3998 4704,3991 4695,3982 4686,3972 4681,3959 4681,3942 4681,3922 4688,3907 4703,3895 4718,3884 4738,3878 4764,3878 4790,3878 4811,3884 4827,3896 4842,3909 4850,3925 4850,3946 L 4850,3947 4814,3947 C 4813,3935 4808,3926 4800,3920 4791,3913 4779,3910 4764,3910 4749,3910 4737,3913 4730,3918 4722,3923 4718,3931 4718,3941 4718,3948 4720,3954 4725,3958 4730,3962 4739,3965 4753,3968 L 4789,3977 C 4814,3983 4832,3991 4842,4000 4851,4009 4856,4023 4856,4040 4856,4063 4848,4081 4832,4094 4816,4107 4793,4113 4764,4113 4735,4113 4714,4106 4698,4093 4683,4079 4675,4060 4675,4034 Z"/>
       </g>
      </g>
      <g class="com.sun.star.drawing.ClosedBezierShape">
       <g id="id17">
        <path fill="rgb(0,0,0)" stroke="none" d="M 4916,3931 C 4916,3916 4916,3900 4916,3885 4930,3885 4945,3885 4959,3885 4959,3900 4959,3916 4959,3931 4945,3931 4930,3931 4916,3931 Z M 4916,4106 C 4916,4091 4916,4075 4916,4060 4930,4060 4945,4060 4959,4060 4959,4075 4959,4091 4959,4106 4945,4106 4930,4106 4916,4106 Z"/>
       </g>
      </g>
     </g>
     <g class="Group">
      <g class="com.sun.star.drawing.ClosedBezierShape">
       <g id="id18">
        <path fill="rgb(0,0,0)" stroke="none" d="M 1619,1008 C 1619,881 1619,755 1619,628 1636,628 1654,628 1671,628 1671,739 1671,849 1671,960 1734,960 1798,960 1861,960 1861,976 1861,992 1861,1008 1780,1008 1700,1008 1619,1008 Z"/>
       </g>
      </g>
      <g class="com.sun.star.drawing.ClosedBezierShape">
       <g id="id19">
        <path fill="rgb(0,0,0)" stroke="none" d="M 1897,680 C 1897,662 1897,645 1897,627 1912,627 1928,627 1943,627 1943,645 1943,662 1943,680 1928,680 1912,680 1897,680 Z M 1897,1008 C 1897,916 1897,823 1897,731 1912,731 1928,731 1943,731 1943,823 1943,916 1943,1008 1928,1008 1912,1008 1897,1008 Z"/>
       </g>
      </g>
      <g class="com.sun.star.drawing.ClosedBezierShape">
       <g id="id20">
        <path fill="rgb(0,0,0)" stroke="none" d="M 2070,939 C 2070,951 2072,960 2075,964 2079,968 2085,970 2095,970 2098,970 2101,970 2105,970 2109,970 2114,969 2120,969 L 2120,1008 C 2112,1009 2105,1010 2099,1011 2093,1012 2087,1012 2083,1012 2061,1012 2045,1008 2036,999 2027,991 2023,976 2023,955 L 2023,768 1982,768 1982,731 2023,731 2023,654 2070,654 2070,731 2120,731 2120,768 2070,768 2070,939 Z"/>
       </g>
      </g>
      <g class="com.sun.star.drawing.ClosedBezierShape">
       <g id="id21">
        <path fill="rgb(0,0,0)" stroke="none" d="M 2218,939 C 2218,951 2220,960 2223,964 2227,968 2233,970 2243,970 2246,970 2249,970 2253,970 2257,970 2262,969 2268,969 L 2268,1008 C 2260,1009 2253,1010 2247,1011 2241,1012 2235,1012 2231,1012 2209,1012 2193,1008 2184,999 2175,991 2171,976 2171,955 L 2171,768 2130,768 2130,731 2171,731 2171,654 2218,654 2218,731 2268,731 2268,768 2218,768 2218,939 Z"/>
       </g>
      </g>
      <g class="com.sun.star.drawing.ClosedBezierShape">
       <g id="id22">
        <path fill="rgb(0,0,0)" stroke="none" d="M 2313,1008 C 2313,881 2313,755 2313,628 2329,628 2344,628 2360,628 2360,755 2360,881 2360,1008 2344,1008 2329,1008 2313,1008 Z"/>
       </g>
      </g>
      <g class="com.sun.star.drawing.ClosedBezierShape">
       <g id="id23">
        <path fill="rgb(0,0,0)" stroke="none" d="M 2466,844 L 2617,844 C 2617,818 2610,798 2597,784 2585,770 2566,763 2543,763 2520,763 2502,770 2489,784 2476,798 2468,818 2466,844 Z M 2616,918 L 2662,918 C 2657,949 2644,973 2622,990 2601,1008 2574,1017 2541,1017 2503,1017 2472,1004 2450,978 2428,952 2417,917 2417,872 2417,825 2428,788 2450,762 2472,735 2502,722 2541,722 2581,722 2612,734 2633,759 2655,783 2666,818 2666,862 2666,868 2666,872 2666,875 2666,878 2666,880 2665,883 L 2466,883 C 2467,912 2474,935 2488,951 2502,967 2521,975 2546,975 2564,975 2580,970 2592,960 2604,950 2612,936 2616,918 Z"/>
       </g>
      </g>
      <g class="com.sun.star.drawing.ClosedBezierShape">
       <g id="id24">
        <path fill="rgb(0,0,0)" stroke="none" d="M 2702,889 C 2702,875 2702,861 2702,847 2745,847 2787,847 2830,847 2830,861 2830,875 2830,889 2787,889 2745,889 2702,889 Z"/>
       </g>
      </g>
      <g class="com.sun.star.drawing.ClosedBezierShape">
       <g id="id25">
        <path fill="rgb(0,0,0)" stroke="none" d="M 2919,844 L 3070,844 C 3070,818 3063,798 3050,784 3038,770 3019,763 2996,763 2973,763 2955,770 2942,784 2929,798 2921,818 2919,844 Z M 3069,918 L 3115,918 C 3110,949 3097,973 3075,990 3054,1008 3027,1017 2994,1017 2956,1017 2925,1004 2903,978 2881,952 2870,917 2870,872 2870,825 2881,788 2903,762 2925,735 2955,722 2994,722 3034,722 3065,734 3086,759 3108,783 3119,818 3119,862 3119,868 3119,872 3119,875 3119,878 3119,880 3118,883 L 2919,883 C 2920,912 2927,935 2941,951 2955,967 2974,975 2999,975 3017,975 3033,970 3045,960 3057,950 3065,936 3069,918 Z"/>
       </g>
      </g>
      <g class="com.sun.star.drawing.ClosedBezierShape">
       <g id="id26">
        <path fill="rgb(0,0,0)" stroke="none" d="M 3355,1008 L 3355,837 C 3355,810 3351,791 3342,781 3334,770 3320,765 3299,765 3273,765 3253,772 3239,787 3224,802 3217,823 3217,850 L 3217,1008 3171,1008 3171,731 3215,731 3215,771 C 3226,755 3238,743 3253,736 3268,728 3285,724 3304,724 3325,724 3342,727 3357,733 3371,740 3382,749 3390,762 3394,768 3397,776 3399,785 3401,794 3402,809 3402,828 L 3402,841 3402,1008 3355,1008 Z"/>
       </g>
      </g>
      <g class="com.sun.star.drawing.ClosedBezierShape">
       <g id="id27">
        <path fill="rgb(0,0,0)" stroke="none" d="M 3670,868 C 3670,834 3663,808 3649,790 3635,773 3615,764 3587,764 3561,764 3541,774 3527,793 3512,812 3505,839 3505,874 3505,906 3512,931 3527,949 3542,967 3562,976 3588,976 3614,976 3634,967 3649,948 3663,929 3670,903 3670,868 Z M 3713,628 L 3713,1008 3668,1008 3668,974 C 3657,988 3643,999 3628,1006 3613,1013 3597,1017 3578,1017 3541,1017 3512,1004 3490,977 3468,951 3457,915 3457,871 3457,825 3468,789 3490,762 3512,735 3542,722 3578,722 3598,722 3615,726 3630,733 3645,740 3658,751 3668,765 L 3668,628 3713,628 Z"/>
       </g>
      </g>
      <g class="com.sun.star.drawing.ClosedBezierShape">
       <g id="id28">
        <path fill="rgb(0,0,0)" stroke="none" d="M 3785,680 C 3785,662 3785,645 3785,627 3800,627 3816,627 3831,627 3831,645 3831,662 3831,680 3816,680 3800,680 3785,680 Z M 3785,1008 C 3785,916 3785,823 3785,731 3800,731 3816,731 3831,731 3831,823 3831,916 3831,1008 3816,1008 3800,1008 3785,1008 Z"/>
       </g>
      </g>
      <g class="com.sun.star.drawing.ClosedBezierShape">
       <g id="id29">
        <path fill="rgb(0,0,0)" stroke="none" d="M 4074,970 C 4060,986 4045,998 4028,1005 4012,1013 3995,1017 3977,1017 3949,1017 3927,1010 3911,995 3895,980 3887,960 3887,934 3887,909 3895,889 3910,875 3926,860 3950,851 3982,847 3990,846 4001,845 4014,843 4038,841 4052,839 4057,836 4063,834 4066,831 4068,828 4070,825 4071,817 4071,806 4071,792 4065,781 4055,774 4045,767 4029,763 4009,763 3987,763 3971,767 3960,776 3949,784 3944,797 3944,814 L 3900,814 3900,812 C 3900,784 3910,762 3929,746 3949,730 3976,722 4010,722 4047,722 4074,729 4092,743 4109,756 4118,778 4118,807 L 4118,946 C 4118,958 4119,966 4122,969 4124,972 4129,974 4136,974 4137,974 4139,974 4141,974 4143,973 4145,973 4148,972 L 4148,1009 C 4142,1010 4137,1012 4133,1012 4129,1013 4125,1013 4121,1013 4106,1013 4094,1010 4086,1003 4078,996 4074,986 4074,972 L 4074,970 Z M 4070,868 C 4058,875 4036,880 4006,884 3996,885 3988,886 3982,887 3966,890 3953,895 3946,902 3939,909 3935,920 3935,933 3935,947 3939,958 3948,965 3956,972 3969,976 3985,976 4010,976 4030,970 4046,957 4062,945 4070,929 4070,909 L 4070,868 Z"/>
       </g>
      </g>
      <g class="com.sun.star.drawing.ClosedBezierShape">
       <g id="id30">
        <path fill="rgb(0,0,0)" stroke="none" d="M 4375,1008 L 4375,837 C 4375,810 4371,791 4362,781 4354,770 4340,765 4319,765 4293,765 4273,772 4259,787 4244,802 4237,823 4237,850 L 4237,1008 4191,1008 4191,731 4235,731 4235,771 C 4246,755 4258,743 4273,736 4288,728 4305,724 4324,724 4345,724 4362,727 4377,733 4391,740 4402,749 4410,762 4414,768 4417,776 4419,785 4421,794 4422,809 4422,828 L 4422,841 4422,1008 4375,1008 Z"/>
       </g>
      </g>
      <g class="com.sun.star.drawing.ClosedBezierShape">
       <g id="id31">
        <path fill="rgb(0,0,0)" stroke="none" d="M 4672,844 L 4823,844 C 4823,818 4816,798 4803,784 4791,770 4772,763 4749,763 4726,763 4708,770 4695,784 4682,798 4674,818 4672,844 Z M 4822,918 L 4868,918 C 4863,949 4850,973 4828,990 4807,1008 4780,1017 4747,1017 4709,1017 4678,1004 4656,978 4634,952 4623,917 4623,872 4623,825 4634,788 4656,762 4678,735 4708,722 4747,722 4787,722 4818,734 4839,759 4861,783 4872,818 4872,862 4872,868 4872,872 4872,875 4872,878 4872,880 4871,883 L 4672,883 C 4673,912 4680,935 4694,951 4708,967 4727,975 4752,975 4770,975 4786,970 4798,960 4810,950 4818,936 4822,918 Z"/>
       </g>
      </g>
      <g class="com.sun.star.drawing.ClosedBezierShape">
       <g id="id32">
        <path fill="rgb(0,0,0)" stroke="none" d="M 5107,1008 L 5107,837 C 5107,810 5103,791 5094,781 5086,770 5072,765 5051,765 5025,765 5005,772 4991,787 4976,802 4969,823 4969,850 L 4969,1008 4923,1008 4923,731 4967,731 4967,771 C 4978,755 4990,743 5005,736 5020,728 5037,724 5056,724 5077,724 5094,727 5109,733 5123,740 5134,749 5142,762 5146,768 5149,776 5151,785 5153,794 5154,809 5154,828 L 5154,841 5154,1008 5107,1008 Z"/>
       </g>
      </g>
      <g class="com.sun.star.drawing.ClosedBezierShape">
       <g id="id33">
        <path fill="rgb(0,0,0)" stroke="none" d="M 5407,823 C 5406,804 5399,790 5387,779 5374,769 5358,764 5336,764 5311,764 5292,773 5278,791 5265,809 5258,835 5258,869 5258,903 5265,929 5278,947 5291,966 5310,975 5334,975 5355,975 5373,969 5386,958 5399,947 5407,930 5410,909 L 5454,909 C 5452,943 5440,969 5418,988 5397,1007 5368,1017 5331,1017 5294,1017 5264,1004 5242,978 5221,952 5210,916 5210,871 5210,824 5221,788 5244,762 5266,735 5297,722 5336,722 5371,722 5399,731 5420,749 5441,767 5452,792 5453,823 L 5407,823 Z"/>
       </g>
      </g>
      <g class="com.sun.star.drawing.ClosedBezierShape">
       <g id="id34">
        <path fill="rgb(0,0,0)" stroke="none" d="M 5537,869 C 5537,904 5544,930 5559,949 5574,967 5595,976 5622,976 5649,976 5670,967 5684,949 5699,930 5706,904 5706,869 5706,835 5699,809 5684,790 5670,772 5649,763 5622,763 5595,763 5573,772 5559,790 5544,809 5537,835 5537,869 Z M 5489,869 C 5489,823 5501,787 5524,761 5547,735 5579,722 5621,722 5663,722 5696,735 5719,761 5742,787 5754,823 5754,869 5754,916 5742,952 5719,978 5696,1004 5664,1017 5622,1017 5580,1017 5547,1004 5524,978 5501,952 5489,916 5489,869 Z"/>
       </g>
      </g>
      <g class="com.sun.star.drawing.ClosedBezierShape">
       <g id="id35">
        <path fill="rgb(0,0,0)" stroke="none" d="M 6011,868 C 6011,834 6004,808 5990,790 5976,773 5956,764 5928,764 5902,764 5882,774 5868,793 5853,812 5846,839 5846,874 5846,906 5853,931 5868,949 5883,967 5903,976 5929,976 5955,976 5975,967 5990,948 6004,929 6011,903 6011,868 Z M 6054,628 L 6054,1008 6009,1008 6009,974 C 5998,988 5984,999 5969,1006 5954,1013 5938,1017 5919,1017 5882,1017 5853,1004 5831,977 5809,951 5798,915 5798,871 5798,825 5809,789 5831,762 5853,735 5883,722 5919,722 5939,722 5956,726 5971,733 5986,740 5999,751 6009,765 L 6009,628 6054,628 Z"/>
       </g>
      </g>
      <g class="com.sun.star.drawing.ClosedBezierShape">
       <g id="id36">
        <path fill="rgb(0,0,0)" stroke="none" d="M 6126,680 C 6126,662 6126,645 6126,627 6141,627 6157,627 6172,627 6172,645 6172,662 6172,680 6157,680 6141,680 6126,680 Z M 6126,1008 C 6126,916 6126,823 6126,731 6141,731 6157,731 6172,731 6172,823 6172,916 6172,1008 6157,1008 6141,1008 6126,1008 Z"/>
       </g>
      </g>
      <g class="com.sun.star.drawing.ClosedBezierShape">
       <g id="id37">
        <path fill="rgb(0,0,0)" stroke="none" d="M 6428,1008 L 6428,837 C 6428,810 6424,791 6415,781 6407,770 6393,765 6372,765 6346,765 6326,772 6312,787 6297,802 6290,823 6290,850 L 6290,1008 6244,1008 6244,731 6288,731 6288,771 C 6299,755 6311,743 6326,736 6341,728 6358,724 6377,724 6398,724 6415,727 6430,733 6444,740 6455,749 6463,762 6467,768 6470,776 6472,785 6474,794 6475,809 6475,828 L 6475,841 6475,1008 6428,1008 Z"/>
       </g>
      </g>
      <g class="com.sun.star.drawing.ClosedBezierShape">
       <g id="id38">
        <path fill="rgb(0,0,0)" stroke="none" d="M 6663,764 C 6636,764 6616,773 6602,791 6588,810 6581,836 6581,870 6581,903 6588,929 6603,947 6617,966 6637,975 6663,975 6691,975 6712,967 6726,950 6739,933 6746,907 6746,871 6746,836 6739,809 6725,791 6711,773 6690,764 6663,764 Z M 6744,974 C 6734,988 6721,999 6706,1006 6692,1013 6675,1017 6656,1017 6619,1017 6589,1003 6566,976 6543,949 6532,913 6532,869 6532,824 6543,789 6566,762 6589,735 6619,722 6657,722 6675,722 6691,726 6705,733 6719,740 6732,751 6744,766 L 6744,731 6789,731 6789,1002 C 6789,1045 6779,1075 6759,1094 6738,1113 6705,1123 6660,1123 6623,1123 6595,1116 6574,1102 6553,1087 6543,1067 6543,1042 L 6543,1040 6588,1040 6588,1041 C 6588,1055 6594,1066 6606,1073 6619,1080 6637,1084 6662,1084 6691,1084 6712,1078 6725,1067 6738,1056 6744,1038 6744,1012 L 6744,974 Z"/>
       </g>
      </g>
     </g>
     <g class="Group">
      <g class="com.sun.star.drawing.ClosedBezierShape">
       <g id="id39">
        <path fill="rgb(0,0,0)" stroke="none" d="M 5396,3877 L 5535,3877 5535,3831 5555,3831 C 5556,3848 5559,3860 5565,3869 5571,3877 5581,3882 5593,3884 L 5593,3903 5396,3903 5396,3877 Z"/>
       </g>
      </g>
      <g class="com.sun.star.drawing.ClosedBezierShape">
       <g id="id40">
        <path fill="rgb(0,0,0)" stroke="none" d="M 5492,3999 C 5465,3999 5445,4002 5432,4009 5420,4015 5414,4026 5414,4040 5414,4054 5420,4065 5432,4071 5444,4078 5464,4081 5492,4081 5519,4081 5539,4078 5552,4071 5564,4065 5570,4054 5570,4040 5570,4026 5564,4015 5552,4009 5539,4002 5519,3999 5492,3999 Z M 5492,3972 C 5525,3972 5550,3978 5568,3989 5585,4001 5594,4018 5594,4040 5594,4062 5585,4079 5568,4091 5550,4102 5525,4108 5492,4108 5459,4108 5433,4102 5416,4091 5399,4079 5391,4062 5391,4040 5391,4018 5399,4001 5416,3989 5433,3978 5459,3972 5492,3972 Z"/>
       </g>
      </g>
     </g>
     <g class="Group">
      <g class="com.sun.star.drawing.ClosedBezierShape">
       <g id="id41">
        <path fill="rgb(0,0,0)" stroke="none" d="M 555,3147 L 555,3406 517,3406 517,3102 576,3102 651,3335 C 653,3341 655,3346 656,3350 657,3354 658,3357 658,3360 660,3354 661,3350 662,3346 663,3342 664,3338 665,3335 L 744,3102 803,3102 803,3406 763,3406 763,3147 C 762,3151 761,3156 760,3160 758,3165 757,3169 756,3174 L 677,3406 638,3406 562,3174 C 560,3170 559,3166 558,3161 557,3157 556,3152 555,3147 Z"/>
       </g>
      </g>
      <g class="com.sun.star.drawing.ClosedBezierShape">
       <g id="id42">
        <path fill="rgb(0,0,0)" stroke="none" d="M 892,3276 L 1013,3276 C 1013,3255 1008,3239 997,3228 987,3217 972,3211 954,3211 935,3211 921,3217 910,3228 900,3239 894,3255 892,3276 Z M 1012,3335 L 1049,3335 C 1045,3359 1034,3378 1017,3392 1000,3406 978,3413 952,3413 922,3413 897,3403 880,3382 862,3362 853,3333 853,3298 853,3260 862,3231 879,3210 897,3189 921,3178 952,3178 984,3178 1009,3188 1026,3207 1043,3227 1052,3255 1052,3290 1052,3295 1052,3298 1052,3301 1052,3303 1052,3305 1051,3307 L 892,3307 C 893,3330 898,3348 909,3360 921,3373 936,3379 956,3379 971,3379 983,3375 993,3368 1003,3360 1009,3349 1012,3335 Z"/>
       </g>
      </g>
      <g class="com.sun.star.drawing.ClosedBezierShape">
       <g id="id43">
        <path fill="rgb(0,0,0)" stroke="none" d="M 1365,3406 L 1365,3270 C 1365,3248 1362,3232 1356,3224 1350,3216 1339,3212 1324,3212 1307,3212 1293,3218 1283,3229 1273,3240 1268,3255 1268,3275 L 1268,3406 1230,3406 1230,3270 C 1230,3248 1227,3232 1221,3224 1215,3216 1204,3212 1190,3212 1172,3212 1158,3218 1148,3229 1138,3240 1133,3256 1133,3275 L 1133,3406 1096,3406 1096,3185 1131,3185 1131,3216 C 1140,3204 1149,3194 1161,3188 1172,3182 1185,3179 1200,3179 1214,3179 1226,3182 1236,3187 1245,3193 1254,3202 1261,3214 1270,3202 1281,3193 1292,3187 1304,3182 1317,3179 1332,3179 1346,3179 1358,3182 1369,3187 1379,3192 1388,3199 1393,3209 1396,3215 1399,3222 1400,3230 1401,3237 1402,3250 1402,3267 L 1402,3273 1402,3406 1365,3406 Z"/>
       </g>
      </g>
      <g class="com.sun.star.drawing.ClosedBezierShape">
       <g id="id44">
        <path fill="rgb(0,0,0)" stroke="none" d="M 1487,3295 C 1487,3323 1493,3344 1505,3358 1517,3373 1533,3380 1555,3380 1577,3380 1594,3373 1606,3358 1617,3344 1623,3323 1623,3295 1623,3268 1617,3247 1606,3233 1594,3218 1577,3211 1555,3211 1533,3211 1516,3218 1505,3233 1493,3247 1487,3268 1487,3295 Z M 1449,3295 C 1449,3258 1458,3230 1477,3209 1495,3188 1521,3178 1555,3178 1588,3178 1615,3188 1633,3209 1652,3229 1661,3258 1661,3295 1661,3333 1652,3361 1633,3382 1615,3403 1589,3413 1555,3413 1522,3413 1495,3403 1477,3382 1458,3362 1449,3333 1449,3295 Z"/>
       </g>
      </g>
      <g class="com.sun.star.drawing.ClosedBezierShape">
       <g id="id45">
        <path fill="rgb(0,0,0)" stroke="none" d="M 1706,3406 L 1706,3185 1742,3185 1742,3224 C 1748,3209 1756,3198 1766,3191 1776,3184 1788,3180 1803,3180 1806,3180 1808,3180 1809,3180 1811,3180 1812,3180 1813,3181 L 1813,3219 C 1812,3219 1811,3219 1810,3219 1808,3219 1807,3219 1804,3219 1784,3219 1769,3224 1759,3235 1748,3246 1743,3262 1743,3283 L 1743,3406 1706,3406 Z"/>
       </g>
      </g>
      <g class="com.sun.star.drawing.ClosedBezierShape">
       <g id="id46">
        <path fill="rgb(0,0,0)" stroke="none" d="M 1986,3185 L 2028,3185 1935,3440 C 1926,3464 1917,3480 1908,3488 1899,3495 1886,3499 1869,3499 1865,3499 1862,3499 1858,3498 1854,3497 1851,3497 1847,3495 L 1847,3460 C 1851,3461 1854,3462 1858,3462 1862,3463 1865,3463 1869,3463 1876,3463 1882,3462 1886,3459 1891,3456 1894,3451 1896,3445 L 1906,3419 1822,3185 1864,3185 1925,3364 1986,3185 Z"/>
       </g>
      </g>
      <g class="com.sun.star.drawing.ClosedBezierShape">
       <g id="id47">
        <path fill="rgb(0,0,0)" stroke="none" d="M 2176,3406 L 2176,3185 2212,3185 2212,3224 C 2218,3209 2226,3198 2236,3191 2246,3184 2258,3180 2273,3180 2276,3180 2278,3180 2279,3180 2281,3180 2282,3180 2283,3181 L 2283,3219 C 2282,3219 2281,3219 2280,3219 2278,3219 2277,3219 2274,3219 2254,3219 2239,3224 2229,3235 2218,3246 2213,3262 2213,3283 L 2213,3406 2176,3406 Z"/>
       </g>
      </g>
      <g class="com.sun.star.drawing.ClosedBezierShape">
       <g id="id48">
        <path fill="rgb(0,0,0)" stroke="none" d="M 2344,3276 L 2465,3276 C 2465,3255 2460,3239 2449,3228 2439,3217 2424,3211 2406,3211 2387,3211 2373,3217 2362,3228 2352,3239 2346,3255 2344,3276 Z M 2464,3335 L 2501,3335 C 2497,3359 2486,3378 2469,3392 2452,3406 2430,3413 2404,3413 2374,3413 2349,3403 2332,3382 2314,3362 2305,3333 2305,3298 2305,3260 2314,3231 2331,3210 2349,3189 2373,3178 2404,3178 2436,3178 2461,3188 2478,3207 2495,3227 2504,3255 2504,3290 2504,3295 2504,3298 2504,3301 2504,3303 2504,3305 2503,3307 L 2344,3307 C 2345,3330 2350,3348 2361,3360 2373,3373 2388,3379 2408,3379 2423,3379 2435,3375 2445,3368 2455,3360 2461,3349 2464,3335 Z"/>
       </g>
      </g>
      <g class="com.sun.star.drawing.ClosedBezierShape">
       <g id="id49">
        <path fill="rgb(0,0,0)" stroke="none" d="M 2584,3297 C 2584,3325 2589,3345 2600,3359 2611,3373 2628,3380 2650,3380 2671,3380 2687,3372 2698,3357 2709,3342 2715,3320 2715,3292 2715,3267 2709,3247 2697,3233 2686,3218 2670,3211 2649,3211 2628,3211 2612,3218 2601,3233 2590,3248 2584,3269 2584,3297 Z M 2549,3494 L 2549,3185 2585,3185 2585,3216 C 2594,3203 2605,3193 2616,3187 2628,3181 2641,3178 2657,3178 2687,3178 2710,3189 2728,3210 2745,3231 2754,3259 2754,3295 2754,3331 2745,3360 2727,3381 2710,3402 2686,3413 2657,3413 2641,3413 2628,3410 2616,3405 2604,3399 2594,3391 2585,3379 L 2585,3494 2549,3494 Z"/>
       </g>
      </g>
      <g class="com.sun.star.drawing.ClosedBezierShape">
       <g id="id50">
        <path fill="rgb(0,0,0)" stroke="none" d="M 2798,3406 L 2798,3185 2834,3185 2834,3224 C 2840,3209 2848,3198 2858,3191 2868,3184 2880,3180 2895,3180 2898,3180 2900,3180 2901,3180 2903,3180 2904,3180 2905,3181 L 2905,3219 C 2904,3219 2903,3219 2902,3219 2900,3219 2899,3219 2896,3219 2876,3219 2861,3224 2851,3235 2840,3246 2835,3262 2835,3283 L 2835,3406 2798,3406 Z"/>
       </g>
      </g>
      <g class="com.sun.star.drawing.ClosedBezierShape">
       <g id="id51">
        <path fill="rgb(0,0,0)" stroke="none" d="M 2967,3276 L 3088,3276 C 3088,3255 3083,3239 3072,3228 3062,3217 3047,3211 3029,3211 3010,3211 2996,3217 2985,3228 2975,3239 2969,3255 2967,3276 Z M 3087,3335 L 3124,3335 C 3120,3359 3109,3378 3092,3392 3075,3406 3053,3413 3027,3413 2997,3413 2972,3403 2955,3382 2937,3362 2928,3333 2928,3298 2928,3260 2937,3231 2954,3210 2972,3189 2996,3178 3027,3178 3059,3178 3084,3188 3101,3207 3118,3227 3127,3255 3127,3290 3127,3295 3127,3298 3127,3301 3127,3303 3127,3305 3126,3307 L 2967,3307 C 2968,3330 2973,3348 2984,3360 2996,3373 3011,3379 3031,3379 3046,3379 3058,3375 3068,3368 3078,3360 3084,3349 3087,3335 Z"/>
       </g>
      </g>
      <g class="com.sun.star.drawing.ClosedBezierShape">
       <g id="id52">
        <path fill="rgb(0,0,0)" stroke="none" d="M 3156,3334 L 3192,3334 C 3193,3349 3199,3361 3208,3368 3218,3376 3231,3380 3248,3380 3264,3380 3277,3377 3286,3371 3295,3364 3300,3356 3300,3345 3300,3337 3298,3330 3293,3326 3288,3322 3279,3318 3266,3315 L 3224,3304 C 3201,3298 3185,3291 3176,3282 3167,3272 3162,3259 3162,3242 3162,3222 3169,3207 3184,3195 3199,3184 3219,3178 3245,3178 3271,3178 3292,3184 3308,3197 3323,3209 3331,3225 3331,3246 L 3331,3247 3295,3247 C 3294,3235 3289,3226 3281,3220 3272,3213 3260,3210 3245,3210 3230,3210 3218,3213 3211,3218 3203,3223 3199,3231 3199,3241 3199,3248 3201,3254 3206,3258 3211,3262 3220,3265 3234,3268 L 3270,3277 C 3295,3283 3313,3291 3323,3300 3332,3309 3337,3323 3337,3340 3337,3363 3329,3381 3313,3394 3297,3407 3274,3413 3245,3413 3216,3413 3195,3406 3179,3393 3164,3379 3156,3360 3156,3334 Z"/>
       </g>
      </g>
      <g class="com.sun.star.drawing.ClosedBezierShape">
       <g id="id53">
        <path fill="rgb(0,0,0)" stroke="none" d="M 3411,3276 L 3532,3276 C 3532,3255 3527,3239 3516,3228 3506,3217 3491,3211 3473,3211 3454,3211 3440,3217 3429,3228 3419,3239 3413,3255 3411,3276 Z M 3531,3335 L 3568,3335 C 3564,3359 3553,3378 3536,3392 3519,3406 3497,3413 3471,3413 3441,3413 3416,3403 3399,3382 3381,3362 3372,3333 3372,3298 3372,3260 3381,3231 3398,3210 3416,3189 3440,3178 3471,3178 3503,3178 3528,3188 3545,3207 3562,3227 3571,3255 3571,3290 3571,3295 3571,3298 3571,3301 3571,3303 3571,3305 3570,3307 L 3411,3307 C 3412,3330 3417,3348 3428,3360 3440,3373 3455,3379 3475,3379 3490,3379 3502,3375 3512,3368 3522,3360 3528,3349 3531,3335 Z"/>
       </g>
      </g>
      <g class="com.sun.star.drawing.ClosedBezierShape">
       <g id="id54">
        <path fill="rgb(0,0,0)" stroke="none" d="M 3762,3406 L 3762,3270 C 3762,3248 3759,3233 3752,3225 3745,3216 3734,3212 3718,3212 3697,3212 3681,3218 3669,3230 3658,3241 3652,3258 3652,3280 L 3652,3406 3615,3406 3615,3185 3650,3185 3650,3217 C 3659,3204 3669,3194 3681,3188 3693,3182 3706,3179 3722,3179 3738,3179 3752,3182 3764,3187 3775,3192 3784,3199 3790,3209 3794,3215 3796,3221 3798,3228 3799,3235 3800,3247 3800,3262 L 3800,3273 3800,3406 3762,3406 Z"/>
       </g>
      </g>
      <g class="com.sun.star.drawing.ClosedBezierShape">
       <g id="id55">
        <path fill="rgb(0,0,0)" stroke="none" d="M 3900,3350 C 3900,3360 3901,3367 3904,3370 3907,3373 3912,3375 3920,3375 3922,3375 3925,3375 3928,3375 3931,3375 3935,3374 3940,3374 L 3940,3406 C 3934,3407 3928,3408 3923,3408 3918,3409 3914,3409 3910,3409 3893,3409 3881,3406 3874,3399 3867,3392 3863,3380 3863,3363 L 3863,3215 3830,3215 3830,3185 3863,3185 3863,3123 3900,3123 3900,3185 3940,3185 3940,3215 3900,3215 3900,3350 Z"/>
       </g>
      </g>
      <g class="com.sun.star.drawing.ClosedBezierShape">
       <g id="id56">
        <path fill="rgb(0,0,0)" stroke="none" d="M 4112,3376 C 4101,3388 4089,3398 4076,3404 4062,3410 4049,3413 4034,3413 4011,3413 3994,3407 3981,3395 3968,3384 3962,3367 3962,3346 3962,3326 3968,3311 3981,3299 3993,3288 4012,3280 4038,3277 4044,3276 4053,3275 4064,3274 4083,3272 4095,3270 4099,3269 4103,3267 4106,3265 4107,3262 4109,3259 4109,3254 4109,3245 4109,3233 4105,3225 4097,3219 4089,3214 4076,3211 4059,3211 4042,3211 4029,3214 4020,3221 4011,3228 4007,3238 4007,3252 L 3972,3252 3972,3250 C 3972,3228 3980,3210 3996,3197 4011,3184 4033,3178 4061,3178 4090,3178 4112,3184 4126,3195 4140,3206 4147,3223 4147,3247 L 4147,3357 C 4147,3366 4148,3372 4150,3375 4152,3378 4156,3379 4161,3379 4162,3379 4164,3379 4165,3379 4167,3378 4169,3378 4171,3378 L 4171,3407 C 4166,3408 4163,3409 4159,3409 4156,3410 4153,3410 4150,3410 4137,3410 4128,3407 4122,3402 4116,3396 4112,3388 4112,3377 L 4112,3376 Z M 4109,3294 C 4099,3299 4082,3303 4058,3306 4049,3307 4043,3308 4038,3309 4025,3311 4015,3315 4009,3321 4003,3327 4000,3335 4000,3346 4000,3357 4003,3365 4010,3371 4017,3377 4027,3380 4040,3380 4060,3380 4077,3375 4090,3365 4103,3355 4109,3342 4109,3327 L 4109,3294 Z"/>
       </g>
      </g>
      <g class="com.sun.star.drawing.ClosedBezierShape">
       <g id="id57">
        <path fill="rgb(0,0,0)" stroke="none" d="M 4247,3350 C 4247,3360 4248,3367 4251,3370 4254,3373 4259,3375 4267,3375 4269,3375 4272,3375 4275,3375 4278,3375 4282,3374 4287,3374 L 4287,3406 C 4281,3407 4275,3408 4270,3408 4265,3409 4261,3409 4257,3409 4240,3409 4228,3406 4221,3399 4214,3392 4210,3380 4210,3363 L 4210,3215 4177,3215 4177,3185 4210,3185 4210,3123 4247,3123 4247,3185 4287,3185 4287,3215 4247,3215 4247,3350 Z"/>
       </g>
      </g>
      <g class="com.sun.star.drawing.ClosedBezierShape">
       <g id="id58">
        <path fill="rgb(0,0,0)" stroke="none" d="M 4322,3144 C 4322,3130 4322,3116 4322,3102 4334,3102 4347,3102 4359,3102 4359,3116 4359,3130 4359,3144 4347,3144 4334,3144 4322,3144 Z M 4322,3406 C 4322,3332 4322,3259 4322,3185 4334,3185 4347,3185 4359,3185 4359,3259 4359,3332 4359,3406 4347,3406 4334,3406 4322,3406 Z"/>
       </g>
      </g>
      <g class="com.sun.star.drawing.ClosedBezierShape">
       <g id="id59">
        <path fill="rgb(0,0,0)" stroke="none" d="M 4442,3295 C 4442,3323 4448,3344 4460,3358 4472,3373 4488,3380 4510,3380 4532,3380 4549,3373 4561,3358 4572,3344 4578,3323 4578,3295 4578,3268 4572,3247 4561,3233 4549,3218 4532,3211 4510,3211 4488,3211 4471,3218 4460,3233 4448,3247 4442,3268 4442,3295 Z M 4404,3295 C 4404,3258 4413,3230 4432,3209 4450,3188 4476,3178 4510,3178 4543,3178 4570,3188 4588,3209 4607,3229 4616,3258 4616,3295 4616,3333 4607,3361 4588,3382 4570,3403 4544,3413 4510,3413 4477,3413 4450,3403 4432,3382 4413,3362 4404,3333 4404,3295 Z"/>
       </g>
      </g>
      <g class="com.sun.star.drawing.ClosedBezierShape">
       <g id="id60">
        <path fill="rgb(0,0,0)" stroke="none" d="M 4808,3406 L 4808,3270 C 4808,3248 4805,3233 4798,3225 4791,3216 4780,3212 4764,3212 4743,3212 4727,3218 4715,3230 4704,3241 4698,3258 4698,3280 L 4698,3406 4661,3406 4661,3185 4696,3185 4696,3217 C 4705,3204 4715,3194 4727,3188 4739,3182 4752,3179 4768,3179 4784,3179 4798,3182 4810,3187 4821,3192 4830,3199 4836,3209 4840,3215 4842,3221 4844,3228 4845,3235 4846,3247 4846,3262 L 4846,3273 4846,3406 4808,3406 Z"/>
       </g>
      </g>
      <g class="com.sun.star.drawing.ClosedBezierShape">
       <g id="id61">
        <path fill="rgb(0,0,0)" stroke="none" d="M 4916,3231 C 4916,3216 4916,3200 4916,3185 4930,3185 4945,3185 4959,3185 4959,3200 4959,3216 4959,3231 4945,3231 4930,3231 4916,3231 Z M 4916,3406 C 4916,3391 4916,3375 4916,3360 4930,3360 4945,3360 4959,3360 4959,3375 4959,3391 4959,3406 4945,3406 4930,3406 4916,3406 Z"/>
       </g>
      </g>
     </g>
     <g class="Group">
      <g class="com.sun.star.drawing.ClosedBezierShape">
       <g id="id62">
        <path fill="rgb(255,255,255)" stroke="none" d="M 5800,3600 C 5800,3400 5800,3200 5800,3000 6000,3000 6200,3000 6400,3000 6400,3200 6400,3400 6400,3600 6200,3600 6000,3600 5800,3600 Z"/>
        <path fill="none" stroke="rgb(0,0,0)" stroke-width="20" stroke-linejoin="round" d="M 5800,3600 C 5800,3400 5800,3200 5800,3000 6000,3000 6200,3000 6400,3000 6400,3200 6400,3400 6400,3600 6200,3600 6000,3600 5800,3600 Z"/>
       </g>
      </g>
      <g class="com.sun.star.drawing.ClosedBezierShape">
       <g id="id63">
        <path fill="rgb(0,0,0)" stroke="none" d="M 5899,3427 L 5899,3173 6001,3173 C 6028,3173 6047,3178 6060,3189 6073,3199 6080,3214 6080,3235 6080,3248 6077,3259 6071,3269 6065,3278 6056,3285 6044,3290 6059,3293 6071,3300 6079,3310 6088,3321 6092,3335 6092,3351 6092,3374 6084,3393 6069,3407 6054,3420 6033,3427 6006,3427 L 5899,3427 Z M 5933,3280 L 5994,3280 C 6012,3280 6025,3277 6033,3270 6042,3264 6046,3254 6046,3240 6046,3227 6042,3218 6034,3211 6026,3205 6013,3202 5997,3202 L 5933,3202 5933,3280 Z M 5933,3396 L 6003,3396 C 6021,3396 6034,3392 6043,3384 6052,3377 6057,3365 6057,3351 6057,3336 6052,3325 6043,3318 6034,3311 6019,3308 5999,3308 L 5933,3308 5933,3396 Z"/>
       </g>
      </g>
      <g class="com.sun.star.drawing.ClosedBezierShape">
       <g id="id64">
        <path fill="rgb(0,0,0)" stroke="none" d="M 6132,3427 C 6132,3342 6132,3258 6132,3173 6192,3173 6253,3173 6313,3173 6313,3184 6313,3194 6313,3205 6264,3205 6215,3205 6166,3205 6166,3230 6166,3255 6166,3280 6211,3280 6257,3280 6302,3280 6302,3290 6302,3300 6302,3310 6257,3310 6211,3310 6166,3310 6166,3338 6166,3367 6166,3395 6216,3395 6266,3395 6316,3395 6316,3406 6316,3416 6316,3427 6255,3427 6193,3427 6132,3427 Z"/>
       </g>
      </g>
     </g>
     <g class="Group">
      <g class="com.sun.star.drawing.ClosedBezierShape">
       <g id="id65">
        <path fill="rgb(0,0,0)" stroke="none" d="M 5997,3877 L 6136,3877 6136,3831 6156,3831 C 6156,3848 6159,3860 6165,3869 6171,3877 6181,3882 6194,3884 L 6194,3903 5997,3903 5997,3877 Z"/>
       </g>
      </g>
      <g class="com.sun.star.drawing.ClosedBezierShape">
       <g id="id66">
        <path fill="rgb(0,0,0)" stroke="none" d="M 5997,4034 L 6136,4034 6136,3988 6156,3988 C 6156,4005 6159,4017 6165,4026 6171,4034 6181,4039 6194,4041 L 6194,4060 5997,4060 5997,4034 Z"/>
       </g>
      </g>
     </g>
     <g class="Group">
      <g class="com.sun.star.drawing.ClosedBezierShape">
       <g id="id67">
        <path fill="rgb(255,255,255)" stroke="none" d="M 6400,3600 C 6400,3400 6400,3200 6400,3000 6600,3000 6800,3000 7000,3000 7000,3200 7000,3400 7000,3600 6800,3600 6600,3600 6400,3600 Z"/>
        <path fill="none" stroke="rgb(0,0,0)" stroke-width="20" stroke-linejoin="round" d="M 6400,3600 C 6400,3400 6400,3200 6400,3000 6600,3000 6800,3000 7000,3000 7000,3200 7000,3400 7000,3600 6800,3600 6600,3600 6400,3600 Z"/>
       </g>
      </g>
      <g class="com.sun.star.drawing.ClosedBezierShape">
       <g id="id68">
        <path fill="rgb(0,0,0)" stroke="none" d="M 6535,3322 C 6562,3322 6588,3322 6615,3322 6601,3285 6588,3247 6575,3210 6562,3247 6549,3285 6535,3322 Z M 6462,3427 C 6493,3342 6525,3258 6556,3173 6569,3173 6582,3173 6594,3173 6626,3258 6657,3342 6689,3427 6677,3427 6664,3427 6652,3427 6643,3402 6634,3377 6625,3352 6591,3352 6558,3352 6525,3352 6516,3377 6507,3402 6498,3427 6486,3427 6474,3427 6462,3427 Z"/>
       </g>
      </g>
      <g class="com.sun.star.drawing.ClosedBezierShape">
       <g id="id69">
        <path fill="rgb(0,0,0)" stroke="none" d="M 6808,3202 L 6748,3202 6748,3396 6808,3396 C 6833,3396 6852,3388 6865,3371 6878,3355 6885,3330 6885,3298 6885,3267 6878,3243 6865,3227 6852,3210 6833,3202 6808,3202 Z M 6714,3427 L 6714,3173 6811,3173 C 6846,3173 6873,3184 6892,3205 6911,3226 6920,3256 6920,3296 6920,3338 6910,3370 6891,3393 6871,3416 6844,3427 6809,3427 L 6714,3427 Z"/>
       </g>
      </g>
     </g>
     <g class="Group">
      <g class="com.sun.star.drawing.ClosedBezierShape">
       <g id="id70">
        <path fill="rgb(0,0,0)" stroke="none" d="M 6596,3877 L 6735,3877 6735,3831 6755,3831 C 6756,3848 6759,3860 6765,3869 6771,3877 6781,3882 6793,3884 L 6793,3903 6596,3903 6596,3877 Z"/>
       </g>
      </g>
      <g class="com.sun.star.drawing.ClosedBezierShape">
       <g id="id71">
        <path fill="rgb(0,0,0)" stroke="none" d="M 6596,3971 L 6598,3971 C 6617,3971 6633,3976 6646,3985 6659,3994 6672,4010 6684,4033 L 6694,4049 C 6699,4059 6705,4066 6712,4071 6719,4076 6727,4078 6736,4078 6746,4078 6755,4074 6761,4067 6767,4060 6770,4051 6770,4039 6770,4027 6766,4018 6758,4011 6750,4004 6739,4001 6725,4001 L 6722,4001 6722,3975 6726,3975 C 6747,3975 6763,3981 6775,3993 6787,4004 6793,4020 6793,4040 6793,4060 6788,4076 6777,4087 6767,4099 6753,4105 6735,4105 6722,4105 6710,4102 6700,4095 6690,4088 6681,4077 6673,4063 L 6665,4046 C 6657,4031 6650,4020 6643,4013 6636,4006 6629,4001 6620,3999 L 6620,4105 6596,4105 6596,3971 Z"/>
       </g>
      </g>
     </g>
     <g class="Group">
      <g class="com.sun.star.drawing.ClosedBezierShape">
       <g id="id72">
        <path fill="rgb(255,255,255)" stroke="none" d="M 7000,3600 C 7000,3400 7000,3200 7000,3000 7200,3000 7400,3000 7600,3000 7600,3200 7600,3400 7600,3600 7400,3600 7200,3600 7000,3600 Z"/>
        <path fill="none" stroke="rgb(0,0,0)" stroke-width="20" stroke-linejoin="round" d="M 7000,3600 C 7000,3400 7000,3200 7000,3000 7200,3000 7400,3000 7600,3000 7600,3200 7600,3400 7600,3600 7400,3600 7200,3600 7000,3600 Z"/>
       </g>
      </g>
      <g class="com.sun.star.drawing.ClosedBezierShape">
       <g id="id73">
        <path fill="rgb(0,0,0)" stroke="none" d="M 7184,3202 L 7124,3202 7124,3396 7184,3396 C 7209,3396 7228,3388 7241,3371 7254,3355 7261,3330 7261,3298 7261,3267 7254,3243 7241,3227 7228,3210 7209,3202 7184,3202 Z M 7090,3427 L 7090,3173 7187,3173 C 7222,3173 7249,3184 7268,3205 7287,3226 7296,3256 7296,3296 7296,3338 7286,3370 7267,3393 7247,3416 7220,3427 7185,3427 L 7090,3427 Z"/>
       </g>
      </g>
      <g class="com.sun.star.drawing.ClosedBezierShape">
       <g id="id74">
        <path fill="rgb(0,0,0)" stroke="none" d="M 7340,3427 C 7340,3342 7340,3258 7340,3173 7400,3173 7461,3173 7521,3173 7521,3184 7521,3194 7521,3205 7472,3205 7423,3205 7374,3205 7374,3230 7374,3255 7374,3280 7419,3280 7465,3280 7510,3280 7510,3290 7510,3300 7510,3310 7465,3310 7419,3310 7374,3310 7374,3338 7374,3367 7374,3395 7424,3395 7474,3395 7524,3395 7524,3406 7524,3416 7524,3427 7463,3427 7401,3427 7340,3427 Z"/>
       </g>
      </g>
     </g>
     <g class="Group">
      <g class="com.sun.star.drawing.ClosedBezierShape">
       <g id="id75">
        <path fill="rgb(0,0,0)" stroke="none" d="M 7196,3877 L 7336,3877 7336,3831 7355,3831 C 7356,3848 7359,3860 7365,3869 7371,3877 7381,3882 7393,3884 L 7393,3903 7196,3903 7196,3877 Z"/>
       </g>
      </g>
      <g class="com.sun.star.drawing.ClosedBezierShape">
       <g id="id76">
        <path fill="rgb(0,0,0)" stroke="none" d="M 7258,3968 L 7258,3994 C 7244,3994 7233,3998 7226,4005 7218,4013 7215,4023 7215,4036 7215,4049 7218,4059 7225,4066 7232,4073 7241,4077 7253,4077 7264,4077 7272,4073 7278,4066 7284,4059 7288,4049 7288,4036 7288,4033 7287,4029 7287,4023 L 7287,4022 7309,4022 C 7309,4023 7309,4024 7309,4026 7309,4027 7309,4028 7309,4030 7309,4044 7311,4054 7316,4061 7321,4067 7329,4070 7339,4070 7349,4070 7357,4067 7362,4061 7368,4055 7371,4047 7371,4036 7371,4023 7367,4014 7360,4008 7353,4001 7342,3998 7329,3998 L 7329,3973 7330,3973 C 7349,3973 7365,3979 7376,3990 7388,4001 7394,4015 7394,4034 7394,4054 7389,4069 7380,4080 7370,4091 7357,4097 7341,4097 7331,4097 7323,4095 7316,4091 7309,4087 7304,4081 7301,4073 7297,4083 7291,4091 7283,4096 7275,4101 7265,4104 7253,4104 7234,4104 7219,4098 7207,4085 7196,4072 7191,4055 7191,4034 7191,4014 7196,3998 7208,3986 7220,3974 7236,3968 7256,3968 L 7258,3968 Z"/>
       </g>
      </g>
     </g>
     <g class="Group">
      <g class="com.sun.star.drawing.ClosedBezierShape">
       <g id="id77">
        <path fill="rgb(0,0,0)" stroke="none" d="M 1820,2280 C 1851,2280 1883,2280 1915,2280 1899,2235 1883,2190 1868,2146 1852,2190 1836,2235 1820,2280 Z M 1732,2406 C 1770,2305 1807,2203 1845,2102 1860,2102 1875,2102 1891,2102 1928,2203 1966,2305 2004,2406 1989,2406 1974,2406 1959,2406 1948,2376 1938,2346 1927,2316 1887,2316 1847,2316 1807,2316 1796,2346 1785,2376 1775,2406 1760,2406 1746,2406 1732,2406 Z"/>
       </g>
      </g>
      <g class="com.sun.star.drawing.ClosedBezierShape">
       <g id="id78">
        <path fill="rgb(0,0,0)" stroke="none" d="M 2068,2294 C 2068,2322 2074,2343 2085,2358 2096,2373 2112,2380 2133,2380 2154,2380 2170,2373 2181,2358 2193,2344 2199,2324 2199,2299 2199,2271 2193,2249 2182,2234 2171,2219 2155,2211 2134,2211 2112,2211 2095,2218 2084,2232 2073,2246 2068,2266 2068,2294 Z M 2033,2406 L 2033,2102 2069,2102 2069,2216 C 2078,2203 2088,2194 2100,2187 2112,2181 2126,2178 2141,2178 2170,2178 2194,2189 2211,2210 2229,2232 2238,2260 2238,2296 2238,2332 2229,2360 2212,2381 2194,2402 2171,2413 2141,2413 2126,2413 2112,2410 2100,2405 2089,2399 2078,2390 2069,2378 L 2069,2406 2033,2406 Z"/>
       </g>
      </g>
      <g class="com.sun.star.drawing.ClosedBezierShape">
       <g id="id79">
        <path fill="rgb(0,0,0)" stroke="none" d="M 2267,2334 L 2303,2334 C 2304,2349 2310,2361 2319,2368 2329,2376 2342,2380 2359,2380 2375,2380 2388,2377 2397,2371 2406,2364 2411,2356 2411,2345 2411,2337 2409,2330 2404,2326 2399,2322 2390,2318 2377,2315 L 2335,2304 C 2312,2298 2296,2291 2287,2282 2278,2272 2273,2259 2273,2242 2273,2222 2280,2207 2295,2195 2310,2184 2330,2178 2356,2178 2382,2178 2403,2184 2419,2197 2434,2209 2442,2225 2442,2246 L 2442,2247 2406,2247 C 2405,2235 2400,2226 2392,2220 2383,2213 2371,2210 2356,2210 2341,2210 2329,2213 2322,2218 2314,2223 2310,2231 2310,2241 2310,2248 2312,2254 2317,2258 2322,2262 2331,2265 2345,2268 L 2381,2277 C 2406,2283 2424,2291 2434,2300 2443,2309 2448,2323 2448,2340 2448,2363 2440,2381 2424,2394 2408,2407 2385,2413 2356,2413 2327,2413 2306,2406 2290,2393 2275,2379 2267,2360 2267,2334 Z"/>
       </g>
      </g>
      <g class="com.sun.star.drawing.ClosedBezierShape">
       <g id="id80">
        <path fill="rgb(0,0,0)" stroke="none" d="M 2537,2350 C 2537,2360 2538,2367 2541,2370 2544,2373 2549,2375 2557,2375 2559,2375 2562,2375 2565,2375 2568,2375 2572,2374 2577,2374 L 2577,2406 C 2571,2407 2565,2408 2560,2408 2555,2409 2551,2409 2547,2409 2530,2409 2518,2406 2511,2399 2504,2392 2500,2380 2500,2363 L 2500,2215 2467,2215 2467,2185 2500,2185 2500,2123 2537,2123 2537,2185 2577,2185 2577,2215 2537,2215 2537,2350 Z"/>
       </g>
      </g>
      <g class="com.sun.star.drawing.ClosedBezierShape">
       <g id="id81">
        <path fill="rgb(0,0,0)" stroke="none" d="M 2612,2406 L 2612,2185 2648,2185 2648,2224 C 2654,2209 2662,2198 2672,2191 2682,2184 2694,2180 2709,2180 2712,2180 2714,2180 2715,2180 2717,2180 2718,2180 2719,2181 L 2719,2219 C 2718,2219 2717,2219 2716,2219 2714,2219 2713,2219 2710,2219 2690,2219 2675,2224 2665,2235 2654,2246 2649,2262 2649,2283 L 2649,2406 2612,2406 Z"/>
       </g>
      </g>
      <g class="com.sun.star.drawing.ClosedBezierShape">
       <g id="id82">
        <path fill="rgb(0,0,0)" stroke="none" d="M 2889,2376 C 2878,2388 2866,2398 2853,2404 2839,2410 2826,2413 2811,2413 2788,2413 2771,2407 2758,2395 2745,2384 2739,2367 2739,2346 2739,2326 2745,2311 2758,2299 2770,2288 2789,2280 2815,2277 2821,2276 2830,2275 2841,2274 2860,2272 2872,2270 2876,2269 2880,2267 2883,2265 2884,2262 2886,2259 2886,2254 2886,2245 2886,2233 2882,2225 2874,2219 2866,2214 2853,2211 2836,2211 2819,2211 2806,2214 2797,2221 2788,2228 2784,2238 2784,2252 L 2749,2252 2749,2250 C 2749,2228 2757,2210 2773,2197 2788,2184 2810,2178 2838,2178 2867,2178 2889,2184 2903,2195 2917,2206 2924,2223 2924,2247 L 2924,2357 C 2924,2366 2925,2372 2927,2375 2929,2378 2933,2379 2938,2379 2939,2379 2941,2379 2942,2379 2944,2378 2946,2378 2948,2378 L 2948,2407 C 2943,2408 2940,2409 2936,2409 2933,2410 2930,2410 2927,2410 2914,2410 2905,2407 2899,2402 2893,2396 2889,2388 2889,2377 L 2889,2376 Z M 2886,2294 C 2876,2299 2859,2303 2835,2306 2826,2307 2820,2308 2815,2309 2802,2311 2792,2315 2786,2321 2780,2327 2777,2335 2777,2346 2777,2357 2780,2365 2787,2371 2794,2377 2804,2380 2817,2380 2837,2380 2854,2375 2867,2365 2880,2355 2886,2342 2886,2327 L 2886,2294 Z"/>
       </g>
      </g>
      <g class="com.sun.star.drawing.ClosedBezierShape">
       <g id="id83">
        <path fill="rgb(0,0,0)" stroke="none" d="M 3127,2259 C 3126,2244 3120,2232 3111,2223 3101,2215 3087,2211 3070,2211 3050,2211 3034,2218 3023,2233 3012,2247 3007,2268 3007,2295 3007,2322 3012,2342 3023,2357 3033,2372 3048,2379 3067,2379 3085,2379 3098,2374 3109,2365 3119,2356 3126,2343 3128,2326 L 3164,2326 C 3162,2353 3153,2375 3135,2390 3118,2405 3095,2413 3066,2413 3036,2413 3012,2403 2995,2382 2978,2361 2969,2333 2969,2296 2969,2259 2978,2230 2996,2209 3014,2188 3039,2178 3070,2178 3098,2178 3121,2185 3137,2200 3154,2214 3163,2234 3164,2259 L 3127,2259 Z"/>
       </g>
      </g>
      <g class="com.sun.star.drawing.ClosedBezierShape">
       <g id="id84">
        <path fill="rgb(0,0,0)" stroke="none" d="M 3244,2350 C 3244,2360 3245,2367 3248,2370 3251,2373 3256,2375 3264,2375 3266,2375 3269,2375 3272,2375 3275,2375 3279,2374 3284,2374 L 3284,2406 C 3278,2407 3272,2408 3267,2408 3262,2409 3258,2409 3254,2409 3237,2409 3225,2406 3218,2399 3211,2392 3207,2380 3207,2363 L 3207,2215 3174,2215 3174,2185 3207,2185 3207,2123 3244,2123 3244,2185 3284,2185 3284,2215 3244,2215 3244,2350 Z"/>
       </g>
      </g>
      <g class="com.sun.star.drawing.ClosedBezierShape">
       <g id="id85">
        <path fill="rgb(0,0,0)" stroke="none" d="M 3580,2406 L 3580,2270 C 3580,2248 3577,2233 3570,2225 3563,2216 3552,2212 3536,2212 3515,2212 3499,2218 3487,2230 3476,2241 3470,2258 3470,2280 L 3470,2406 3433,2406 3433,2185 3468,2185 3468,2217 C 3477,2204 3487,2194 3499,2188 3511,2182 3524,2179 3540,2179 3556,2179 3570,2182 3582,2187 3593,2192 3602,2199 3608,2209 3612,2215 3614,2221 3616,2228 3617,2235 3618,2247 3618,2262 L 3618,2273 3618,2406 3580,2406 Z"/>
       </g>
      </g>
      <g class="com.sun.star.drawing.ClosedBezierShape">
       <g id="id86">
        <path fill="rgb(0,0,0)" stroke="none" d="M 3711,2185 L 3711,2321 C 3711,2343 3714,2358 3721,2366 3728,2375 3740,2379 3756,2379 3777,2379 3793,2373 3804,2360 3815,2347 3821,2329 3821,2304 L 3821,2185 3858,2185 3858,2406 3823,2406 3823,2373 C 3815,2386 3805,2396 3793,2402 3780,2409 3766,2412 3749,2412 3734,2412 3720,2409 3709,2404 3698,2399 3689,2391 3683,2382 3679,2376 3677,2370 3675,2363 3674,2356 3673,2344 3673,2329 L 3673,2318 3673,2185 3711,2185 Z"/>
       </g>
      </g>
      <g class="com.sun.star.drawing.ClosedBezierShape">
       <g id="id87">
        <path fill="rgb(0,0,0)" stroke="none" d="M 4185,2406 L 4185,2270 C 4185,2248 4182,2232 4176,2224 4170,2216 4159,2212 4144,2212 4127,2212 4113,2218 4103,2229 4093,2240 4088,2255 4088,2275 L 4088,2406 4050,2406 4050,2270 C 4050,2248 4047,2232 4041,2224 4035,2216 4024,2212 4010,2212 3992,2212 3978,2218 3968,2229 3958,2240 3953,2256 3953,2275 L 3953,2406 3916,2406 3916,2185 3951,2185 3951,2216 C 3960,2204 3969,2194 3981,2188 3992,2182 4005,2179 4020,2179 4034,2179 4046,2182 4056,2187 4065,2193 4074,2202 4081,2214 4090,2202 4101,2193 4112,2187 4124,2182 4137,2179 4152,2179 4166,2179 4178,2182 4189,2187 4199,2192 4208,2199 4213,2209 4216,2215 4219,2222 4220,2230 4221,2237 4222,2250 4222,2267 L 4222,2273 4222,2406 4185,2406 Z"/>
       </g>
      </g>
      <g class="com.sun.star.drawing.ClosedBezierShape">
       <g id="id88">
        <path fill="rgb(0,0,0)" stroke="none" d="M 4316,2294 C 4316,2322 4322,2343 4333,2358 4344,2373 4360,2380 4381,2380 4402,2380 4418,2373 4429,2358 4441,2344 4447,2324 4447,2299 4447,2271 4441,2249 4430,2234 4419,2219 4403,2211 4382,2211 4360,2211 4343,2218 4332,2232 4321,2246 4316,2266 4316,2294 Z M 4281,2406 L 4281,2102 4317,2102 4317,2216 C 4326,2203 4336,2194 4348,2187 4360,2181 4374,2178 4389,2178 4418,2178 4442,2189 4459,2210 4477,2232 4486,2260 4486,2296 4486,2332 4477,2360 4460,2381 4442,2402 4419,2413 4389,2413 4374,2413 4360,2410 4348,2405 4337,2399 4326,2390 4317,2378 L 4317,2406 4281,2406 Z"/>
       </g>
      </g>
      <g class="com.sun.star.drawing.ClosedBezierShape">
       <g id="id89">
        <path fill="rgb(0,0,0)" stroke="none" d="M 4559,2276 L 4680,2276 C 4680,2255 4675,2239 4664,2228 4654,2217 4639,2211 4621,2211 4602,2211 4588,2217 4577,2228 4567,2239 4561,2255 4559,2276 Z M 4679,2335 L 4716,2335 C 4712,2359 4701,2378 4684,2392 4667,2406 4645,2413 4619,2413 4589,2413 4564,2403 4547,2382 4529,2362 4520,2333 4520,2298 4520,2260 4529,2231 4546,2210 4564,2189 4588,2178 4619,2178 4651,2178 4676,2188 4693,2207 4710,2227 4719,2255 4719,2290 4719,2295 4719,2298 4719,2301 4719,2303 4719,2305 4718,2307 L 4559,2307 C 4560,2330 4565,2348 4576,2360 4588,2373 4603,2379 4623,2379 4638,2379 4650,2375 4660,2368 4670,2360 4676,2349 4679,2335 Z"/>
       </g>
      </g>
      <g class="com.sun.star.drawing.ClosedBezierShape">
       <g id="id90">
        <path fill="rgb(0,0,0)" stroke="none" d="M 4762,2406 L 4762,2185 4798,2185 4798,2224 C 4804,2209 4812,2198 4822,2191 4832,2184 4844,2180 4859,2180 4862,2180 4864,2180 4865,2180 4867,2180 4868,2180 4869,2181 L 4869,2219 C 4868,2219 4867,2219 4866,2219 4864,2219 4863,2219 4860,2219 4840,2219 4825,2224 4815,2235 4804,2246 4799,2262 4799,2283 L 4799,2406 4762,2406 Z"/>
       </g>
      </g>
      <g class="com.sun.star.drawing.ClosedBezierShape">
       <g id="id91">
        <path fill="rgb(0,0,0)" stroke="none" d="M 4916,2231 C 4916,2216 4916,2200 4916,2185 4930,2185 4945,2185 4959,2185 4959,2200 4959,2216 4959,2231 4945,2231 4930,2231 4916,2231 Z M 4916,2406 C 4916,2391 4916,2375 4916,2360 4930,2360 4945,2360 4959,2360 4959,2375 4959,2391 4959,2406 4945,2406 4930,2406 4916,2406 Z"/>
       </g>
      </g>
     </g>
     <g class="Group">
      <g class="com.sun.star.drawing.ClosedBezierShape">
       <g id="id92">
        <path fill="rgb(0,0,0)" stroke="none" d="M 5259,2267 C 5259,2308 5264,2338 5274,2356 5283,2375 5299,2384 5320,2384 5341,2384 5357,2375 5366,2356 5376,2338 5381,2308 5381,2267 5381,2226 5376,2196 5366,2178 5357,2159 5341,2150 5320,2150 5299,2150 5283,2159 5274,2178 5264,2197 5259,2227 5259,2267 Z M 5219,2267 C 5219,2218 5228,2180 5245,2154 5262,2128 5287,2115 5320,2115 5353,2115 5379,2128 5396,2154 5413,2179 5422,2217 5422,2267 5422,2317 5413,2355 5396,2380 5379,2406 5354,2419 5320,2419 5287,2419 5262,2406 5245,2380 5228,2355 5219,2317 5219,2267 Z"/>
       </g>
      </g>
      <g class="com.sun.star.drawing.ClosedBezierShape">
       <g id="id93">
        <path fill="rgb(0,0,0)" stroke="none" d="M 5438,2411 C 5464,2373 5490,2335 5515,2297 5491,2262 5466,2226 5442,2190 5457,2190 5471,2190 5486,2190 5504,2216 5522,2243 5540,2269 5558,2243 5575,2216 5593,2190 5607,2190 5622,2190 5636,2190 5611,2226 5586,2261 5562,2297 5588,2335 5615,2373 5641,2411 5626,2411 5611,2411 5596,2411 5577,2383 5557,2354 5538,2326 5519,2354 5500,2383 5482,2411 5467,2411 5453,2411 5438,2411 Z"/>
       </g>
      </g>
      <g class="com.sun.star.drawing.ClosedBezierShape">
       <g id="id94">
        <path fill="rgb(0,0,0)" stroke="none" d="M 5786,2142 L 5715,2142 5715,2374 5786,2374 C 5817,2374 5840,2364 5856,2344 5871,2325 5879,2295 5879,2257 5879,2220 5871,2191 5855,2172 5839,2152 5816,2142 5786,2142 Z M 5674,2411 L 5674,2107 5790,2107 C 5832,2107 5865,2120 5887,2145 5910,2170 5921,2207 5921,2255 5921,2304 5909,2342 5886,2370 5863,2397 5830,2411 5788,2411 L 5674,2411 Z"/>
       </g>
      </g>
      <g class="com.sun.star.drawing.ClosedBezierShape">
       <g id="id95">
        <path fill="rgb(0,0,0)" stroke="none" d="M 5975,2411 C 5975,2310 5975,2208 5975,2107 6047,2107 6119,2107 6191,2107 6191,2120 6191,2132 6191,2145 6133,2145 6074,2145 6016,2145 6016,2175 6016,2205 6016,2235 6070,2235 6124,2235 6178,2235 6178,2247 6178,2259 6178,2271 6124,2271 6070,2271 6016,2271 6016,2305 6016,2339 6016,2373 6076,2373 6135,2373 6195,2373 6195,2386 6195,2398 6195,2411 6122,2411 6048,2411 5975,2411 Z"/>
       </g>
      </g>
      <g class="com.sun.star.drawing.ClosedBezierShape">
       <g id="id96">
        <path fill="rgb(0,0,0)" stroke="none" d="M 6300,2285 C 6331,2285 6363,2285 6395,2285 6379,2240 6363,2195 6348,2151 6332,2195 6316,2240 6300,2285 Z M 6212,2411 C 6250,2310 6287,2208 6325,2107 6340,2107 6355,2107 6371,2107 6408,2208 6446,2310 6484,2411 6469,2411 6454,2411 6439,2411 6428,2381 6418,2351 6407,2321 6367,2321 6327,2321 6287,2321 6276,2351 6265,2381 6255,2411 6240,2411 6226,2411 6212,2411 Z"/>
       </g>
      </g>
      <g class="com.sun.star.drawing.ClosedBezierShape">
       <g id="id97">
        <path fill="rgb(0,0,0)" stroke="none" d="M 6628,2142 L 6557,2142 6557,2374 6628,2374 C 6659,2374 6682,2364 6698,2344 6713,2325 6721,2295 6721,2257 6721,2220 6713,2191 6697,2172 6681,2152 6658,2142 6628,2142 Z M 6516,2411 L 6516,2107 6632,2107 C 6674,2107 6707,2120 6729,2145 6752,2170 6763,2207 6763,2255 6763,2304 6751,2342 6728,2370 6705,2397 6672,2411 6630,2411 L 6516,2411 Z"/>
       </g>
      </g>
      <g class="com.sun.star.drawing.ClosedBezierShape">
       <g id="id98">
        <path fill="rgb(0,0,0)" stroke="none" d="M 6817,2411 L 6817,2107 6940,2107 C 6972,2107 6995,2113 7011,2126 7027,2138 7035,2157 7035,2181 7035,2197 7031,2211 7024,2222 7017,2233 7006,2241 6992,2247 7010,2251 7024,2259 7034,2272 7044,2284 7049,2301 7049,2320 7049,2348 7040,2370 7021,2386 7003,2403 6978,2411 6946,2411 L 6817,2411 Z M 6858,2235 L 6931,2235 C 6953,2235 6969,2231 6979,2223 6989,2216 6994,2204 6994,2187 6994,2172 6989,2161 6979,2153 6970,2146 6955,2142 6935,2142 L 6858,2142 6858,2235 Z M 6858,2374 L 6943,2374 C 6964,2374 6980,2369 6991,2360 7002,2351 7007,2337 7007,2320 7007,2302 7001,2290 6990,2281 6979,2273 6962,2269 6938,2269 L 6858,2269 6858,2374 Z"/>
       </g>
      </g>
      <g class="com.sun.star.drawing.ClosedBezierShape">
       <g id="id99">
        <path fill="rgb(0,0,0)" stroke="none" d="M 7096,2411 C 7096,2310 7096,2208 7096,2107 7168,2107 7240,2107 7312,2107 7312,2120 7312,2132 7312,2145 7254,2145 7195,2145 7137,2145 7137,2175 7137,2205 7137,2235 7191,2235 7245,2235 7299,2235 7299,2247 7299,2259 7299,2271 7245,2271 7191,2271 7137,2271 7137,2305 7137,2339 7137,2373 7197,2373 7256,2373 7316,2373 7316,2386 7316,2398 7316,2411 7243,2411 7169,2411 7096,2411 Z"/>
       </g>
      </g>
      <g class="com.sun.star.drawing.ClosedBezierShape">
       <g id="id100">
        <path fill="rgb(0,0,0)" stroke="none" d="M 7367,2411 C 7367,2310 7367,2208 7367,2107 7439,2107 7511,2107 7584,2107 7584,2120 7584,2132 7584,2145 7525,2145 7467,2145 7408,2145 7408,2175 7408,2205 7408,2235 7462,2235 7516,2235 7570,2235 7570,2247 7570,2259 7570,2271 7516,2271 7462,2271 7408,2271 7408,2305 7408,2339 7408,2373 7468,2373 7527,2373 7587,2373 7587,2386 7587,2398 7587,2411 7514,2411 7440,2411 7367,2411 Z"/>
       </g>
      </g>
      <g class="com.sun.star.drawing.ClosedBezierShape">
       <g id="id101">
        <path fill="rgb(0,0,0)" stroke="none" d="M 7638,2411 C 7638,2310 7638,2208 7638,2107 7706,2107 7774,2107 7842,2107 7842,2120 7842,2132 7842,2145 7788,2145 7733,2145 7679,2145 7679,2176 7679,2206 7679,2237 7726,2237 7774,2237 7821,2237 7821,2249 7821,2262 7821,2274 7774,2274 7726,2274 7679,2274 7679,2320 7679,2365 7679,2411 7665,2411 7652,2411 7638,2411 Z"/>
       </g>
      </g>
     </g>
    </g>
   </g>
  </g>
 </g>
</svg>
