<?xml version="1.0" encoding="UTF-8"?>
<svg version="1.2" baseProfile="tiny" viewBox="0 0 10400 9000" preserveAspectRatio="xMidYMid" fill-rule="evenodd" stroke-width="28.222" stroke-linejoin="round" xmlns="http://www.w3.org/2000/svg" xmlns:ooo="http://xml.openoffice.org/svg/export" xmlns:xlink="http://www.w3.org/1999/xlink" xml:space="preserve">
 <defs class="ClipPathGroup">
  <clipPath id="presentation_clip_path" clipPathUnits="userSpaceOnUse">
   <rect x="0" y="0" width="10400" height="9000"/>
  </clipPath>
 </defs>
 <defs class="TextShapeIndex">
  <g ooo:slide="id1" ooo:id-list="id3 id4 id5 id6 id7 id8 id9 id10 id11 id12 id13 id14 id15 id16 id17 id18 id19 id20 id21 id22 id23 id24 id25 id26 id27 id28 id29 id30 id31 id32 id33 id34 id35 id36 id37 id38 id39 id40 id41 id42 id43 id44 id45 id46 id47 id48 id49 id50 id51 id52 id53 id54 id55 id56 id57 id58 id59 id60 id61 id62 id63 id64 id65 id66 id67 id68 id69 id70 id71 id72 id73 id74 id75 id76 id77 id78 id79 id80 id81 id82 id83 id84 id85 id86 id87 id88 id89 id90 id91 id92 id93 id94 id95 id96 id97 id98 id99 id100 id101 id102 id103 id104 id105 id106 id107 id108 id109 id110 id111 id112 id113 id114 id115 id116 id117 id118 id119 id120 id121 id122 id123 id124 id125 id126 id127 id128 id129 id130 id131 id132 id133 id134 id135 id136 id137 id138 id139 id140 id141 id142 id143 id144 id145 id146"/>
 </defs>
 <defs class="EmbeddedBulletChars">
  <g id="bullet-char-template(57356)" transform="scale(0.00048828125,-0.00048828125)">
   <path d="M 580,1141 L 1163,571 580,0 -4,571 580,1141 Z"/>
  </g>
  <g id="bullet-char-template(57354)" transform="scale(0.00048828125,-0.00048828125)">
   <path d="M 8,1128 L 1137,1128 1137,0 8,0 8,1128 Z"/>
  </g>
  <g id="bullet-char-template(10146)" transform="scale(0.00048828125,-0.00048828125)">
   <path d="M 174,0 L 602,739 174,1481 1456,739 174,0 Z M 1358,739 L 309,1346 659,739 1358,739 Z"/>
  </g>
  <g id="bullet-char-template(10132)" transform="scale(0.00048828125,-0.00048828125)">
   <path d="M 2015,739 L 1276,0 717,0 1260,543 174,543 174,936 1260,936 717,1481 1274,1481 2015,739 Z"/>
  </g>
  <g id="bullet-char-template(10007)" transform="scale(0.00048828125,-0.00048828125)">
   <path d="M 0,-2 C -7,14 -16,27 -25,37 L 356,567 C 262,823 215,952 215,954 215,979 228,992 255,992 264,992 276,990 289,987 310,991 331,999 354,1012 L 381,999 492,748 772,1049 836,1024 860,1049 C 881,1039 901,1025 922,1006 886,937 835,863 770,784 769,783 710,716 594,584 L 774,223 C 774,196 753,168 711,139 L 727,119 C 717,90 699,76 672,76 641,76 570,178 457,381 L 164,-76 C 142,-110 111,-127 72,-127 30,-127 9,-110 8,-76 1,-67 -2,-52 -2,-32 -2,-23 -1,-13 0,-2 Z"/>
  </g>
  <g id="bullet-char-template(10004)" transform="scale(0.00048828125,-0.00048828125)">
   <path d="M 285,-33 C 182,-33 111,30 74,156 52,228 41,333 41,471 41,549 55,616 82,672 116,743 169,778 240,778 293,778 328,747 346,684 L 369,508 C 377,444 397,411 428,410 L 1163,1116 C 1174,1127 1196,1133 1229,1133 1271,1133 1292,1118 1292,1087 L 1292,965 C 1292,929 1282,901 1262,881 L 442,47 C 390,-6 338,-33 285,-33 Z"/>
  </g>
  <g id="bullet-char-template(9679)" transform="scale(0.00048828125,-0.00048828125)">
   <path d="M 813,0 C 632,0 489,54 383,161 276,268 223,411 223,592 223,773 276,916 383,1023 489,1130 632,1184 813,1184 992,1184 1136,1130 1245,1023 1353,916 1407,772 1407,592 1407,412 1353,268 1245,161 1136,54 992,0 813,0 Z"/>
  </g>
  <g id="bullet-char-template(8226)" transform="scale(0.00048828125,-0.00048828125)">
   <path d="M 346,457 C 273,457 209,483 155,535 101,586 74,649 74,723 74,796 101,859 155,911 209,963 273,989 346,989 419,989 480,963 531,910 582,859 608,796 608,723 608,648 583,586 532,535 482,483 420,457 346,457 Z"/>
  </g>
  <g id="bullet-char-template(8211)" transform="scale(0.00048828125,-0.00048828125)">
   <path d="M -4,459 L 1135,459 1135,606 -4,606 -4,459 Z"/>
  </g>
 </defs>
 <defs class="TextEmbeddedBitmaps"/>
 <g>
  <g id="id2" class="Master_Slide">
   <g id="bg-id2" class="Background">
    <path fill="rgb(255,255,255)" stroke="none" d="M 5200,8999 L 0,8999 0,0 10399,0 10399,8999 5200,8999 Z"/>
   </g>
   <g id="bo-id2" class="BackgroundObjects"/>
  </g>
 </g>
 <g class="SlideGroup">
  <g>
   <g id="id1" class="Slide" clip-path="url(#presentation_clip_path)">
    <g class="Page">
     <g class="com.sun.star.drawing.LineShape">
      <g id="id3">
       <path fill="none" stroke="rgb(153,153,153)" stroke-width="20" stroke-linejoin="round" d="M 9100,1700 L 9100,4800"/>
      </g>
     </g>
     <g class="com.sun.star.drawing.LineShape">
      <g id="id4">
       <path fill="none" stroke="rgb(153,153,153)" stroke-width="20" stroke-linejoin="round" d="M 8500,2900 L 8500,3600"/>
      </g>
     </g>
     <g class="com.sun.star.drawing.LineShape">
      <g id="id5">
       <path fill="none" stroke="rgb(153,153,153)" stroke-width="20" stroke-linejoin="round" d="M 7900,2500 L 7900,4000"/>
      </g>
     </g>
     <g class="com.sun.star.drawing.LineShape">
      <g id="id6">
       <path fill="none" stroke="rgb(153,153,153)" stroke-width="20" stroke-linejoin="round" d="M 6700,2100 L 6700,4400"/>
      </g>
     </g>
     <g class="com.sun.star.drawing.LineShape">
      <g id="id7">
       <path fill="none" stroke="rgb(153,153,153)" stroke-width="20" stroke-linejoin="round" d="M 4300,1700 L 4300,4800"/>
      </g>
     </g>
     <g class="Group">
      <g class="com.sun.star.drawing.ClosedBezierShape">
       <g id="id8">
        <path fill="rgb(0,0,0)" stroke="none" d="M 776,816 C 776,797 771,782 760,770 750,759 736,753 718,753 699,753 684,759 673,770 662,781 657,797 657,817 657,836 662,852 673,864 684,875 699,881 717,881 735,881 749,875 760,863 771,851 776,836 776,816 Z M 815,691 L 776,691 C 775,676 769,664 760,656 751,648 739,644 723,644 701,644 685,653 673,670 662,688 655,715 653,751 661,740 672,732 683,726 695,721 708,718 723,718 751,718 774,727 791,745 808,763 817,786 817,815 817,845 808,869 789,887 771,905 747,914 717,914 683,914 657,902 638,878 620,854 611,820 611,775 611,723 621,682 640,653 660,624 687,610 722,610 750,610 772,617 788,631 804,645 813,665 815,691 Z"/>
       </g>
      </g>
      <g class="com.sun.star.drawing.ClosedBezierShape">
       <g id="id9">
        <path fill="rgb(0,0,0)" stroke="none" d="M 877,800 C 908,800 939,800 970,800 970,756 970,712 970,668 939,712 908,756 877,800 Z M 970,906 C 970,882 970,858 970,834 927,834 884,834 841,834 841,822 841,809 841,797 884,738 927,678 970,619 982,619 995,619 1008,619 1008,679 1008,740 1008,800 1022,800 1036,800 1050,800 1050,811 1050,823 1050,834 1036,834 1022,834 1008,834 1008,858 1008,882 1008,906 995,906 983,906 970,906 Z"/>
       </g>
      </g>
      <g class="com.sun.star.drawing.ClosedBezierShape">
       <g id="id10">
        <path fill="rgb(0,0,0)" stroke="none" d="M 1078,811 C 1078,800 1078,789 1078,778 1112,778 1146,778 1180,778 1180,789 1180,800 1180,811 1146,811 1112,811 1078,811 Z"/>
       </g>
      </g>
      <g class="com.sun.star.drawing.ClosedBezierShape">
       <g id="id11">
        <path fill="rgb(0,0,0)" stroke="none" d="M 1258,794 C 1258,822 1264,843 1275,858 1286,873 1302,880 1323,880 1344,880 1360,873 1371,858 1383,844 1389,824 1389,799 1389,771 1383,749 1372,734 1361,719 1345,711 1324,711 1302,711 1285,718 1274,732 1263,746 1258,766 1258,794 Z M 1223,906 L 1223,602 1259,602 1259,716 C 1268,703 1278,694 1290,687 1302,681 1316,678 1331,678 1360,678 1384,689 1401,710 1419,732 1428,760 1428,796 1428,832 1419,860 1402,881 1384,902 1361,913 1331,913 1316,913 1302,910 1290,905 1279,899 1268,890 1259,878 L 1259,906 1223,906 Z"/>
       </g>
      </g>
      <g class="com.sun.star.drawing.ClosedBezierShape">
       <g id="id12">
        <path fill="rgb(0,0,0)" stroke="none" d="M 1472,644 C 1472,630 1472,616 1472,602 1484,602 1497,602 1509,602 1509,616 1509,630 1509,644 1497,644 1484,644 1472,644 Z M 1472,906 C 1472,832 1472,759 1472,685 1484,685 1497,685 1509,685 1509,759 1509,832 1509,906 1497,906 1484,906 1472,906 Z"/>
       </g>
      </g>
      <g class="com.sun.star.drawing.ClosedBezierShape">
       <g id="id13">
        <path fill="rgb(0,0,0)" stroke="none" d="M 1609,850 C 1609,860 1610,867 1613,870 1616,873 1621,875 1629,875 1631,875 1634,875 1637,875 1640,875 1644,874 1649,874 L 1649,906 C 1643,907 1637,908 1632,908 1627,909 1623,909 1619,909 1602,909 1590,906 1583,899 1576,892 1572,880 1572,863 L 1572,715 1539,715 1539,685 1572,685 1572,623 1609,623 1609,685 1649,685 1649,715 1609,715 1609,850 Z"/>
       </g>
      </g>
      <g class="com.sun.star.drawing.ClosedBezierShape">
       <g id="id14">
        <path fill="rgb(0,0,0)" stroke="none" d="M 1798,906 L 1798,685 1834,685 1834,724 C 1840,709 1848,698 1858,691 1868,684 1880,680 1895,680 1898,680 1900,680 1901,680 1903,680 1904,680 1905,681 L 1905,719 C 1904,719 1903,719 1902,719 1900,719 1899,719 1896,719 1876,719 1861,724 1851,735 1840,746 1835,762 1835,783 L 1835,906 1798,906 Z"/>
       </g>
      </g>
      <g class="com.sun.star.drawing.ClosedBezierShape">
       <g id="id15">
        <path fill="rgb(0,0,0)" stroke="none" d="M 1966,776 L 2087,776 C 2087,755 2082,739 2071,728 2061,717 2046,711 2028,711 2009,711 1995,717 1984,728 1974,739 1968,755 1966,776 Z M 2086,835 L 2123,835 C 2119,859 2108,878 2091,892 2074,906 2052,913 2026,913 1996,913 1971,903 1954,882 1936,862 1927,833 1927,798 1927,760 1936,731 1953,710 1971,689 1995,678 2026,678 2058,678 2083,688 2100,707 2117,727 2126,755 2126,790 2126,795 2126,798 2126,801 2126,803 2126,805 2125,807 L 1966,807 C 1967,830 1972,848 1983,860 1995,873 2010,879 2030,879 2045,879 2057,875 2067,868 2077,860 2083,849 2086,835 Z"/>
       </g>
      </g>
      <g class="com.sun.star.drawing.ClosedBezierShape">
       <g id="id16">
        <path fill="rgb(0,0,0)" stroke="none" d="M 2264,711 C 2243,711 2227,718 2216,733 2205,748 2199,768 2199,796 2199,822 2205,843 2216,858 2228,873 2244,880 2265,880 2287,880 2304,873 2315,860 2326,846 2331,825 2331,797 2331,769 2325,747 2314,733 2303,718 2286,711 2264,711 Z M 2330,879 C 2321,890 2311,899 2299,905 2288,910 2274,913 2259,913 2230,913 2205,902 2187,881 2169,859 2160,830 2160,795 2160,760 2169,731 2187,710 2206,689 2230,678 2260,678 2274,678 2287,681 2298,686 2310,692 2320,701 2329,713 L 2329,685 2366,685 2366,901 C 2366,935 2358,960 2342,975 2325,990 2299,998 2263,998 2233,998 2210,992 2194,981 2177,970 2169,954 2169,934 L 2169,932 2205,932 2205,933 C 2205,944 2210,953 2220,958 2229,964 2244,967 2264,967 2287,967 2304,963 2314,954 2325,945 2330,930 2330,909 L 2330,879 Z"/>
       </g>
      </g>
      <g class="com.sun.star.drawing.ClosedBezierShape">
       <g id="id17">
        <path fill="rgb(0,0,0)" stroke="none" d="M 2424,644 C 2424,630 2424,616 2424,602 2436,602 2449,602 2461,602 2461,616 2461,630 2461,644 2449,644 2436,644 2424,644 Z M 2424,906 C 2424,832 2424,759 2424,685 2436,685 2449,685 2461,685 2461,759 2461,832 2461,906 2449,906 2436,906 2424,906 Z"/>
       </g>
      </g>
      <g class="com.sun.star.drawing.ClosedBezierShape">
       <g id="id18">
        <path fill="rgb(0,0,0)" stroke="none" d="M 2502,834 L 2538,834 C 2539,849 2545,861 2554,868 2564,876 2577,880 2594,880 2610,880 2623,877 2632,871 2641,864 2646,856 2646,845 2646,837 2644,830 2639,826 2634,822 2625,818 2612,815 L 2570,804 C 2547,798 2531,791 2522,782 2513,772 2508,759 2508,742 2508,722 2515,707 2530,695 2545,684 2565,678 2591,678 2617,678 2638,684 2654,697 2669,709 2677,725 2677,746 L 2677,747 2641,747 C 2640,735 2635,726 2627,720 2618,713 2606,710 2591,710 2576,710 2564,713 2557,718 2549,723 2545,731 2545,741 2545,748 2547,754 2552,758 2557,762 2566,765 2580,768 L 2616,777 C 2641,783 2659,791 2669,800 2678,809 2683,823 2683,840 2683,863 2675,881 2659,894 2643,907 2620,913 2591,913 2562,913 2541,906 2525,893 2510,879 2502,860 2502,834 Z"/>
       </g>
      </g>
      <g class="com.sun.star.drawing.ClosedBezierShape">
       <g id="id19">
        <path fill="rgb(0,0,0)" stroke="none" d="M 2773,850 C 2773,860 2774,867 2777,870 2780,873 2785,875 2793,875 2795,875 2798,875 2801,875 2804,875 2808,874 2813,874 L 2813,906 C 2807,907 2801,908 2796,908 2791,909 2787,909 2783,909 2766,909 2754,906 2747,899 2740,892 2736,880 2736,863 L 2736,715 2703,715 2703,685 2736,685 2736,623 2773,623 2773,685 2813,685 2813,715 2773,715 2773,850 Z"/>
       </g>
      </g>
      <g class="com.sun.star.drawing.ClosedBezierShape">
       <g id="id20">
        <path fill="rgb(0,0,0)" stroke="none" d="M 2877,776 L 2998,776 C 2998,755 2993,739 2982,728 2972,717 2957,711 2939,711 2920,711 2906,717 2895,728 2885,739 2879,755 2877,776 Z M 2997,835 L 3034,835 C 3030,859 3019,878 3002,892 2985,906 2963,913 2937,913 2907,913 2882,903 2865,882 2847,862 2838,833 2838,798 2838,760 2847,731 2864,710 2882,689 2906,678 2937,678 2969,678 2994,688 3011,707 3028,727 3037,755 3037,790 3037,795 3037,798 3037,801 3037,803 3037,805 3036,807 L 2877,807 C 2878,830 2883,848 2894,860 2906,873 2921,879 2941,879 2956,879 2968,875 2978,868 2988,860 2994,849 2997,835 Z"/>
       </g>
      </g>
      <g class="com.sun.star.drawing.ClosedBezierShape">
       <g id="id21">
        <path fill="rgb(0,0,0)" stroke="none" d="M 3080,906 L 3080,685 3116,685 3116,724 C 3122,709 3130,698 3140,691 3150,684 3162,680 3177,680 3180,680 3182,680 3183,680 3185,680 3186,680 3187,681 L 3187,719 C 3186,719 3185,719 3184,719 3182,719 3181,719 3178,719 3158,719 3143,724 3133,735 3122,746 3117,762 3117,783 L 3117,906 3080,906 Z"/>
       </g>
      </g>
      <g class="com.sun.star.drawing.ClosedBezierShape">
       <g id="id22">
        <path fill="rgb(0,0,0)" stroke="none" d="M 3205,834 L 3241,834 C 3242,849 3248,861 3257,868 3267,876 3280,880 3297,880 3313,880 3326,877 3335,871 3344,864 3349,856 3349,845 3349,837 3347,830 3342,826 3337,822 3328,818 3315,815 L 3273,804 C 3250,798 3234,791 3225,782 3216,772 3211,759 3211,742 3211,722 3218,707 3233,695 3248,684 3268,678 3294,678 3320,678 3341,684 3357,697 3372,709 3380,725 3380,746 L 3380,747 3344,747 C 3343,735 3338,726 3330,720 3321,713 3309,710 3294,710 3279,710 3267,713 3260,718 3252,723 3248,731 3248,741 3248,748 3250,754 3255,758 3260,762 3269,765 3283,768 L 3319,777 C 3344,783 3362,791 3372,800 3381,809 3386,823 3386,840 3386,863 3378,881 3362,894 3346,907 3323,913 3294,913 3265,913 3244,906 3228,893 3213,879 3205,860 3205,834 Z"/>
       </g>
      </g>
     </g>
     <g class="Group">
      <g class="com.sun.star.drawing.ClosedBezierShape">
       <g id="id23">
        <path fill="rgb(255,255,255)" stroke="none" d="M 800,1900 C 745,1900 700,1855 700,1800 700,1733 700,1667 700,1600 700,1545 745,1500 800,1500 1600,1500 2400,1500 3200,1500 3255,1500 3300,1545 3300,1600 3300,1667 3300,1733 3300,1800 3300,1855 3255,1900 3200,1900 2400,1900 1600,1900 800,1900 Z"/>
        <path fill="none" stroke="rgb(0,0,0)" stroke-width="20" stroke-linejoin="round" d="M 800,1900 C 745,1900 700,1855 700,1800 700,1733 700,1667 700,1600 700,1545 745,1500 800,1500 1600,1500 2400,1500 3200,1500 3255,1500 3300,1545 3300,1600 3300,1667 3300,1733 3300,1800 3300,1855 3255,1900 3200,1900 2400,1900 1600,1900 800,1900 Z"/>
       </g>
      </g>
      <g class="com.sun.star.drawing.ClosedBezierShape">
       <g id="id24">
        <path fill="rgb(0,0,0)" stroke="none" d="M 1828,1804 L 1828,1657 1852,1657 1852,1682 C 1856,1672 1861,1665 1868,1660 1875,1655 1883,1653 1893,1653 1894,1653 1896,1653 1897,1653 1897,1653 1898,1653 1899,1653 L 1899,1679 C 1898,1679 1898,1679 1897,1679 1896,1679 1895,1679 1893,1679 1880,1679 1870,1682 1863,1689 1856,1697 1853,1707 1853,1721 L 1853,1804 1828,1804 Z"/>
       </g>
      </g>
      <g class="com.sun.star.drawing.ClosedBezierShape">
       <g id="id25">
        <path fill="rgb(0,0,0)" stroke="none" d="M 2012,1784 C 2005,1792 1996,1798 1988,1802 1979,1806 1970,1808 1960,1809 1945,1808 1933,1805 1925,1797 1916,1789 1912,1778 1912,1764 1912,1751 1916,1740 1924,1732 1933,1725 1945,1720 1962,1718 1967,1717 1973,1716 1980,1716 1993,1714 2000,1713 2003,1712 2006,1711 2008,1709 2009,1708 2010,1706 2010,1702 2010,1696 2010,1688 2007,1683 2002,1679 1996,1675 1988,1674 1977,1674 1965,1674 1957,1676 1951,1680 1945,1685 1942,1692 1942,1701 L 1919,1701 1919,1699 C 1919,1685 1924,1673 1935,1664 1945,1656 1959,1652 1978,1652 1997,1652 2012,1655 2021,1663 2030,1670 2035,1681 2035,1697 L 2035,1771 C 2035,1777 2036,1781 2037,1783 2038,1785 2041,1786 2045,1786 2045,1786 2046,1785 2047,1785 2048,1785 2050,1785 2051,1785 L 2051,1804 C 2048,1805 2045,1806 2043,1806 2041,1806 2039,1806 2037,1807 2029,1806 2023,1805 2018,1801 2014,1797 2012,1792 2012,1784 L 2012,1784 Z M 2010,1728 C 2003,1732 1992,1735 1976,1737 1970,1737 1966,1738 1963,1739 1954,1740 1948,1743 1944,1747 1940,1750 1938,1756 1938,1763 1938,1771 1940,1777 1945,1781 1949,1785 1956,1787 1965,1787 1978,1787 1989,1783 1997,1776 2006,1770 2010,1761 2010,1750 L 2010,1728 Z"/>
       </g>
      </g>
      <g class="com.sun.star.drawing.ClosedBezierShape">
       <g id="id26">
        <path fill="rgb(0,0,0)" stroke="none" d="M 2055,1804 C 2072,1778 2089,1753 2106,1728 2090,1704 2073,1680 2057,1657 2067,1657 2076,1657 2086,1657 2098,1674 2110,1692 2123,1709 2134,1692 2146,1674 2158,1657 2168,1657 2177,1657 2187,1657 2170,1680 2154,1704 2137,1728 2155,1753 2172,1778 2190,1804 2180,1804 2170,1804 2160,1804 2147,1785 2134,1766 2121,1747 2109,1766 2096,1785 2084,1804 2074,1804 2065,1804 2055,1804 Z"/>
       </g>
      </g>
     </g>
     <g class="Group">
      <g class="com.sun.star.drawing.ClosedBezierShape">
       <g id="id27">
        <path fill="rgb(255,255,255)" stroke="none" d="M 800,2300 C 745,2300 700,2255 700,2200 700,2133 700,2067 700,2000 700,1945 745,1900 800,1900 1600,1900 2400,1900 3200,1900 3255,1900 3300,1945 3300,2000 3300,2067 3300,2133 3300,2200 3300,2255 3255,2300 3200,2300 2400,2300 1600,2300 800,2300 Z"/>
        <path fill="none" stroke="rgb(0,0,0)" stroke-width="20" stroke-linejoin="round" d="M 800,2300 C 745,2300 700,2255 700,2200 700,2133 700,2067 700,2000 700,1945 745,1900 800,1900 1600,1900 2400,1900 3200,1900 3255,1900 3300,1945 3300,2000 3300,2067 3300,2133 3300,2200 3300,2255 3255,2300 3200,2300 2400,2300 1600,2300 800,2300 Z"/>
       </g>
      </g>
      <g class="com.sun.star.drawing.ClosedBezierShape">
       <g id="id28">
        <path fill="rgb(0,0,0)" stroke="none" d="M 1830,2204 L 1830,2057 1854,2057 1854,2082 C 1858,2072 1863,2065 1870,2060 1877,2055 1885,2053 1895,2053 1896,2053 1898,2053 1899,2053 1899,2053 1900,2053 1901,2053 L 1901,2079 C 1900,2079 1900,2079 1899,2079 1898,2079 1897,2079 1895,2079 1882,2079 1872,2082 1865,2089 1858,2097 1855,2107 1855,2121 L 1855,2204 1830,2204 Z"/>
       </g>
      </g>
      <g class="com.sun.star.drawing.ClosedBezierShape">
       <g id="id29">
        <path fill="rgb(0,0,0)" stroke="none" d="M 2020,2106 C 2019,2095 2016,2087 2009,2082 2003,2076 1994,2074 1983,2074 1969,2074 1959,2078 1952,2088 1945,2098 1941,2111 1941,2129 1941,2147 1944,2161 1951,2171 1958,2181 1968,2186 1981,2186 1992,2186 2001,2183 2008,2177 2015,2171 2019,2162 2021,2151 L 2045,2151 C 2044,2169 2037,2183 2026,2193 2014,2203 1999,2208 1980,2209 1960,2208 1944,2202 1932,2188 1921,2174 1915,2155 1915,2131 1915,2106 1921,2087 1933,2073 1945,2059 1962,2052 1983,2052 2001,2052 2016,2056 2027,2066 2038,2076 2044,2089 2045,2106 L 2020,2106 Z"/>
       </g>
      </g>
      <g class="com.sun.star.drawing.ClosedBezierShape">
       <g id="id30">
        <path fill="rgb(0,0,0)" stroke="none" d="M 2052,2203 C 2069,2178 2086,2153 2103,2128 2087,2104 2070,2080 2054,2056 2064,2056 2073,2056 2083,2056 2095,2074 2107,2092 2120,2109 2131,2092 2143,2074 2155,2056 2165,2056 2174,2056 2184,2056 2167,2080 2151,2104 2134,2128 2152,2153 2169,2178 2187,2203 2177,2203 2167,2203 2157,2203 2144,2185 2131,2166 2118,2147 2106,2166 2093,2185 2081,2203 2071,2203 2062,2203 2052,2203 Z"/>
       </g>
      </g>
     </g>
     <g class="Group">
      <g class="com.sun.star.drawing.ClosedBezierShape">
       <g id="id31">
        <path fill="rgb(255,255,255)" stroke="none" d="M 800,2700 C 745,2700 700,2655 700,2600 700,2533 700,2467 700,2400 700,2345 745,2300 800,2300 1600,2300 2400,2300 3200,2300 3255,2300 3300,2345 3300,2400 3300,2467 3300,2533 3300,2600 3300,2655 3255,2700 3200,2700 2400,2700 1600,2700 800,2700 Z"/>
        <path fill="none" stroke="rgb(0,0,0)" stroke-width="20" stroke-linejoin="round" d="M 800,2700 C 745,2700 700,2655 700,2600 700,2533 700,2467 700,2400 700,2345 745,2300 800,2300 1600,2300 2400,2300 3200,2300 3255,2300 3300,2345 3300,2400 3300,2467 3300,2533 3300,2600 3300,2655 3255,2700 3200,2700 2400,2700 1600,2700 800,2700 Z"/>
       </g>
      </g>
      <g class="com.sun.star.drawing.ClosedBezierShape">
       <g id="id32">
        <path fill="rgb(0,0,0)" stroke="none" d="M 1820,2604 L 1820,2457 1844,2457 1844,2482 C 1848,2472 1853,2465 1860,2460 1866,2455 1874,2453 1884,2453 1886,2453 1887,2453 1888,2453 1889,2453 1890,2453 1891,2453 L 1891,2479 C 1890,2479 1889,2479 1888,2479 1888,2479 1886,2479 1885,2479 1872,2479 1862,2482 1855,2489 1848,2497 1845,2507 1845,2521 L 1845,2604 1820,2604 Z"/>
       </g>
      </g>
      <g class="com.sun.star.drawing.ClosedBezierShape">
       <g id="id33">
        <path fill="rgb(0,0,0)" stroke="none" d="M 2018,2529 C 2018,2511 2014,2497 2007,2487 1999,2478 1988,2474 1974,2474 1960,2474 1949,2479 1942,2489 1934,2499 1931,2513 1931,2532 1931,2549 1934,2562 1942,2572 1950,2582 1961,2587 1974,2587 1988,2587 1999,2582 2006,2572 2014,2562 2018,2547 2018,2529 Z M 2041,2401 L 2041,2604 2017,2604 2017,2585 C 2010,2593 2003,2599 1995,2603 1987,2607 1979,2608 1969,2609 1949,2608 1934,2601 1922,2587 1910,2573 1905,2554 1905,2531 1905,2506 1910,2487 1922,2473 1934,2459 1949,2452 1969,2452 1979,2452 1988,2453 1996,2457 2004,2461 2011,2467 2017,2474 L 2017,2401 2041,2401 Z"/>
       </g>
      </g>
      <g class="com.sun.star.drawing.ClosedBezierShape">
       <g id="id34">
        <path fill="rgb(0,0,0)" stroke="none" d="M 2063,2604 C 2080,2578 2097,2553 2114,2528 2097,2504 2081,2480 2065,2457 2074,2457 2084,2457 2094,2457 2106,2474 2118,2492 2130,2509 2142,2492 2154,2474 2166,2457 2175,2457 2185,2457 2195,2457 2178,2480 2161,2504 2145,2528 2162,2553 2180,2578 2198,2604 2188,2604 2178,2604 2168,2604 2155,2585 2142,2566 2129,2547 2116,2566 2104,2585 2091,2604 2082,2604 2072,2604 2063,2604 Z"/>
       </g>
      </g>
     </g>
     <g class="Group">
      <g class="com.sun.star.drawing.ClosedBezierShape">
       <g id="id35">
        <path fill="rgb(255,255,255)" stroke="none" d="M 800,3100 C 745,3100 700,3055 700,3000 700,2933 700,2867 700,2800 700,2745 745,2700 800,2700 1600,2700 2400,2700 3200,2700 3255,2700 3300,2745 3300,2800 3300,2867 3300,2933 3300,3000 3300,3055 3255,3100 3200,3100 2400,3100 1600,3100 800,3100 Z"/>
        <path fill="none" stroke="rgb(0,0,0)" stroke-width="20" stroke-linejoin="round" d="M 800,3100 C 745,3100 700,3055 700,3000 700,2933 700,2867 700,2800 700,2745 745,2700 800,2700 1600,2700 2400,2700 3200,2700 3255,2700 3300,2745 3300,2800 3300,2867 3300,2933 3300,3000 3300,3055 3255,3100 3200,3100 2400,3100 1600,3100 800,3100 Z"/>
       </g>
      </g>
      <g class="com.sun.star.drawing.ClosedBezierShape">
       <g id="id36">
        <path fill="rgb(0,0,0)" stroke="none" d="M 1820,3004 L 1820,2857 1844,2857 1844,2882 C 1848,2872 1853,2865 1860,2860 1866,2855 1874,2853 1884,2853 1886,2853 1887,2853 1888,2853 1889,2853 1890,2853 1891,2853 L 1891,2879 C 1890,2879 1889,2879 1888,2879 1888,2879 1886,2879 1885,2879 1872,2879 1862,2882 1855,2889 1848,2897 1845,2907 1845,2921 L 1845,3004 1820,3004 Z"/>
       </g>
      </g>
      <g class="com.sun.star.drawing.ClosedBezierShape">
       <g id="id37">
        <path fill="rgb(0,0,0)" stroke="none" d="M 1935,2929 C 1935,2947 1939,2962 1947,2972 1954,2982 1965,2987 1979,2987 1993,2987 2004,2982 2012,2972 2020,2962 2023,2949 2023,2932 2023,2913 2020,2899 2012,2889 2004,2879 1994,2874 1980,2874 1965,2874 1954,2878 1947,2887 1939,2897 1935,2911 1935,2929 Z M 1912,3004 L 1912,2801 1936,2801 1936,2877 C 1942,2868 1949,2862 1957,2858 1965,2854 1974,2852 1984,2852 2004,2852 2020,2859 2032,2873 2044,2887 2049,2907 2049,2931 2049,2954 2044,2973 2032,2987 2020,3001 2004,3008 1985,3009 1974,3008 1965,3007 1957,3003 1949,2999 1943,2993 1936,2985 L 1936,3004 1912,3004 Z"/>
       </g>
      </g>
      <g class="com.sun.star.drawing.ClosedBezierShape">
       <g id="id38">
        <path fill="rgb(0,0,0)" stroke="none" d="M 2063,3003 C 2080,2978 2097,2953 2114,2928 2097,2904 2081,2880 2065,2856 2074,2856 2084,2856 2094,2856 2106,2874 2118,2892 2130,2909 2142,2892 2154,2874 2166,2856 2175,2856 2185,2856 2195,2856 2178,2880 2161,2904 2145,2928 2162,2953 2180,2978 2198,3003 2188,3003 2178,3003 2168,3003 2155,2985 2142,2966 2129,2947 2116,2966 2104,2985 2091,3003 2082,3003 2072,3003 2063,3003 Z"/>
       </g>
      </g>
     </g>
     <g class="Group">
      <g class="com.sun.star.drawing.ClosedBezierShape">
       <g id="id39">
        <path fill="rgb(255,255,255)" stroke="none" d="M 800,3500 C 745,3500 700,3455 700,3400 700,3333 700,3267 700,3200 700,3145 745,3100 800,3100 1600,3100 2400,3100 3200,3100 3255,3100 3300,3145 3300,3200 3300,3267 3300,3333 3300,3400 3300,3455 3255,3500 3200,3500 2400,3500 1600,3500 800,3500 Z"/>
        <path fill="none" stroke="rgb(0,0,0)" stroke-width="20" stroke-linejoin="round" d="M 800,3500 C 745,3500 700,3455 700,3400 700,3333 700,3267 700,3200 700,3145 745,3100 800,3100 1600,3100 2400,3100 3200,3100 3255,3100 3300,3145 3300,3200 3300,3267 3300,3333 3300,3400 3300,3455 3255,3500 3200,3500 2400,3500 1600,3500 800,3500 Z"/>
       </g>
      </g>
      <g class="com.sun.star.drawing.ClosedBezierShape">
       <g id="id40">
        <path fill="rgb(0,0,0)" stroke="none" d="M 1818,3404 L 1818,3257 1842,3257 1842,3282 C 1846,3272 1851,3265 1858,3260 1864,3255 1872,3253 1882,3253 1884,3253 1885,3253 1886,3253 1887,3253 1888,3253 1889,3253 L 1889,3279 C 1888,3279 1887,3279 1886,3279 1886,3279 1884,3279 1883,3279 1870,3279 1860,3282 1853,3289 1846,3297 1842,3307 1842,3321 L 1842,3404 1818,3404 Z"/>
       </g>
      </g>
      <g class="com.sun.star.drawing.ClosedBezierShape">
       <g id="id41">
        <path fill="rgb(0,0,0)" stroke="none" d="M 1901,3356 L 1925,3356 C 1925,3366 1929,3373 1935,3379 1942,3384 1951,3387 1962,3387 1973,3387 1981,3384 1987,3380 1993,3376 1997,3370 1997,3363 1997,3357 1995,3353 1992,3350 1989,3347 1983,3345 1974,3343 L 1946,3336 C 1931,3332 1920,3327 1914,3321 1908,3314 1904,3306 1904,3294 1904,3281 1909,3271 1919,3263 1929,3255 1943,3252 1960,3252 1978,3252 1992,3256 2002,3264 2012,3272 2018,3283 2018,3297 L 2018,3298 1993,3298 C 1993,3290 1990,3283 1984,3279 1978,3275 1970,3272 1960,3272 1950,3272 1942,3274 1937,3278 1932,3281 1930,3286 1930,3293 1930,3298 1931,3302 1934,3305 1938,3307 1944,3310 1953,3312 L 1977,3317 C 1994,3321 2005,3327 2012,3333 2018,3339 2021,3348 2021,3360 2021,3375 2016,3387 2005,3396 1994,3404 1979,3408 1960,3409 1941,3408 1926,3404 1916,3395 1906,3386 1901,3373 1901,3356 Z"/>
       </g>
      </g>
      <g class="com.sun.star.drawing.ClosedBezierShape">
       <g id="id42">
        <path fill="rgb(0,0,0)" stroke="none" d="M 2074,3331 C 2074,3349 2077,3363 2085,3373 2092,3382 2103,3387 2118,3387 2132,3387 2142,3381 2150,3371 2158,3361 2162,3347 2162,3328 2162,3311 2158,3298 2150,3288 2142,3278 2131,3274 2117,3274 2103,3274 2092,3278 2085,3288 2077,3298 2074,3313 2074,3331 Z M 2051,3463 L 2051,3257 2074,3257 2074,3277 C 2081,3268 2087,3262 2095,3258 2103,3254 2112,3252 2123,3252 2142,3252 2158,3259 2170,3273 2182,3287 2188,3306 2188,3330 2188,3354 2182,3373 2170,3387 2158,3401 2142,3408 2122,3409 2112,3408 2103,3407 2095,3403 2087,3399 2080,3394 2074,3386 L 2074,3463 2051,3463 Z"/>
       </g>
      </g>
     </g>
     <g class="Group">
      <g class="com.sun.star.drawing.ClosedBezierShape">
       <g id="id43">
        <path fill="rgb(255,255,255)" stroke="none" d="M 800,3900 C 745,3900 700,3855 700,3800 700,3733 700,3667 700,3600 700,3545 745,3500 800,3500 1600,3500 2400,3500 3200,3500 3255,3500 3300,3545 3300,3600 3300,3667 3300,3733 3300,3800 3300,3855 3255,3900 3200,3900 2400,3900 1600,3900 800,3900 Z"/>
        <path fill="none" stroke="rgb(0,0,0)" stroke-width="20" stroke-linejoin="round" d="M 800,3900 C 745,3900 700,3855 700,3800 700,3733 700,3667 700,3600 700,3545 745,3500 800,3500 1600,3500 2400,3500 3200,3500 3255,3500 3300,3545 3300,3600 3300,3667 3300,3733 3300,3800 3300,3855 3255,3900 3200,3900 2400,3900 1600,3900 800,3900 Z"/>
       </g>
      </g>
      <g class="com.sun.star.drawing.ClosedBezierShape">
       <g id="id44">
        <path fill="rgb(0,0,0)" stroke="none" d="M 1803,3804 L 1803,3657 1827,3657 1827,3682 C 1831,3672 1836,3665 1843,3660 1849,3655 1857,3653 1867,3653 1869,3653 1870,3653 1871,3653 1872,3653 1873,3653 1874,3653 L 1874,3679 C 1873,3679 1872,3679 1871,3679 1871,3679 1869,3679 1868,3679 1855,3679 1845,3682 1838,3689 1831,3697 1828,3707 1828,3721 L 1828,3804 1803,3804 Z"/>
       </g>
      </g>
      <g class="com.sun.star.drawing.ClosedBezierShape">
       <g id="id45">
        <path fill="rgb(0,0,0)" stroke="none" d="M 1918,3729 C 1918,3747 1922,3762 1930,3772 1937,3782 1948,3787 1962,3787 1976,3787 1987,3782 1995,3772 2003,3762 2006,3749 2006,3732 2006,3713 2003,3699 1995,3689 1987,3679 1977,3674 1963,3674 1948,3674 1937,3678 1930,3687 1922,3697 1918,3711 1918,3729 Z M 1895,3804 L 1895,3601 1919,3601 1919,3677 C 1925,3668 1932,3662 1940,3658 1948,3654 1957,3652 1967,3652 1987,3652 2003,3659 2015,3673 2027,3687 2032,3707 2032,3731 2032,3754 2027,3773 2015,3787 2003,3801 1987,3808 1968,3809 1957,3808 1948,3807 1940,3803 1932,3799 1926,3793 1919,3785 L 1919,3804 1895,3804 Z"/>
       </g>
      </g>
      <g class="com.sun.star.drawing.ClosedBezierShape">
       <g id="id46">
        <path fill="rgb(0,0,0)" stroke="none" d="M 2088,3731 C 2088,3749 2091,3763 2099,3773 2106,3782 2117,3787 2132,3787 2146,3787 2156,3781 2164,3771 2172,3761 2176,3747 2176,3728 2176,3711 2172,3698 2164,3688 2156,3678 2145,3674 2131,3674 2117,3674 2106,3678 2099,3688 2091,3698 2088,3713 2088,3731 Z M 2064,3863 L 2064,3657 2088,3657 2088,3677 C 2095,3668 2101,3662 2109,3658 2117,3654 2126,3652 2137,3652 2156,3652 2172,3659 2184,3673 2196,3687 2202,3706 2202,3730 2202,3754 2196,3773 2184,3787 2172,3801 2156,3808 2136,3809 2126,3808 2117,3807 2109,3803 2101,3799 2094,3794 2088,3786 L 2088,3863 2064,3863 Z"/>
       </g>
      </g>
     </g>
     <g class="Group">
      <g class="com.sun.star.drawing.ClosedBezierShape">
       <g id="id47">
        <path fill="rgb(255,255,255)" stroke="none" d="M 800,4300 C 745,4300 700,4255 700,4200 700,4133 700,4067 700,4000 700,3945 745,3900 800,3900 1600,3900 2400,3900 3200,3900 3255,3900 3300,3945 3300,4000 3300,4067 3300,4133 3300,4200 3300,4255 3255,4300 3200,4300 2400,4300 1600,4300 800,4300 Z"/>
        <path fill="none" stroke="rgb(0,0,0)" stroke-width="20" stroke-linejoin="round" d="M 800,4300 C 745,4300 700,4255 700,4200 700,4133 700,4067 700,4000 700,3945 745,3900 800,3900 1600,3900 2400,3900 3200,3900 3255,3900 3300,3945 3300,4000 3300,4067 3300,4133 3300,4200 3300,4255 3255,4300 3200,4300 2400,4300 1600,4300 800,4300 Z"/>
       </g>
      </g>
      <g class="com.sun.star.drawing.ClosedBezierShape">
       <g id="id48">
        <path fill="rgb(0,0,0)" stroke="none" d="M 1871,4204 L 1871,4057 1895,4057 1895,4082 C 1899,4072 1904,4065 1911,4060 1917,4055 1925,4053 1935,4053 1937,4053 1938,4053 1939,4053 1940,4053 1941,4053 1942,4053 L 1942,4079 C 1941,4079 1940,4079 1939,4079 1939,4079 1937,4079 1936,4079 1923,4079 1913,4082 1906,4089 1899,4097 1895,4107 1895,4121 L 1895,4204 1871,4204 Z"/>
       </g>
      </g>
      <g class="com.sun.star.drawing.ClosedBezierShape">
       <g id="id49">
        <path fill="rgb(0,0,0)" stroke="none" d="M 1954,4156 L 1978,4156 C 1978,4166 1982,4173 1988,4179 1995,4184 2004,4187 2015,4187 2026,4187 2034,4184 2040,4180 2046,4176 2050,4170 2050,4163 2050,4157 2048,4153 2045,4150 2042,4147 2036,4145 2027,4143 L 1999,4136 C 1984,4132 1973,4127 1967,4121 1961,4114 1958,4106 1958,4094 1958,4081 1962,4071 1972,4063 1982,4055 1996,4052 2013,4052 2031,4052 2045,4056 2055,4064 2065,4072 2071,4083 2071,4097 L 2071,4098 2047,4098 C 2046,4090 2043,4083 2037,4079 2031,4075 2023,4073 2013,4073 2003,4073 1995,4074 1990,4078 1985,4081 1983,4086 1983,4093 1983,4098 1984,4102 1987,4105 1991,4107 1997,4110 2006,4112 L 2030,4117 C 2047,4121 2058,4127 2065,4133 2071,4139 2075,4148 2075,4160 2075,4175 2069,4187 2058,4196 2047,4204 2032,4208 2013,4209 1994,4208 1979,4204 1969,4195 1959,4186 1954,4173 1954,4156 Z"/>
       </g>
      </g>
      <g class="com.sun.star.drawing.ClosedBezierShape">
       <g id="id50">
        <path fill="rgb(0,0,0)" stroke="none" d="M 2104,4030 C 2104,4020 2104,4011 2104,4002 2112,4002 2120,4002 2129,4002 2129,4011 2129,4020 2129,4030 2120,4030 2112,4030 2104,4030 Z M 2104,4204 C 2104,4155 2104,4106 2104,4057 2112,4057 2120,4057 2129,4057 2129,4106 2129,4155 2129,4204 2120,4204 2112,4204 2104,4204 Z"/>
       </g>
      </g>
     </g>
     <g class="Group">
      <g class="com.sun.star.drawing.ClosedBezierShape">
       <g id="id51">
        <path fill="rgb(255,255,255)" stroke="none" d="M 800,4700 C 745,4700 700,4655 700,4600 700,4533 700,4467 700,4400 700,4345 745,4300 800,4300 1600,4300 2400,4300 3200,4300 3255,4300 3300,4345 3300,4400 3300,4467 3300,4533 3300,4600 3300,4655 3255,4700 3200,4700 2400,4700 1600,4700 800,4700 Z"/>
        <path fill="none" stroke="rgb(0,0,0)" stroke-width="20" stroke-linejoin="round" d="M 800,4700 C 745,4700 700,4655 700,4600 700,4533 700,4467 700,4400 700,4345 745,4300 800,4300 1600,4300 2400,4300 3200,4300 3255,4300 3300,4345 3300,4400 3300,4467 3300,4533 3300,4600 3300,4655 3255,4700 3200,4700 2400,4700 1600,4700 800,4700 Z"/>
       </g>
      </g>
      <g class="com.sun.star.drawing.ClosedBezierShape">
       <g id="id52">
        <path fill="rgb(0,0,0)" stroke="none" d="M 1856,4604 L 1856,4457 1880,4457 1880,4482 C 1884,4472 1889,4465 1896,4460 1902,4455 1910,4453 1920,4453 1922,4453 1923,4453 1924,4453 1925,4453 1926,4453 1927,4453 L 1927,4479 C 1926,4479 1925,4479 1924,4479 1924,4479 1922,4479 1921,4479 1908,4479 1898,4482 1891,4489 1884,4497 1881,4507 1881,4521 L 1881,4604 1856,4604 Z"/>
       </g>
      </g>
      <g class="com.sun.star.drawing.ClosedBezierShape">
       <g id="id53">
        <path fill="rgb(0,0,0)" stroke="none" d="M 2054,4529 C 2054,4511 2050,4497 2043,4487 2035,4478 2024,4474 2010,4474 1996,4474 1985,4479 1978,4489 1970,4499 1967,4513 1967,4532 1967,4549 1970,4562 1978,4572 1986,4582 1997,4587 2010,4587 2024,4587 2035,4582 2042,4572 2050,4562 2054,4547 2054,4529 Z M 2077,4401 L 2077,4604 2053,4604 2053,4585 C 2046,4593 2039,4599 2031,4603 2023,4607 2015,4608 2005,4609 1985,4608 1970,4601 1958,4587 1946,4573 1941,4554 1941,4531 1941,4506 1946,4487 1958,4473 1970,4459 1985,4452 2005,4452 2015,4452 2024,4453 2032,4457 2040,4461 2047,4467 2053,4474 L 2053,4401 2077,4401 Z"/>
       </g>
      </g>
      <g class="com.sun.star.drawing.ClosedBezierShape">
       <g id="id54">
        <path fill="rgb(0,0,0)" stroke="none" d="M 2118,4430 C 2118,4420 2118,4411 2118,4402 2126,4402 2134,4402 2143,4402 2143,4411 2143,4420 2143,4430 2134,4430 2126,4430 2118,4430 Z M 2118,4604 C 2118,4555 2118,4506 2118,4457 2126,4457 2134,4457 2143,4457 2143,4506 2143,4555 2143,4604 2134,4604 2126,4604 2118,4604 Z"/>
       </g>
      </g>
     </g>
     <g class="Group">
      <g class="com.sun.star.drawing.ClosedBezierShape">
       <g id="id55">
        <path fill="rgb(255,255,255)" stroke="none" d="M 800,5100 C 745,5100 700,5055 700,5000 700,4933 700,4867 700,4800 700,4745 745,4700 800,4700 1600,4700 2400,4700 3200,4700 3255,4700 3300,4745 3300,4800 3300,4867 3300,4933 3300,5000 3300,5055 3255,5100 3200,5100 2400,5100 1600,5100 800,5100 Z"/>
        <path fill="none" stroke="rgb(0,0,0)" stroke-width="20" stroke-linejoin="round" d="M 800,5100 C 745,5100 700,5055 700,5000 700,4933 700,4867 700,4800 700,4745 745,4700 800,4700 1600,4700 2400,4700 3200,4700 3255,4700 3300,4745 3300,4800 3300,4867 3300,4933 3300,5000 3300,5055 3255,5100 3200,5100 2400,5100 1600,5100 800,5100 Z"/>
       </g>
      </g>
      <g class="com.sun.star.drawing.ClosedBezierShape">
       <g id="id56">
        <path fill="rgb(0,0,0)" stroke="none" d="M 1894,5004 L 1894,4857 1918,4857 1918,4882 C 1922,4872 1927,4865 1934,4860 1940,4855 1948,4853 1958,4853 1960,4853 1961,4853 1962,4853 1963,4853 1964,4853 1965,4853 L 1965,4879 C 1964,4879 1963,4879 1962,4879 1962,4879 1960,4878 1959,4878 1946,4878 1936,4882 1929,4889 1922,4897 1918,4907 1918,4921 L 1918,5004 1894,5004 Z"/>
       </g>
      </g>
      <g class="com.sun.star.drawing.ClosedBezierShape">
       <g id="id57">
        <path fill="rgb(0,0,0)" stroke="none" d="M 2005,4947 C 2005,4959 2008,4968 2015,4975 2023,4982 2032,4986 2045,4986 2057,4986 2067,4982 2075,4975 2082,4968 2086,4959 2086,4947 2086,4936 2082,4928 2075,4921 2067,4915 2057,4912 2045,4912 2032,4912 2022,4915 2015,4921 2008,4927 2005,4936 2005,4947 Z M 2011,4860 C 2011,4869 2014,4876 2020,4882 2026,4888 2034,4891 2045,4891 2055,4891 2063,4888 2069,4882 2075,4876 2079,4869 2079,4860 2079,4850 2076,4843 2070,4837 2064,4832 2055,4830 2045,4830 2034,4830 2026,4832 2020,4837 2014,4843 2011,4850 2011,4860 Z M 2010,4899 C 2001,4895 1995,4889 1991,4882 1987,4876 1985,4867 1985,4857 1985,4842 1990,4830 2001,4821 2012,4811 2027,4807 2045,4807 2063,4807 2078,4811 2089,4821 2100,4830 2106,4842 2106,4857 2106,4867 2103,4876 2099,4882 2095,4889 2088,4895 2079,4899 2090,4903 2099,4909 2104,4917 2110,4926 2113,4936 2113,4948 2113,4967 2106,4982 2094,4993 2082,5004 2065,5009 2045,5010 2024,5009 2008,5004 1996,4993 1984,4982 1978,4967 1978,4948 1978,4936 1980,4926 1986,4917 1991,4909 1999,4903 2010,4899 Z"/>
       </g>
      </g>
     </g>
     <g class="Group">
      <g class="com.sun.star.drawing.ClosedBezierShape">
       <g id="id58">
        <path fill="rgb(255,255,255)" stroke="none" d="M 800,5500 C 745,5500 700,5455 700,5400 700,5333 700,5267 700,5200 700,5145 745,5100 800,5100 1600,5100 2400,5100 3200,5100 3255,5100 3300,5145 3300,5200 3300,5267 3300,5333 3300,5400 3300,5455 3255,5500 3200,5500 2400,5500 1600,5500 800,5500 Z"/>
        <path fill="none" stroke="rgb(0,0,0)" stroke-width="20" stroke-linejoin="round" d="M 800,5500 C 745,5500 700,5455 700,5400 700,5333 700,5267 700,5200 700,5145 745,5100 800,5100 1600,5100 2400,5100 3200,5100 3255,5100 3300,5145 3300,5200 3300,5267 3300,5333 3300,5400 3300,5455 3255,5500 3200,5500 2400,5500 1600,5500 800,5500 Z"/>
       </g>
      </g>
      <g class="com.sun.star.drawing.ClosedBezierShape">
       <g id="id59">
        <path fill="rgb(0,0,0)" stroke="none" d="M 1894,5404 L 1894,5257 1918,5257 1918,5282 C 1922,5272 1927,5265 1934,5260 1940,5255 1948,5253 1958,5253 1960,5253 1961,5253 1962,5253 1963,5253 1964,5253 1965,5253 L 1965,5279 C 1964,5279 1963,5279 1962,5279 1962,5279 1960,5279 1959,5279 1946,5279 1936,5282 1929,5289 1922,5297 1918,5307 1918,5321 L 1918,5404 1894,5404 Z"/>
       </g>
      </g>
      <g class="com.sun.star.drawing.ClosedBezierShape">
       <g id="id60">
        <path fill="rgb(0,0,0)" stroke="none" d="M 2003,5272 C 2003,5285 2006,5295 2013,5303 2020,5311 2029,5315 2041,5315 2054,5315 2064,5311 2071,5303 2078,5296 2082,5285 2082,5272 2082,5259 2078,5248 2071,5240 2064,5232 2054,5229 2042,5229 2030,5229 2020,5232 2013,5240 2006,5248 2003,5259 2003,5272 Z M 1977,5356 L 2004,5356 C 2004,5365 2007,5373 2013,5378 2019,5384 2028,5387 2039,5387 2053,5387 2064,5381 2071,5369 2079,5358 2083,5340 2085,5316 2079,5323 2072,5328 2064,5332 2056,5336 2048,5338 2038,5338 2019,5338 2004,5332 1993,5320 1981,5308 1976,5292 1976,5272 1976,5253 1982,5237 1994,5225 2006,5213 2022,5207 2042,5207 2064,5207 2082,5214 2094,5230 2106,5246 2113,5269 2113,5299 2113,5335 2106,5362 2093,5381 2080,5400 2062,5409 2038,5410 2020,5409 2005,5405 1994,5395 1983,5385 1978,5372 1977,5356 Z"/>
       </g>
      </g>
     </g>
     <g class="Group">
      <g class="com.sun.star.drawing.ClosedBezierShape">
       <g id="id61">
        <path fill="rgb(255,255,255)" stroke="none" d="M 800,5900 C 745,5900 700,5855 700,5800 700,5733 700,5667 700,5600 700,5545 745,5500 800,5500 1600,5500 2400,5500 3200,5500 3255,5500 3300,5545 3300,5600 3300,5667 3300,5733 3300,5800 3300,5855 3255,5900 3200,5900 2400,5900 1600,5900 800,5900 Z"/>
        <path fill="none" stroke="rgb(0,0,0)" stroke-width="20" stroke-linejoin="round" d="M 800,5900 C 745,5900 700,5855 700,5800 700,5733 700,5667 700,5600 700,5545 745,5500 800,5500 1600,5500 2400,5500 3200,5500 3255,5500 3300,5545 3300,5600 3300,5667 3300,5733 3300,5800 3300,5855 3255,5900 3200,5900 2400,5900 1600,5900 800,5900 Z"/>
       </g>
      </g>
      <g class="com.sun.star.drawing.ClosedBezierShape">
       <g id="id62">
        <path fill="rgb(0,0,0)" stroke="none" d="M 1816,5804 L 1816,5657 1840,5657 1840,5682 C 1844,5672 1849,5665 1856,5660 1862,5655 1870,5653 1880,5653 1882,5653 1883,5653 1884,5653 1885,5653 1886,5653 1887,5653 L 1887,5679 C 1886,5679 1885,5679 1884,5679 1884,5679 1882,5678 1881,5678 1868,5678 1858,5682 1851,5689 1844,5697 1841,5707 1841,5721 L 1841,5804 1816,5804 Z"/>
       </g>
      </g>
      <g class="com.sun.star.drawing.ClosedBezierShape">
       <g id="id63">
        <path fill="rgb(0,0,0)" stroke="none" d="M 1961,5804 L 1961,5665 1915,5665 1915,5645 C 1932,5644 1945,5641 1953,5635 1962,5629 1967,5619 1968,5607 L 1987,5607 1987,5804 1961,5804 Z"/>
       </g>
      </g>
      <g class="com.sun.star.drawing.ClosedBezierShape">
       <g id="id64">
        <path fill="rgb(0,0,0)" stroke="none" d="M 2084,5708 C 2084,5735 2087,5755 2093,5768 2100,5780 2110,5787 2125,5787 2139,5787 2149,5780 2156,5768 2162,5756 2166,5736 2166,5708 2166,5681 2162,5661 2156,5648 2149,5636 2139,5630 2125,5630 2110,5630 2100,5636 2093,5648 2087,5661 2084,5681 2084,5708 Z M 2057,5708 C 2057,5675 2062,5650 2074,5632 2085,5615 2102,5607 2124,5607 2147,5607 2164,5615 2175,5632 2187,5650 2193,5675 2193,5708 2193,5741 2187,5767 2175,5784 2164,5801 2147,5809 2124,5810 2102,5809 2085,5801 2074,5784 2062,5767 2057,5741 2057,5708 Z"/>
       </g>
      </g>
     </g>
     <g class="Group">
      <g class="com.sun.star.drawing.ClosedBezierShape">
       <g id="id65">
        <path fill="rgb(255,255,255)" stroke="none" d="M 800,6300 C 745,6300 700,6255 700,6200 700,6133 700,6067 700,6000 700,5945 745,5900 800,5900 1600,5900 2400,5900 3200,5900 3255,5900 3300,5945 3300,6000 3300,6067 3300,6133 3300,6200 3300,6255 3255,6300 3200,6300 2400,6300 1600,6300 800,6300 Z"/>
        <path fill="none" stroke="rgb(0,0,0)" stroke-width="20" stroke-linejoin="round" d="M 800,6300 C 745,6300 700,6255 700,6200 700,6133 700,6067 700,6000 700,5945 745,5900 800,5900 1600,5900 2400,5900 3200,5900 3255,5900 3300,5945 3300,6000 3300,6067 3300,6133 3300,6200 3300,6255 3255,6300 3200,6300 2400,6300 1600,6300 800,6300 Z"/>
       </g>
      </g>
      <g class="com.sun.star.drawing.ClosedBezierShape">
       <g id="id66">
        <path fill="rgb(0,0,0)" stroke="none" d="M 1816,6204 L 1816,6057 1840,6057 1840,6082 C 1844,6072 1849,6065 1856,6060 1862,6055 1870,6053 1880,6053 1882,6053 1883,6053 1884,6053 1885,6053 1886,6053 1887,6053 L 1887,6079 C 1886,6079 1885,6079 1884,6079 1884,6079 1882,6079 1881,6079 1868,6079 1858,6082 1851,6089 1844,6097 1841,6107 1841,6121 L 1841,6204 1816,6204 Z"/>
       </g>
      </g>
      <g class="com.sun.star.drawing.ClosedBezierShape">
       <g id="id67">
        <path fill="rgb(0,0,0)" stroke="none" d="M 1961,6203 L 1961,6064 1915,6064 1915,6045 C 1932,6044 1945,6041 1953,6035 1962,6029 1967,6019 1968,6006 L 1987,6006 1987,6203 1961,6203 Z"/>
       </g>
      </g>
      <g class="com.sun.star.drawing.ClosedBezierShape">
       <g id="id68">
        <path fill="rgb(0,0,0)" stroke="none" d="M 2119,6203 L 2119,6064 2073,6064 2073,6045 C 2089,6044 2102,6041 2110,6035 2119,6029 2124,6019 2125,6006 L 2145,6006 2145,6203 2119,6203 Z"/>
       </g>
      </g>
     </g>
     <g class="Group">
      <g class="com.sun.star.drawing.ClosedBezierShape">
       <g id="id69">
        <path fill="rgb(255,255,255)" stroke="none" d="M 800,6700 C 745,6700 700,6655 700,6600 700,6533 700,6467 700,6400 700,6345 745,6300 800,6300 1600,6300 2400,6300 3200,6300 3255,6300 3300,6345 3300,6400 3300,6467 3300,6533 3300,6600 3300,6655 3255,6700 3200,6700 2400,6700 1600,6700 800,6700 Z"/>
        <path fill="none" stroke="rgb(0,0,0)" stroke-width="20" stroke-linejoin="round" d="M 800,6700 C 745,6700 700,6655 700,6600 700,6533 700,6467 700,6400 700,6345 745,6300 800,6300 1600,6300 2400,6300 3200,6300 3255,6300 3300,6345 3300,6400 3300,6467 3300,6533 3300,6600 3300,6655 3255,6700 3200,6700 2400,6700 1600,6700 800,6700 Z"/>
       </g>
      </g>
      <g class="com.sun.star.drawing.ClosedBezierShape">
       <g id="id70">
        <path fill="rgb(0,0,0)" stroke="none" d="M 1816,6604 L 1816,6457 1840,6457 1840,6482 C 1844,6472 1849,6465 1856,6460 1862,6455 1870,6453 1880,6453 1882,6453 1883,6453 1884,6453 1885,6453 1886,6453 1887,6453 L 1887,6479 C 1886,6479 1885,6479 1884,6479 1884,6479 1882,6479 1881,6479 1868,6479 1858,6482 1851,6489 1844,6497 1841,6507 1841,6521 L 1841,6604 1816,6604 Z"/>
       </g>
      </g>
      <g class="com.sun.star.drawing.ClosedBezierShape">
       <g id="id71">
        <path fill="rgb(0,0,0)" stroke="none" d="M 1961,6604 L 1961,6465 1915,6465 1915,6445 C 1932,6444 1945,6441 1953,6435 1962,6429 1967,6419 1968,6407 L 1987,6407 1987,6604 1961,6604 Z"/>
       </g>
      </g>
      <g class="com.sun.star.drawing.ClosedBezierShape">
       <g id="id72">
        <path fill="rgb(0,0,0)" stroke="none" d="M 2056,6604 L 2056,6602 C 2056,6583 2060,6567 2069,6554 2078,6541 2094,6528 2117,6516 L 2134,6506 C 2144,6501 2151,6495 2156,6488 2160,6481 2163,6473 2163,6464 2163,6454 2159,6445 2152,6439 2145,6433 2136,6430 2124,6430 2112,6430 2102,6434 2096,6442 2089,6450 2086,6461 2086,6475 L 2086,6478 2060,6478 2060,6474 C 2060,6453 2065,6437 2077,6425 2089,6413 2105,6407 2125,6407 2144,6407 2160,6412 2172,6423 2184,6433 2190,6447 2190,6465 2190,6478 2186,6490 2179,6500 2172,6510 2162,6519 2147,6527 L 2131,6535 C 2116,6543 2105,6550 2098,6557 2091,6564 2086,6571 2084,6579 L 2190,6579 2190,6604 2056,6604 Z"/>
       </g>
      </g>
     </g>
     <g class="Group">
      <g class="com.sun.star.drawing.ClosedBezierShape">
       <g id="id73">
        <path fill="rgb(255,255,255)" stroke="none" d="M 800,7100 C 745,7100 700,7055 700,7000 700,6933 700,6867 700,6800 700,6745 745,6700 800,6700 1600,6700 2400,6700 3200,6700 3255,6700 3300,6745 3300,6800 3300,6867 3300,6933 3300,7000 3300,7055 3255,7100 3200,7100 2400,7100 1600,7100 800,7100 Z"/>
        <path fill="none" stroke="rgb(0,0,0)" stroke-width="20" stroke-linejoin="round" d="M 800,7100 C 745,7100 700,7055 700,7000 700,6933 700,6867 700,6800 700,6745 745,6700 800,6700 1600,6700 2400,6700 3200,6700 3255,6700 3300,6745 3300,6800 3300,6867 3300,6933 3300,7000 3300,7055 3255,7100 3200,7100 2400,7100 1600,7100 800,7100 Z"/>
       </g>
      </g>
      <g class="com.sun.star.drawing.ClosedBezierShape">
       <g id="id74">
        <path fill="rgb(0,0,0)" stroke="none" d="M 1816,7004 L 1816,6857 1840,6857 1840,6882 C 1844,6872 1849,6865 1856,6860 1862,6855 1870,6853 1880,6853 1882,6853 1883,6853 1884,6853 1885,6853 1886,6853 1887,6853 L 1887,6879 C 1886,6879 1885,6879 1884,6879 1884,6879 1882,6878 1881,6878 1868,6878 1858,6882 1851,6889 1844,6897 1841,6907 1841,6921 L 1841,7004 1816,7004 Z"/>
       </g>
      </g>
      <g class="com.sun.star.drawing.ClosedBezierShape">
       <g id="id75">
        <path fill="rgb(0,0,0)" stroke="none" d="M 1961,7003 L 1961,6864 1915,6864 1915,6845 C 1932,6844 1945,6841 1953,6835 1962,6829 1967,6819 1968,6806 L 1987,6806 1987,7003 1961,7003 Z"/>
       </g>
      </g>
      <g class="com.sun.star.drawing.ClosedBezierShape">
       <g id="id76">
        <path fill="rgb(0,0,0)" stroke="none" d="M 2053,6943 L 2079,6943 C 2079,6956 2083,6967 2090,6974 2097,6982 2107,6985 2120,6985 2133,6985 2143,6982 2150,6975 2158,6968 2162,6959 2162,6947 2162,6936 2158,6928 2151,6922 2144,6916 2133,6912 2120,6912 2118,6912 2113,6913 2107,6913 L 2106,6913 2106,6891 C 2108,6891 2109,6891 2110,6891 2111,6891 2113,6892 2115,6892 2129,6892 2139,6889 2145,6884 2151,6879 2155,6871 2155,6861 2155,6851 2152,6843 2146,6838 2140,6832 2131,6830 2120,6830 2108,6830 2098,6833 2092,6840 2086,6847 2083,6858 2083,6872 L 2058,6872 2058,6870 C 2058,6851 2063,6835 2074,6824 2085,6812 2100,6807 2119,6807 2139,6807 2154,6811 2165,6820 2176,6830 2182,6843 2182,6860 2182,6869 2179,6877 2175,6884 2171,6891 2165,6896 2157,6899 2167,6903 2175,6909 2181,6917 2186,6925 2189,6935 2189,6947 2189,6966 2182,6981 2169,6993 2157,7004 2140,7009 2118,7010 2098,7009 2082,7004 2070,6992 2058,6980 2053,6964 2053,6944 L 2053,6943 Z"/>
       </g>
      </g>
     </g>
     <g class="Group">
      <g class="com.sun.star.drawing.ClosedBezierShape">
       <g id="id77">
        <path fill="rgb(255,255,255)" stroke="none" d="M 800,7500 C 745,7500 700,7455 700,7400 700,7333 700,7267 700,7200 700,7145 745,7100 800,7100 1600,7100 2400,7100 3200,7100 3255,7100 3300,7145 3300,7200 3300,7267 3300,7333 3300,7400 3300,7455 3255,7500 3200,7500 2400,7500 1600,7500 800,7500 Z"/>
        <path fill="none" stroke="rgb(0,0,0)" stroke-width="20" stroke-linejoin="round" d="M 800,7500 C 745,7500 700,7455 700,7400 700,7333 700,7267 700,7200 700,7145 745,7100 800,7100 1600,7100 2400,7100 3200,7100 3255,7100 3300,7145 3300,7200 3300,7267 3300,7333 3300,7400 3300,7455 3255,7500 3200,7500 2400,7500 1600,7500 800,7500 Z"/>
       </g>
      </g>
      <g class="com.sun.star.drawing.ClosedBezierShape">
       <g id="id78">
        <path fill="rgb(0,0,0)" stroke="none" d="M 1816,7404 L 1816,7257 1840,7257 1840,7282 C 1844,7272 1849,7265 1856,7260 1862,7255 1870,7253 1880,7253 1882,7253 1883,7253 1884,7253 1885,7253 1886,7253 1887,7253 L 1887,7279 C 1886,7279 1885,7279 1884,7279 1884,7279 1882,7279 1881,7279 1868,7279 1858,7282 1851,7289 1844,7297 1841,7307 1841,7321 L 1841,7404 1816,7404 Z"/>
       </g>
      </g>
      <g class="com.sun.star.drawing.ClosedBezierShape">
       <g id="id79">
        <path fill="rgb(0,0,0)" stroke="none" d="M 1961,7403 L 1961,7264 1915,7264 1915,7245 C 1932,7244 1945,7241 1953,7235 1962,7229 1967,7219 1968,7206 L 1987,7206 1987,7403 1961,7403 Z"/>
       </g>
      </g>
      <g class="com.sun.star.drawing.ClosedBezierShape">
       <g id="id80">
        <path fill="rgb(0,0,0)" stroke="none" d="M 2077,7331 C 2098,7331 2119,7331 2140,7331 2140,7302 2140,7273 2140,7244 2119,7273 2098,7302 2077,7331 Z M 2140,7403 C 2140,7387 2140,7371 2140,7355 2111,7355 2082,7355 2054,7355 2054,7346 2054,7338 2054,7330 2082,7290 2110,7251 2139,7211 2147,7211 2156,7211 2165,7211 2165,7251 2165,7291 2165,7331 2174,7331 2183,7331 2193,7331 2193,7339 2193,7347 2193,7355 2183,7355 2174,7355 2165,7355 2165,7371 2165,7387 2165,7403 2156,7403 2148,7403 2140,7403 Z"/>
       </g>
      </g>
     </g>
     <g class="Group">
      <g class="com.sun.star.drawing.ClosedBezierShape">
       <g id="id81">
        <path fill="rgb(255,255,255)" stroke="none" d="M 800,7900 C 745,7900 700,7855 700,7800 700,7733 700,7667 700,7600 700,7545 745,7500 800,7500 1600,7500 2400,7500 3200,7500 3255,7500 3300,7545 3300,7600 3300,7667 3300,7733 3300,7800 3300,7855 3255,7900 3200,7900 2400,7900 1600,7900 800,7900 Z"/>
        <path fill="none" stroke="rgb(0,0,0)" stroke-width="20" stroke-linejoin="round" d="M 800,7900 C 745,7900 700,7855 700,7800 700,7733 700,7667 700,7600 700,7545 745,7500 800,7500 1600,7500 2400,7500 3200,7500 3255,7500 3300,7545 3300,7600 3300,7667 3300,7733 3300,7800 3300,7855 3255,7900 3200,7900 2400,7900 1600,7900 800,7900 Z"/>
       </g>
      </g>
      <g class="com.sun.star.drawing.ClosedBezierShape">
       <g id="id82">
        <path fill="rgb(0,0,0)" stroke="none" d="M 1816,7804 L 1816,7657 1840,7657 1840,7682 C 1844,7672 1849,7665 1856,7660 1862,7655 1870,7653 1880,7653 1882,7653 1883,7653 1884,7653 1885,7653 1886,7653 1887,7653 L 1887,7679 C 1886,7679 1885,7679 1884,7679 1884,7679 1882,7678 1881,7678 1868,7678 1858,7682 1851,7689 1844,7697 1841,7707 1841,7721 L 1841,7804 1816,7804 Z"/>
       </g>
      </g>
      <g class="com.sun.star.drawing.ClosedBezierShape">
       <g id="id83">
        <path fill="rgb(0,0,0)" stroke="none" d="M 1961,7803 L 1961,7664 1915,7664 1915,7645 C 1932,7644 1945,7641 1953,7635 1962,7629 1967,7619 1968,7606 L 1987,7606 1987,7803 1961,7803 Z"/>
       </g>
      </g>
      <g class="com.sun.star.drawing.ClosedBezierShape">
       <g id="id84">
        <path fill="rgb(0,0,0)" stroke="none" d="M 2054,7753 L 2081,7753 C 2082,7763 2086,7771 2093,7777 2100,7783 2109,7786 2120,7786 2133,7786 2143,7781 2151,7773 2159,7765 2164,7755 2164,7742 2164,7728 2160,7717 2152,7709 2144,7701 2133,7698 2120,7698 2112,7698 2105,7699 2099,7702 2093,7705 2087,7710 2083,7716 L 2061,7716 2076,7612 2180,7612 2180,7635 2094,7635 2086,7687 C 2091,7683 2097,7680 2103,7678 2110,7676 2117,7675 2124,7675 2144,7675 2160,7680 2172,7692 2184,7704 2191,7720 2191,7740 2191,7761 2184,7777 2171,7790 2158,7803 2142,7809 2121,7810 2102,7809 2087,7804 2075,7794 2063,7784 2056,7770 2054,7753 Z"/>
       </g>
      </g>
     </g>
     <g class="com.sun.star.drawing.LineShape">
      <g id="id85">
       <path fill="none" stroke="rgb(0,0,0)" stroke-width="20" stroke-linejoin="round" d="M 915,8200 L 3085,8200"/>
       <path fill="rgb(0,0,0)" stroke="none" d="M 700,8200 L 925,8275 925,8125 700,8200 Z"/>
       <path fill="rgb(0,0,0)" stroke="none" d="M 3300,8200 L 3075,8125 3075,8275 3300,8200 Z"/>
      </g>
     </g>
     <g class="Group">
      <g class="com.sun.star.drawing.ClosedBezierShape">
       <g id="id86">
        <path fill="rgb(0,0,0)" stroke="none" d="M 1698,8415 C 1698,8403 1694,8392 1687,8385 1680,8377 1671,8373 1660,8373 1647,8373 1637,8377 1629,8384 1622,8392 1618,8402 1618,8416 1618,8429 1622,8440 1629,8447 1637,8455 1646,8459 1659,8459 1671,8459 1680,8455 1687,8447 1694,8439 1698,8429 1698,8415 Z M 1723,8332 L 1697,8332 C 1696,8322 1693,8314 1687,8309 1681,8304 1673,8301 1662,8301 1648,8301 1637,8307 1629,8318 1622,8330 1617,8348 1616,8372 1622,8364 1628,8359 1636,8355 1644,8352 1653,8350 1662,8350 1681,8350 1696,8356 1708,8368 1719,8380 1725,8396 1725,8415 1725,8435 1719,8451 1707,8463 1694,8475 1678,8481 1659,8481 1636,8481 1618,8473 1606,8457 1594,8441 1588,8418 1588,8388 1588,8353 1594,8326 1607,8307 1620,8288 1638,8278 1662,8278 1680,8278 1695,8283 1705,8292 1716,8301 1722,8315 1723,8332 Z"/>
       </g>
      </g>
      <g class="com.sun.star.drawing.ClosedBezierShape">
       <g id="id87">
        <path fill="rgb(0,0,0)" stroke="none" d="M 1767,8403 C 1788,8403 1808,8403 1829,8403 1829,8374 1829,8345 1829,8316 1808,8345 1788,8374 1767,8403 Z M 1829,8475 C 1829,8459 1829,8442 1829,8426 1800,8426 1772,8426 1743,8426 1743,8418 1743,8409 1743,8401 1771,8362 1800,8322 1828,8283 1837,8283 1845,8283 1854,8283 1854,8323 1854,8363 1854,8403 1863,8403 1873,8403 1882,8403 1882,8411 1882,8418 1882,8426 1873,8426 1863,8426 1854,8426 1854,8442 1854,8459 1854,8475 1846,8475 1837,8475 1829,8475 Z"/>
       </g>
      </g>
      <g class="com.sun.star.drawing.ClosedBezierShape">
       <g id="id88">
        <path fill="rgb(0,0,0)" stroke="none" d="M 2010,8400 C 2010,8419 2014,8433 2021,8443 2029,8453 2040,8458 2054,8458 2067,8458 2078,8453 2086,8443 2094,8434 2098,8421 2098,8404 2098,8385 2094,8370 2087,8360 2079,8350 2068,8345 2054,8345 2039,8345 2028,8350 2021,8359 2014,8368 2010,8382 2010,8400 Z M 1987,8475 L 1987,8272 2011,8272 2011,8348 C 2017,8340 2023,8334 2032,8329 2040,8325 2049,8323 2059,8323 2078,8323 2094,8330 2106,8345 2118,8359 2124,8378 2124,8402 2124,8426 2118,8445 2106,8459 2095,8473 2079,8480 2059,8480 2049,8480 2040,8478 2032,8474 2024,8471 2017,8465 2011,8457 L 2011,8475 1987,8475 Z"/>
       </g>
      </g>
      <g class="com.sun.star.drawing.ClosedBezierShape">
       <g id="id89">
        <path fill="rgb(0,0,0)" stroke="none" d="M 2157,8301 C 2157,8292 2157,8282 2157,8273 2165,8273 2174,8273 2182,8273 2182,8282 2182,8292 2182,8301 2174,8301 2165,8301 2157,8301 Z M 2157,8475 C 2157,8426 2157,8377 2157,8328 2165,8328 2174,8328 2182,8328 2182,8377 2182,8426 2182,8475 2174,8475 2165,8475 2157,8475 Z"/>
       </g>
      </g>
      <g class="com.sun.star.drawing.ClosedBezierShape">
       <g id="id90">
        <path fill="rgb(0,0,0)" stroke="none" d="M 2249,8438 C 2249,8444 2250,8449 2252,8451 2254,8453 2257,8454 2262,8454 2264,8454 2266,8454 2268,8454 2270,8454 2273,8454 2276,8453 L 2276,8475 C 2272,8475 2268,8476 2265,8476 2261,8477 2259,8477 2256,8477 2244,8477 2236,8475 2231,8470 2226,8466 2224,8458 2224,8446 L 2224,8348 2202,8348 2202,8328 2224,8328 2224,8286 2249,8286 2249,8328 2276,8328 2276,8348 2249,8348 2249,8438 Z"/>
       </g>
      </g>
      <g class="com.sun.star.drawing.ClosedBezierShape">
       <g id="id91">
        <path fill="rgb(0,0,0)" stroke="none" d="M 2291,8427 L 2315,8427 C 2316,8437 2320,8445 2326,8450 2332,8455 2341,8458 2353,8458 2363,8458 2372,8456 2378,8452 2384,8447 2387,8442 2387,8434 2387,8429 2385,8425 2382,8422 2379,8419 2373,8416 2365,8414 L 2337,8407 C 2321,8403 2310,8398 2304,8392 2298,8386 2295,8377 2295,8366 2295,8353 2300,8342 2310,8335 2320,8327 2333,8323 2350,8323 2368,8323 2382,8327 2392,8335 2403,8344 2408,8355 2408,8368 L 2408,8369 2384,8369 C 2383,8361 2380,8355 2374,8351 2369,8346 2361,8344 2351,8344 2341,8344 2333,8346 2328,8349 2323,8353 2320,8358 2320,8365 2320,8370 2322,8373 2325,8376 2328,8379 2334,8381 2343,8383 L 2367,8389 C 2384,8393 2396,8398 2402,8404 2409,8411 2412,8420 2412,8431 2412,8447 2407,8459 2396,8467 2385,8476 2370,8480 2350,8480 2331,8480 2317,8475 2307,8466 2297,8457 2291,8444 2291,8427 Z"/>
       </g>
      </g>
     </g>
     <g class="Group">
      <g class="com.sun.star.drawing.ClosedBezierShape">
       <g id="id92">
        <path fill="rgb(255,255,255)" stroke="none" d="M 4400,1900 C 4345,1900 4300,1855 4300,1800 4300,1733 4300,1667 4300,1600 4300,1545 4345,1500 4400,1500 5933,1500 7467,1500 9000,1500 9055,1500 9100,1545 9100,1600 9100,1667 9100,1733 9100,1800 9100,1855 9055,1900 9000,1900 7467,1900 5933,1900 4400,1900 Z"/>
        <path fill="none" stroke="rgb(0,0,0)" stroke-width="20" stroke-linejoin="round" d="M 4400,1900 C 4345,1900 4300,1855 4300,1800 4300,1733 4300,1667 4300,1600 4300,1545 4345,1500 4400,1500 5933,1500 7467,1500 9000,1500 9055,1500 9100,1545 9100,1600 9100,1667 9100,1733 9100,1800 9100,1855 9055,1900 9000,1900 7467,1900 5933,1900 4400,1900 Z"/>
       </g>
      </g>
      <g class="com.sun.star.drawing.ClosedBezierShape">
       <g id="id93">
        <path fill="rgb(0,0,0)" stroke="none" d="M 6594,1804 L 6594,1657 6618,1657 6618,1682 C 6622,1672 6627,1665 6634,1660 6640,1655 6648,1653 6658,1653 6660,1653 6661,1653 6662,1653 6663,1653 6664,1653 6665,1653 L 6665,1679 C 6664,1679 6663,1679 6662,1679 6662,1679 6660,1679 6659,1679 6646,1679 6636,1682 6629,1689 6622,1697 6619,1707 6619,1721 L 6619,1804 6594,1804 Z"/>
       </g>
      </g>
      <g class="com.sun.star.drawing.ClosedBezierShape">
       <g id="id94">
        <path fill="rgb(0,0,0)" stroke="none" d="M 6703,1672 C 6703,1685 6706,1695 6713,1703 6720,1711 6729,1715 6741,1715 6754,1715 6764,1711 6771,1703 6778,1696 6782,1685 6782,1672 6782,1659 6778,1648 6771,1640 6764,1632 6754,1629 6742,1629 6730,1629 6720,1632 6713,1640 6706,1648 6703,1659 6703,1672 Z M 6678,1756 L 6704,1756 C 6704,1765 6707,1773 6713,1778 6719,1784 6728,1786 6739,1786 6753,1786 6764,1781 6771,1769 6779,1758 6783,1740 6785,1716 6779,1723 6772,1728 6764,1732 6756,1736 6748,1738 6738,1738 6719,1738 6704,1732 6693,1720 6681,1708 6676,1692 6676,1672 6676,1653 6682,1637 6694,1625 6706,1613 6722,1607 6742,1607 6764,1607 6782,1614 6794,1630 6806,1646 6813,1669 6813,1699 6813,1735 6806,1762 6793,1781 6780,1800 6762,1809 6738,1810 6720,1809 6705,1805 6694,1795 6683,1785 6678,1772 6678,1756 Z"/>
       </g>
      </g>
     </g>
     <g class="Group">
      <g class="com.sun.star.drawing.ClosedBezierShape">
       <g id="id95">
        <path fill="rgb(255,255,255)" stroke="none" d="M 6800,2300 C 6745,2300 6700,2255 6700,2200 6700,2133 6700,2067 6700,2000 6700,1945 6745,1900 6800,1900 7533,1900 8267,1900 9000,1900 9055,1900 9100,1945 9100,2000 9100,2067 9100,2133 9100,2200 9100,2255 9055,2300 9000,2300 8267,2300 7533,2300 6800,2300 Z"/>
        <path fill="none" stroke="rgb(0,0,0)" stroke-width="20" stroke-linejoin="round" d="M 6800,2300 C 6745,2300 6700,2255 6700,2200 6700,2133 6700,2067 6700,2000 6700,1945 6745,1900 6800,1900 7533,1900 8267,1900 9000,1900 9055,1900 9100,1945 9100,2000 9100,2067 9100,2133 9100,2200 9100,2255 9055,2300 9000,2300 8267,2300 7533,2300 6800,2300 Z"/>
       </g>
      </g>
      <g class="com.sun.star.drawing.ClosedBezierShape">
       <g id="id96">
        <path fill="rgb(0,0,0)" stroke="none" d="M 7709,2204 L 7709,2057 7733,2057 7733,2082 C 7737,2072 7742,2065 7749,2060 7756,2055 7764,2053 7774,2053 7775,2053 7777,2053 7778,2053 7778,2053 7779,2053 7780,2053 L 7780,2079 C 7779,2079 7779,2079 7778,2079 7777,2079 7776,2079 7774,2079 7761,2079 7751,2082 7744,2089 7737,2097 7734,2107 7734,2121 L 7734,2204 7709,2204 Z"/>
       </g>
      </g>
      <g class="com.sun.star.drawing.ClosedBezierShape">
       <g id="id97">
        <path fill="rgb(0,0,0)" stroke="none" d="M 7818,2072 C 7818,2085 7821,2095 7828,2103 7835,2111 7845,2115 7856,2115 7869,2115 7879,2111 7886,2103 7894,2096 7898,2085 7898,2072 7898,2059 7894,2048 7887,2040 7879,2032 7870,2029 7857,2029 7845,2029 7836,2032 7829,2040 7822,2048 7818,2059 7818,2072 Z M 7793,2156 L 7819,2156 C 7819,2165 7823,2173 7829,2178 7835,2184 7843,2187 7854,2187 7868,2187 7879,2181 7887,2169 7894,2158 7899,2140 7900,2116 7895,2123 7888,2128 7880,2132 7872,2136 7863,2138 7853,2138 7835,2138 7820,2132 7808,2120 7797,2108 7791,2092 7791,2072 7791,2053 7797,2037 7809,2025 7821,2013 7837,2007 7857,2007 7880,2007 7897,2014 7910,2030 7922,2046 7928,2069 7928,2099 7928,2135 7922,2162 7909,2181 7896,2200 7877,2209 7854,2210 7835,2209 7820,2205 7809,2195 7799,2185 7793,2172 7793,2156 Z"/>
       </g>
      </g>
      <g class="com.sun.star.drawing.ClosedBezierShape">
       <g id="id98">
        <path fill="rgb(0,0,0)" stroke="none" d="M 8064,2129 C 8064,2111 8060,2097 8053,2087 8046,2078 8035,2074 8020,2074 8007,2074 7996,2079 7988,2089 7981,2099 7977,2113 7977,2132 7977,2149 7981,2162 7989,2172 7996,2182 8007,2187 8021,2187 8034,2187 8045,2182 8053,2172 8060,2162 8064,2147 8064,2129 Z M 8087,2001 L 8087,2204 8063,2204 8063,2185 C 8057,2193 8050,2199 8042,2203 8034,2207 8025,2208 8015,2209 7996,2208 7980,2201 7969,2187 7957,2173 7951,2154 7951,2131 7951,2106 7957,2087 7969,2073 7980,2059 7996,2052 8015,2052 8026,2052 8035,2053 8043,2057 8051,2061 8057,2067 8063,2074 L 8063,2001 8087,2001 Z"/>
       </g>
      </g>
     </g>
     <g class="Group">
      <g class="com.sun.star.drawing.ClosedBezierShape">
       <g id="id99">
        <path fill="rgb(255,255,255)" stroke="none" d="M 8000,2700 C 7945,2700 7900,2655 7900,2600 7900,2533 7900,2467 7900,2400 7900,2345 7945,2300 8000,2300 8333,2300 8667,2300 9000,2300 9055,2300 9100,2345 9100,2400 9100,2467 9100,2533 9100,2600 9100,2655 9055,2700 9000,2700 8667,2700 8333,2700 8000,2700 Z"/>
        <path fill="none" stroke="rgb(0,0,0)" stroke-width="20" stroke-linejoin="round" d="M 8000,2700 C 7945,2700 7900,2655 7900,2600 7900,2533 7900,2467 7900,2400 7900,2345 7945,2300 8000,2300 8333,2300 8667,2300 9000,2300 9055,2300 9100,2345 9100,2400 9100,2467 9100,2533 9100,2600 9100,2655 9055,2700 9000,2700 8667,2700 8333,2700 8000,2700 Z"/>
       </g>
      </g>
      <g class="com.sun.star.drawing.ClosedBezierShape">
       <g id="id100">
        <path fill="rgb(0,0,0)" stroke="none" d="M 8290,2604 L 8290,2457 8314,2457 8314,2482 C 8318,2472 8323,2465 8330,2460 8337,2455 8345,2453 8355,2453 8356,2453 8358,2453 8359,2453 8359,2453 8360,2453 8361,2453 L 8361,2479 C 8360,2479 8360,2479 8359,2479 8358,2479 8357,2479 8355,2479 8342,2479 8332,2482 8325,2489 8318,2497 8315,2507 8315,2521 L 8315,2604 8290,2604 Z"/>
       </g>
      </g>
      <g class="com.sun.star.drawing.ClosedBezierShape">
       <g id="id101">
        <path fill="rgb(0,0,0)" stroke="none" d="M 8399,2472 C 8399,2485 8402,2495 8409,2503 8416,2511 8426,2515 8437,2515 8450,2515 8460,2511 8467,2503 8475,2496 8479,2485 8479,2472 8479,2459 8475,2448 8468,2440 8460,2432 8451,2429 8438,2429 8426,2429 8417,2432 8410,2440 8403,2448 8399,2459 8399,2472 Z M 8374,2556 L 8400,2556 C 8400,2565 8404,2573 8410,2578 8416,2584 8424,2587 8435,2587 8449,2587 8460,2581 8468,2569 8475,2558 8480,2540 8481,2516 8476,2523 8469,2528 8461,2532 8453,2536 8444,2538 8434,2538 8416,2538 8401,2532 8389,2520 8378,2508 8372,2492 8372,2472 8372,2453 8378,2437 8390,2425 8402,2413 8418,2407 8438,2407 8461,2407 8478,2414 8491,2430 8503,2446 8509,2469 8509,2499 8509,2535 8503,2562 8490,2581 8477,2600 8458,2609 8435,2610 8416,2609 8401,2605 8390,2595 8380,2585 8374,2572 8374,2556 Z"/>
       </g>
      </g>
      <g class="com.sun.star.drawing.ClosedBezierShape">
       <g id="id102">
        <path fill="rgb(0,0,0)" stroke="none" d="M 8567,2604 C 8552,2555 8538,2506 8523,2457 8532,2457 8540,2457 8549,2457 8559,2494 8570,2531 8580,2569 8590,2531 8599,2494 8609,2457 8619,2457 8628,2457 8638,2457 8648,2494 8657,2531 8667,2569 8678,2531 8689,2494 8699,2457 8708,2457 8716,2457 8725,2457 8710,2506 8695,2555 8680,2604 8672,2604 8663,2604 8655,2604 8644,2566 8634,2528 8623,2490 8613,2528 8602,2566 8592,2604 8584,2604 8575,2604 8567,2604 Z"/>
       </g>
      </g>
     </g>
     <g class="Group">
      <g class="com.sun.star.drawing.ClosedBezierShape">
       <g id="id103">
        <path fill="rgb(255,255,255)" stroke="none" d="M 8600,3100 C 8545,3100 8500,3055 8500,3000 8500,2933 8500,2867 8500,2800 8500,2745 8545,2700 8600,2700 8733,2700 8867,2700 9000,2700 9055,2700 9100,2745 9100,2800 9100,2867 9100,2933 9100,3000 9100,3055 9055,3100 9000,3100 8867,3100 8733,3100 8600,3100 Z"/>
        <path fill="none" stroke="rgb(0,0,0)" stroke-width="20" stroke-linejoin="round" d="M 8600,3100 C 8545,3100 8500,3055 8500,3000 8500,2933 8500,2867 8500,2800 8500,2745 8545,2700 8600,2700 8733,2700 8867,2700 9000,2700 9055,2700 9100,2745 9100,2800 9100,2867 9100,2933 9100,3000 9100,3055 9055,3100 9000,3100 8867,3100 8733,3100 8600,3100 Z"/>
       </g>
      </g>
      <g class="com.sun.star.drawing.ClosedBezierShape">
       <g id="id104">
        <path fill="rgb(0,0,0)" stroke="none" d="M 8662,3004 L 8662,2857 8686,2857 8686,2882 C 8690,2872 8695,2865 8702,2860 8709,2855 8717,2853 8727,2853 8728,2853 8730,2853 8731,2853 8731,2853 8732,2853 8733,2853 L 8733,2879 C 8732,2879 8732,2879 8731,2879 8730,2879 8729,2879 8727,2879 8714,2879 8704,2882 8697,2889 8690,2897 8687,2907 8687,2921 L 8687,3004 8662,3004 Z"/>
       </g>
      </g>
      <g class="com.sun.star.drawing.ClosedBezierShape">
       <g id="id105">
        <path fill="rgb(0,0,0)" stroke="none" d="M 8771,2872 C 8771,2885 8774,2895 8781,2903 8788,2911 8798,2915 8809,2915 8822,2915 8832,2911 8839,2903 8847,2896 8851,2885 8851,2872 8851,2859 8847,2848 8840,2840 8832,2832 8823,2829 8810,2829 8798,2829 8789,2832 8782,2840 8775,2848 8771,2859 8771,2872 Z M 8746,2956 L 8772,2956 C 8772,2965 8776,2973 8782,2978 8788,2984 8796,2987 8807,2987 8821,2987 8832,2981 8840,2969 8847,2958 8852,2940 8853,2916 8848,2923 8841,2928 8833,2932 8825,2936 8816,2938 8806,2938 8788,2938 8773,2932 8761,2920 8750,2908 8744,2892 8744,2872 8744,2853 8750,2837 8762,2825 8774,2813 8790,2807 8810,2807 8833,2807 8850,2814 8863,2830 8875,2846 8881,2869 8881,2899 8881,2935 8875,2962 8862,2981 8849,3000 8830,3009 8807,3010 8788,3009 8773,3005 8762,2995 8752,2985 8746,2972 8746,2956 Z"/>
       </g>
      </g>
      <g class="com.sun.star.drawing.ClosedBezierShape">
       <g id="id106">
        <path fill="rgb(0,0,0)" stroke="none" d="M 8912,3004 C 8912,2936 8912,2868 8912,2801 8920,2801 8929,2801 8937,2801 8937,2868 8937,2936 8937,3004 8929,3004 8920,3004 8912,3004 Z"/>
       </g>
      </g>
     </g>
     <g class="com.sun.star.drawing.LineShape">
      <g id="id107">
       <path fill="none" stroke="rgb(0,0,0)" stroke-width="20" stroke-linejoin="round" d="M 8715,3500 L 8885,3500"/>
       <path fill="rgb(0,0,0)" stroke="none" d="M 8500,3500 L 8725,3575 8725,3425 8500,3500 Z"/>
       <path fill="rgb(0,0,0)" stroke="none" d="M 9100,3500 L 8875,3425 8875,3575 9100,3500 Z"/>
      </g>
     </g>
     <g class="Group">
      <g class="com.sun.star.drawing.ClosedBezierShape">
       <g id="id108">
        <path fill="rgb(0,0,0)" stroke="none" d="M 9233,3538 C 9233,3549 9236,3557 9242,3563 9249,3569 9257,3572 9268,3572 9279,3572 9287,3569 9294,3563 9300,3557 9303,3549 9303,3538 9303,3529 9300,3521 9294,3515 9287,3510 9279,3507 9268,3507 9257,3507 9248,3510 9242,3515 9236,3521 9233,3529 9233,3538 Z M 9238,3463 C 9238,3471 9241,3477 9246,3482 9251,3487 9259,3489 9268,3489 9276,3489 9284,3487 9289,3482 9294,3477 9297,3471 9297,3463 9297,3455 9294,3449 9289,3445 9284,3440 9277,3438 9268,3438 9258,3438 9251,3440 9246,3445 9241,3449 9238,3455 9238,3463 Z M 9238,3496 C 9230,3493 9224,3488 9221,3482 9217,3476 9215,3469 9215,3461 9215,3448 9220,3438 9230,3430 9239,3422 9252,3418 9268,3418 9284,3418 9297,3422 9306,3430 9316,3438 9321,3448 9321,3461 9321,3469 9319,3476 9315,3482 9311,3488 9306,3493 9298,3496 9307,3500 9315,3505 9320,3512 9325,3520 9327,3528 9327,3539 9327,3555 9322,3569 9311,3578 9300,3588 9286,3593 9268,3593 9250,3593 9235,3588 9225,3578 9214,3569 9209,3555 9209,3539 9209,3528 9211,3520 9216,3512 9221,3505 9228,3500 9238,3496 Z"/>
       </g>
      </g>
      <g class="com.sun.star.drawing.ClosedBezierShape">
       <g id="id109">
        <path fill="rgb(0,0,0)" stroke="none" d="M 9441,3524 C 9441,3540 9444,3552 9451,3560 9457,3569 9467,3573 9479,3573 9491,3573 9500,3569 9507,3561 9514,3552 9517,3541 9517,3527 9517,3511 9514,3499 9507,3490 9501,3481 9491,3477 9479,3477 9466,3477 9457,3481 9451,3489 9444,3497 9441,3508 9441,3524 Z M 9420,3589 L 9420,3411 9442,3411 9442,3480 C 9447,3472 9453,3467 9460,3463 9467,3459 9475,3457 9483,3457 9500,3457 9514,3463 9525,3475 9535,3488 9540,3504 9540,3525 9540,3545 9535,3562 9525,3574 9514,3586 9501,3592 9484,3592 9475,3592 9467,3590 9460,3587 9453,3584 9447,3579 9442,3572 L 9442,3589 9420,3589 Z"/>
       </g>
      </g>
      <g class="com.sun.star.drawing.ClosedBezierShape">
       <g id="id110">
        <path fill="rgb(0,0,0)" stroke="none" d="M 9564,3436 C 9564,3428 9564,3419 9564,3411 9571,3411 9579,3411 9586,3411 9586,3419 9586,3428 9586,3436 9579,3436 9571,3436 9564,3436 Z M 9564,3589 C 9564,3546 9564,3503 9564,3460 9571,3460 9579,3460 9586,3460 9586,3503 9586,3546 9586,3589 9579,3589 9571,3589 9564,3589 Z"/>
       </g>
      </g>
      <g class="com.sun.star.drawing.ClosedBezierShape">
       <g id="id111">
        <path fill="rgb(0,0,0)" stroke="none" d="M 9644,3557 C 9644,3562 9645,3566 9646,3568 9648,3570 9651,3571 9655,3571 9657,3571 9658,3571 9660,3571 9662,3571 9664,3571 9667,3570 L 9667,3589 C 9663,3590 9660,3590 9657,3591 9654,3591 9652,3591 9650,3591 9639,3591 9632,3589 9628,3585 9624,3581 9622,3574 9622,3564 L 9622,3477 9603,3477 9603,3460 9622,3460 9622,3424 9644,3424 9644,3460 9667,3460 9667,3477 9644,3477 9644,3557 Z"/>
       </g>
      </g>
      <g class="com.sun.star.drawing.ClosedBezierShape">
       <g id="id112">
        <path fill="rgb(0,0,0)" stroke="none" d="M 9678,3547 L 9699,3547 C 9700,3556 9703,3562 9708,3566 9714,3571 9722,3573 9732,3573 9741,3573 9749,3571 9754,3568 9759,3564 9762,3559 9762,3553 9762,3548 9761,3545 9758,3542 9755,3540 9749,3538 9741,3536 L 9717,3530 C 9703,3527 9694,3522 9689,3517 9684,3511 9681,3504 9681,3494 9681,3483 9685,3474 9694,3467 9702,3460 9714,3457 9729,3457 9744,3457 9756,3461 9765,3468 9774,3475 9779,3484 9779,3497 L 9779,3497 9758,3497 C 9758,3490 9755,3485 9750,3481 9745,3478 9738,3476 9729,3476 9720,3476 9713,3477 9709,3480 9704,3483 9702,3488 9702,3494 9702,3498 9703,3501 9706,3503 9709,3506 9714,3508 9722,3509 L 9743,3514 C 9758,3518 9769,3522 9774,3527 9780,3533 9783,3540 9783,3550 9783,3564 9778,3574 9769,3581 9760,3588 9746,3592 9730,3592 9713,3592 9700,3588 9692,3580 9683,3573 9678,3562 9678,3547 Z"/>
       </g>
      </g>
     </g>
     <g class="com.sun.star.drawing.LineShape">
      <g id="id113">
       <path fill="none" stroke="rgb(0,0,0)" stroke-width="20" stroke-linejoin="round" d="M 8115,3900 L 8885,3900"/>
       <path fill="rgb(0,0,0)" stroke="none" d="M 7900,3900 L 8125,3975 8125,3825 7900,3900 Z"/>
       <path fill="rgb(0,0,0)" stroke="none" d="M 9100,3900 L 8875,3825 8875,3975 9100,3900 Z"/>
      </g>
     </g>
     <g class="Group">
      <g class="com.sun.star.drawing.ClosedBezierShape">
       <g id="id114">
        <path fill="rgb(0,0,0)" stroke="none" d="M 9263,3989 L 9263,3869 9223,3869 9223,3852 C 9237,3852 9248,3849 9256,3844 9263,3838 9267,3830 9269,3818 L 9285,3818 9285,3989 9263,3989 Z"/>
       </g>
      </g>
      <g class="com.sun.star.drawing.ClosedBezierShape">
       <g id="id115">
        <path fill="rgb(0,0,0)" stroke="none" d="M 9439,3936 C 9439,3924 9436,3916 9430,3909 9424,3902 9416,3899 9406,3899 9395,3899 9386,3902 9380,3909 9373,3915 9370,3924 9370,3936 9370,3947 9373,3956 9380,3963 9386,3970 9394,3973 9405,3973 9415,3973 9423,3970 9430,3963 9436,3956 9439,3947 9439,3936 Z M 9462,3866 L 9439,3866 C 9438,3857 9435,3850 9430,3845 9425,3840 9418,3838 9408,3838 9396,3838 9386,3843 9380,3853 9373,3863 9369,3878 9368,3898 9373,3892 9379,3887 9386,3884 9392,3881 9400,3879 9408,3879 9425,3879 9438,3884 9448,3895 9458,3905 9463,3919 9463,3936 9463,3953 9458,3967 9447,3977 9436,3988 9422,3993 9405,3993 9385,3993 9370,3986 9359,3972 9348,3959 9343,3939 9343,3913 9343,3883 9349,3859 9360,3843 9371,3826 9387,3818 9408,3818 9424,3818 9437,3822 9446,3830 9456,3839 9461,3851 9462,3866 Z"/>
       </g>
      </g>
      <g class="com.sun.star.drawing.ClosedBezierShape">
       <g id="id116">
        <path fill="rgb(0,0,0)" stroke="none" d="M 9577,3924 C 9577,3940 9580,3952 9587,3960 9593,3969 9603,3973 9615,3973 9627,3973 9636,3969 9643,3961 9650,3952 9653,3941 9653,3927 9653,3911 9650,3899 9643,3890 9637,3881 9627,3877 9615,3877 9602,3877 9593,3881 9587,3889 9580,3897 9577,3908 9577,3924 Z M 9556,3989 L 9556,3811 9578,3811 9578,3880 C 9583,3872 9589,3867 9596,3863 9603,3859 9611,3857 9619,3857 9636,3857 9650,3863 9660,3875 9671,3888 9676,3904 9676,3925 9676,3945 9671,3962 9661,3974 9650,3986 9637,3992 9620,3992 9611,3992 9603,3990 9596,3987 9589,3984 9583,3979 9578,3972 L 9578,3989 9556,3989 Z"/>
       </g>
      </g>
      <g class="com.sun.star.drawing.ClosedBezierShape">
       <g id="id117">
        <path fill="rgb(0,0,0)" stroke="none" d="M 9700,3836 C 9700,3828 9700,3819 9700,3811 9707,3811 9715,3811 9722,3811 9722,3819 9722,3828 9722,3836 9715,3836 9707,3836 9700,3836 Z M 9700,3989 C 9700,3946 9700,3903 9700,3860 9707,3860 9715,3860 9722,3860 9722,3903 9722,3946 9722,3989 9715,3989 9707,3989 9700,3989 Z"/>
       </g>
      </g>
      <g class="com.sun.star.drawing.ClosedBezierShape">
       <g id="id118">
        <path fill="rgb(0,0,0)" stroke="none" d="M 9780,3957 C 9780,3962 9781,3966 9782,3968 9784,3970 9787,3971 9791,3971 9793,3971 9794,3971 9796,3971 9798,3971 9800,3971 9803,3970 L 9803,3989 C 9799,3990 9796,3990 9793,3991 9790,3991 9788,3991 9786,3991 9775,3991 9768,3989 9764,3985 9760,3981 9758,3974 9758,3964 L 9758,3877 9739,3877 9739,3860 9758,3860 9758,3824 9780,3824 9780,3860 9803,3860 9803,3877 9780,3877 9780,3957 Z"/>
       </g>
      </g>
      <g class="com.sun.star.drawing.ClosedBezierShape">
       <g id="id119">
        <path fill="rgb(0,0,0)" stroke="none" d="M 9813,3947 L 9834,3947 C 9835,3956 9838,3962 9843,3966 9849,3971 9857,3973 9867,3973 9876,3973 9884,3971 9889,3968 9894,3964 9897,3959 9897,3953 9897,3948 9896,3945 9893,3942 9890,3940 9884,3938 9876,3936 L 9852,3930 C 9838,3927 9829,3922 9824,3917 9819,3911 9816,3904 9816,3894 9816,3883 9820,3874 9829,3867 9837,3860 9849,3857 9864,3857 9879,3857 9891,3861 9900,3868 9909,3875 9914,3884 9914,3897 L 9914,3897 9893,3897 C 9893,3890 9890,3885 9885,3881 9880,3878 9873,3876 9864,3876 9855,3876 9848,3877 9844,3880 9839,3883 9837,3888 9837,3894 9837,3898 9838,3901 9841,3903 9844,3906 9849,3908 9857,3909 L 9878,3914 C 9893,3918 9904,3922 9909,3927 9915,3933 9918,3940 9918,3950 9918,3964 9913,3974 9904,3981 9895,3988 9881,3992 9865,3992 9848,3992 9835,3988 9827,3980 9818,3973 9813,3962 9813,3947 Z"/>
       </g>
      </g>
     </g>
     <g class="com.sun.star.drawing.LineShape">
      <g id="id120">
       <path fill="none" stroke="rgb(0,0,0)" stroke-width="20" stroke-linejoin="round" d="M 6915,4300 L 8885,4300"/>
       <path fill="rgb(0,0,0)" stroke="none" d="M 6700,4300 L 6925,4375 6925,4225 6700,4300 Z"/>
       <path fill="rgb(0,0,0)" stroke="none" d="M 9100,4300 L 8875,4225 8875,4375 9100,4300 Z"/>
      </g>
     </g>
     <g class="Group">
      <g class="com.sun.star.drawing.ClosedBezierShape">
       <g id="id121">
        <path fill="rgb(0,0,0)" stroke="none" d="M 9206,4334 L 9228,4334 C 9228,4346 9232,4356 9238,4362 9245,4369 9254,4372 9265,4372 9277,4372 9286,4369 9292,4363 9299,4357 9302,4349 9302,4339 9302,4329 9299,4322 9292,4317 9286,4312 9277,4309 9266,4309 9263,4309 9259,4309 9254,4309 L 9253,4310 9253,4290 C 9254,4290 9255,4290 9257,4290 9258,4290 9259,4290 9261,4290 9273,4290 9282,4288 9288,4284 9293,4280 9296,4273 9296,4264 9296,4256 9293,4249 9288,4245 9283,4240 9275,4238 9265,4238 9254,4238 9246,4241 9240,4247 9235,4254 9232,4263 9232,4275 L 9210,4275 9210,4274 C 9210,4257 9215,4243 9225,4233 9235,4223 9248,4218 9264,4218 9282,4218 9296,4222 9305,4230 9315,4238 9320,4249 9320,4263 9320,4271 9318,4278 9314,4284 9311,4290 9305,4294 9298,4297 9307,4300 9314,4306 9319,4313 9324,4320 9326,4328 9326,4339 9326,4355 9320,4368 9309,4378 9298,4388 9283,4393 9264,4393 9246,4393 9232,4388 9222,4377 9211,4367 9206,4353 9206,4335 L 9206,4334 Z"/>
       </g>
      </g>
      <g class="com.sun.star.drawing.ClosedBezierShape">
       <g id="id122">
        <path fill="rgb(0,0,0)" stroke="none" d="M 9342,4389 L 9342,4388 C 9342,4371 9346,4357 9354,4346 9362,4335 9377,4324 9397,4313 L 9412,4305 C 9420,4300 9427,4295 9431,4289 9435,4283 9437,4277 9437,4269 9437,4260 9434,4253 9428,4247 9422,4242 9413,4239 9403,4239 9392,4239 9384,4242 9378,4249 9372,4256 9369,4266 9369,4278 L 9369,4280 9346,4280 9346,4277 C 9346,4259 9351,4244 9361,4234 9372,4223 9386,4218 9403,4218 9420,4218 9434,4223 9444,4232 9455,4241 9460,4254 9460,4269 9460,4280 9457,4291 9451,4299 9445,4308 9436,4316 9423,4322 L 9409,4330 C 9396,4336 9386,4343 9380,4349 9374,4354 9369,4361 9367,4368 L 9460,4368 9460,4389 9342,4389 Z"/>
       </g>
      </g>
      <g class="com.sun.star.drawing.ClosedBezierShape">
       <g id="id123">
        <path fill="rgb(0,0,0)" stroke="none" d="M 9577,4324 C 9577,4340 9580,4352 9587,4360 9593,4369 9603,4373 9615,4373 9627,4373 9636,4369 9643,4361 9650,4352 9653,4341 9653,4327 9653,4311 9650,4299 9643,4290 9637,4281 9627,4277 9615,4277 9602,4277 9593,4281 9587,4289 9580,4297 9577,4308 9577,4324 Z M 9556,4389 L 9556,4211 9578,4211 9578,4280 C 9583,4272 9589,4267 9596,4263 9603,4259 9611,4257 9619,4257 9636,4257 9650,4263 9660,4275 9671,4288 9676,4304 9676,4325 9676,4345 9671,4362 9661,4374 9650,4386 9637,4392 9620,4392 9611,4392 9603,4390 9596,4387 9589,4384 9583,4379 9578,4372 L 9578,4389 9556,4389 Z"/>
       </g>
      </g>
      <g class="com.sun.star.drawing.ClosedBezierShape">
       <g id="id124">
        <path fill="rgb(0,0,0)" stroke="none" d="M 9700,4236 C 9700,4228 9700,4219 9700,4211 9707,4211 9715,4211 9722,4211 9722,4219 9722,4228 9722,4236 9715,4236 9707,4236 9700,4236 Z M 9700,4389 C 9700,4346 9700,4303 9700,4260 9707,4260 9715,4260 9722,4260 9722,4303 9722,4346 9722,4389 9715,4389 9707,4389 9700,4389 Z"/>
       </g>
      </g>
      <g class="com.sun.star.drawing.ClosedBezierShape">
       <g id="id125">
        <path fill="rgb(0,0,0)" stroke="none" d="M 9780,4357 C 9780,4362 9781,4366 9782,4368 9784,4370 9787,4371 9791,4371 9793,4371 9794,4371 9796,4371 9798,4371 9800,4371 9803,4370 L 9803,4389 C 9799,4390 9796,4390 9793,4391 9790,4391 9788,4391 9786,4391 9775,4391 9768,4389 9764,4385 9760,4381 9758,4374 9758,4364 L 9758,4277 9739,4277 9739,4260 9758,4260 9758,4224 9780,4224 9780,4260 9803,4260 9803,4277 9780,4277 9780,4357 Z"/>
       </g>
      </g>
      <g class="com.sun.star.drawing.ClosedBezierShape">
       <g id="id126">
        <path fill="rgb(0,0,0)" stroke="none" d="M 9813,4347 L 9834,4347 C 9835,4356 9838,4362 9843,4366 9849,4371 9857,4373 9867,4373 9876,4373 9884,4371 9889,4368 9894,4364 9897,4359 9897,4353 9897,4348 9896,4345 9893,4342 9890,4340 9884,4338 9876,4336 L 9852,4330 C 9838,4327 9829,4322 9824,4317 9819,4311 9816,4304 9816,4294 9816,4283 9820,4274 9829,4267 9837,4260 9849,4257 9864,4257 9879,4257 9891,4261 9900,4268 9909,4275 9914,4284 9914,4297 L 9914,4297 9893,4297 C 9893,4290 9890,4285 9885,4281 9880,4278 9873,4276 9864,4276 9855,4276 9848,4277 9844,4280 9839,4283 9837,4288 9837,4294 9837,4298 9838,4301 9841,4303 9844,4306 9849,4308 9857,4309 L 9878,4314 C 9893,4318 9904,4322 9909,4327 9915,4333 9918,4340 9918,4350 9918,4364 9913,4374 9904,4381 9895,4388 9881,4392 9865,4392 9848,4392 9835,4388 9827,4380 9818,4373 9813,4362 9813,4347 Z"/>
       </g>
      </g>
     </g>
     <g class="com.sun.star.drawing.LineShape">
      <g id="id127">
       <path fill="none" stroke="rgb(0,0,0)" stroke-width="20" stroke-linejoin="round" d="M 4515,4700 L 8885,4700"/>
       <path fill="rgb(0,0,0)" stroke="none" d="M 4300,4700 L 4525,4775 4525,4625 4300,4700 Z"/>
       <path fill="rgb(0,0,0)" stroke="none" d="M 9100,4700 L 8875,4625 8875,4775 9100,4700 Z"/>
      </g>
     </g>
     <g class="Group">
      <g class="com.sun.star.drawing.ClosedBezierShape">
       <g id="id128">
        <path fill="rgb(0,0,0)" stroke="none" d="M 9304,4736 C 9304,4724 9301,4716 9295,4709 9289,4702 9281,4699 9271,4699 9260,4699 9251,4702 9245,4709 9238,4715 9235,4724 9235,4736 9235,4747 9238,4756 9245,4763 9251,4770 9259,4773 9270,4773 9280,4773 9288,4770 9295,4763 9301,4756 9304,4747 9304,4736 Z M 9327,4666 L 9304,4666 C 9303,4657 9300,4650 9295,4645 9290,4640 9283,4638 9273,4638 9261,4638 9251,4643 9245,4653 9238,4663 9234,4678 9233,4698 9238,4692 9244,4687 9251,4684 9257,4681 9265,4679 9273,4679 9290,4679 9303,4684 9313,4695 9323,4705 9328,4719 9328,4736 9328,4753 9323,4767 9312,4777 9301,4788 9287,4793 9270,4793 9250,4793 9235,4786 9224,4772 9213,4759 9208,4739 9208,4713 9208,4683 9214,4659 9225,4643 9236,4626 9252,4618 9273,4618 9289,4618 9302,4622 9311,4630 9321,4639 9326,4651 9327,4666 Z"/>
       </g>
      </g>
      <g class="com.sun.star.drawing.ClosedBezierShape">
       <g id="id129">
        <path fill="rgb(0,0,0)" stroke="none" d="M 9362,4726 C 9380,4726 9398,4726 9416,4726 9416,4701 9416,4675 9416,4650 9398,4675 9380,4701 9362,4726 Z M 9416,4789 C 9416,4775 9416,4760 9416,4746 9391,4746 9366,4746 9341,4746 9341,4739 9341,4732 9341,4724 9366,4690 9391,4655 9416,4621 9423,4621 9431,4621 9438,4621 9438,4656 9438,4691 9438,4726 9446,4726 9455,4726 9463,4726 9463,4733 9463,4739 9463,4746 9455,4746 9446,4746 9438,4746 9438,4760 9438,4775 9438,4789 9431,4789 9423,4789 9416,4789 Z"/>
       </g>
      </g>
      <g class="com.sun.star.drawing.ClosedBezierShape">
       <g id="id130">
        <path fill="rgb(0,0,0)" stroke="none" d="M 9577,4724 C 9577,4740 9580,4752 9587,4760 9593,4769 9603,4773 9615,4773 9627,4773 9636,4769 9643,4761 9650,4752 9653,4741 9653,4727 9653,4711 9650,4699 9643,4690 9637,4681 9627,4677 9615,4677 9602,4677 9593,4681 9587,4689 9580,4697 9577,4708 9577,4724 Z M 9556,4789 L 9556,4611 9578,4611 9578,4680 C 9583,4672 9589,4667 9596,4663 9603,4659 9611,4657 9619,4657 9636,4657 9650,4663 9660,4675 9671,4688 9676,4704 9676,4725 9676,4745 9671,4762 9661,4774 9650,4786 9637,4792 9620,4792 9611,4792 9603,4790 9596,4787 9589,4784 9583,4779 9578,4772 L 9578,4789 9556,4789 Z"/>
       </g>
      </g>
      <g class="com.sun.star.drawing.ClosedBezierShape">
       <g id="id131">
        <path fill="rgb(0,0,0)" stroke="none" d="M 9700,4636 C 9700,4628 9700,4619 9700,4611 9707,4611 9715,4611 9722,4611 9722,4619 9722,4628 9722,4636 9715,4636 9707,4636 9700,4636 Z M 9700,4789 C 9700,4746 9700,4703 9700,4660 9707,4660 9715,4660 9722,4660 9722,4703 9722,4746 9722,4789 9715,4789 9707,4789 9700,4789 Z"/>
       </g>
      </g>
      <g class="com.sun.star.drawing.ClosedBezierShape">
       <g id="id132">
        <path fill="rgb(0,0,0)" stroke="none" d="M 9780,4757 C 9780,4762 9781,4766 9782,4768 9784,4770 9787,4771 9791,4771 9793,4771 9794,4771 9796,4771 9798,4771 9800,4771 9803,4770 L 9803,4789 C 9799,4790 9796,4790 9793,4791 9790,4791 9788,4791 9786,4791 9775,4791 9768,4789 9764,4785 9760,4781 9758,4774 9758,4764 L 9758,4677 9739,4677 9739,4660 9758,4660 9758,4624 9780,4624 9780,4660 9803,4660 9803,4677 9780,4677 9780,4757 Z"/>
       </g>
      </g>
      <g class="com.sun.star.drawing.ClosedBezierShape">
       <g id="id133">
        <path fill="rgb(0,0,0)" stroke="none" d="M 9813,4747 L 9834,4747 C 9835,4756 9838,4762 9843,4766 9849,4771 9857,4773 9867,4773 9876,4773 9884,4771 9889,4768 9894,4764 9897,4759 9897,4753 9897,4748 9896,4745 9893,4742 9890,4740 9884,4738 9876,4736 L 9852,4730 C 9838,4727 9829,4722 9824,4717 9819,4711 9816,4704 9816,4694 9816,4683 9820,4674 9829,4667 9837,4660 9849,4657 9864,4657 9879,4657 9891,4661 9900,4668 9909,4675 9914,4684 9914,4697 L 9914,4697 9893,4697 C 9893,4690 9890,4685 9885,4681 9880,4678 9873,4676 9864,4676 9855,4676 9848,4677 9844,4680 9839,4683 9837,4688 9837,4694 9837,4698 9838,4701 9841,4703 9844,4706 9849,4708 9857,4709 L 9878,4714 C 9893,4718 9904,4722 9909,4727 9915,4733 9918,4740 9918,4750 9918,4764 9913,4774 9904,4781 9895,4788 9881,4792 9865,4792 9848,4792 9835,4788 9827,4780 9818,4773 9813,4762 9813,4747 Z"/>
       </g>
      </g>
     </g>
     <g class="Group">
      <g class="com.sun.star.drawing.ClosedBezierShape">
       <g id="id134">
        <path fill="rgb(0,0,0)" stroke="none" d="M 5452,806 L 5492,806 C 5492,828 5500,845 5514,858 5528,871 5547,878 5571,878 5595,878 5613,873 5627,863 5640,853 5647,840 5647,823 5647,800 5622,782 5571,770 5568,769 5565,769 5564,768 5522,758 5495,747 5482,735 5469,723 5462,706 5462,684 5462,657 5472,635 5492,619 5511,602 5538,594 5571,594 5604,594 5631,603 5650,620 5669,637 5679,661 5679,691 L 5640,691 C 5639,671 5632,655 5619,644 5607,633 5590,628 5568,628 5548,628 5531,632 5519,641 5507,650 5501,662 5501,677 5501,700 5526,718 5576,729 5584,731 5590,733 5594,734 5594,734 5596,734 5598,735 5631,742 5652,751 5663,760 5671,767 5677,775 5682,785 5686,795 5688,806 5688,818 5688,847 5678,871 5657,888 5636,905 5607,914 5571,914 5534,914 5506,905 5485,886 5465,867 5454,841 5452,806 Z"/>
       </g>
      </g>
      <g class="com.sun.star.drawing.ClosedBezierShape">
       <g id="id135">
        <path fill="rgb(0,0,0)" stroke="none" d="M 5774,685 L 5774,821 C 5774,843 5777,858 5784,866 5791,875 5803,879 5819,879 5840,879 5856,873 5867,860 5878,847 5884,829 5884,804 L 5884,685 5921,685 5921,906 5886,906 5886,873 C 5878,886 5868,896 5856,902 5843,909 5829,912 5812,912 5797,912 5783,909 5772,904 5761,899 5752,891 5746,882 5742,876 5740,870 5738,863 5737,856 5736,844 5736,829 L 5736,818 5736,685 5774,685 Z"/>
       </g>
      </g>
      <g class="com.sun.star.drawing.ClosedBezierShape">
       <g id="id136">
        <path fill="rgb(0,0,0)" stroke="none" d="M 6014,794 C 6014,822 6020,843 6031,858 6042,873 6058,880 6079,880 6100,880 6116,873 6127,858 6139,844 6145,824 6145,799 6145,771 6139,749 6128,734 6117,719 6101,711 6080,711 6058,711 6041,718 6030,732 6019,746 6014,766 6014,794 Z M 5979,906 L 5979,602 6015,602 6015,716 C 6024,703 6034,694 6046,687 6058,681 6072,678 6087,678 6116,678 6140,689 6157,710 6175,732 6184,760 6184,796 6184,832 6175,860 6158,881 6140,902 6117,913 6087,913 6072,913 6058,910 6046,905 6035,899 6024,890 6015,878 L 6015,906 5979,906 Z"/>
       </g>
      </g>
      <g class="com.sun.star.drawing.ClosedBezierShape">
       <g id="id137">
        <path fill="rgb(0,0,0)" stroke="none" d="M 6215,811 C 6215,800 6215,789 6215,778 6249,778 6283,778 6317,778 6317,789 6317,800 6317,811 6283,811 6249,811 6215,811 Z"/>
       </g>
      </g>
      <g class="com.sun.star.drawing.ClosedBezierShape">
       <g id="id138">
        <path fill="rgb(0,0,0)" stroke="none" d="M 6359,906 L 6359,685 6395,685 6395,724 C 6401,709 6409,698 6419,691 6429,684 6441,680 6456,680 6459,680 6461,680 6462,680 6464,680 6465,680 6466,681 L 6466,719 C 6465,719 6464,719 6463,719 6461,719 6460,719 6457,719 6437,719 6422,724 6412,735 6401,746 6396,762 6396,783 L 6396,906 6359,906 Z"/>
       </g>
      </g>
      <g class="com.sun.star.drawing.ClosedBezierShape">
       <g id="id139">
        <path fill="rgb(0,0,0)" stroke="none" d="M 6528,776 L 6649,776 C 6649,755 6644,739 6633,728 6623,717 6608,711 6590,711 6571,711 6557,717 6546,728 6536,739 6530,755 6528,776 Z M 6648,835 L 6685,835 C 6681,859 6670,878 6653,892 6636,906 6614,913 6588,913 6558,913 6533,903 6516,882 6498,862 6489,833 6489,798 6489,760 6498,731 6515,710 6533,689 6557,678 6588,678 6620,678 6645,688 6662,707 6679,727 6688,755 6688,790 6688,795 6688,798 6688,801 6688,803 6688,805 6687,807 L 6528,807 C 6529,830 6534,848 6545,860 6557,873 6572,879 6592,879 6607,879 6619,875 6629,868 6639,860 6645,849 6648,835 Z"/>
       </g>
      </g>
      <g class="com.sun.star.drawing.ClosedBezierShape">
       <g id="id140">
        <path fill="rgb(0,0,0)" stroke="none" d="M 6826,711 C 6805,711 6789,718 6778,733 6767,748 6761,768 6761,796 6761,822 6767,843 6778,858 6790,873 6806,880 6827,880 6849,880 6866,873 6877,860 6888,846 6893,825 6893,797 6893,769 6887,747 6876,733 6865,718 6848,711 6826,711 Z M 6892,879 C 6883,890 6873,899 6861,905 6850,910 6836,913 6821,913 6792,913 6767,902 6749,881 6731,859 6722,830 6722,795 6722,760 6731,731 6749,710 6768,689 6792,678 6822,678 6836,678 6849,681 6860,686 6872,692 6882,701 6891,713 L 6891,685 6928,685 6928,901 C 6928,935 6920,960 6904,975 6887,990 6861,998 6825,998 6795,998 6772,992 6756,981 6739,970 6731,954 6731,934 L 6731,932 6767,932 6767,933 C 6767,944 6772,953 6782,958 6791,964 6806,967 6826,967 6849,967 6866,963 6876,954 6887,945 6892,930 6892,909 L 6892,879 Z"/>
       </g>
      </g>
      <g class="com.sun.star.drawing.ClosedBezierShape">
       <g id="id141">
        <path fill="rgb(0,0,0)" stroke="none" d="M 6986,644 C 6986,630 6986,616 6986,602 6998,602 7011,602 7023,602 7023,616 7023,630 7023,644 7011,644 6998,644 6986,644 Z M 6986,906 C 6986,832 6986,759 6986,685 6998,685 7011,685 7023,685 7023,759 7023,832 7023,906 7011,906 6998,906 6986,906 Z"/>
       </g>
      </g>
      <g class="com.sun.star.drawing.ClosedBezierShape">
       <g id="id142">
        <path fill="rgb(0,0,0)" stroke="none" d="M 7064,834 L 7100,834 C 7101,849 7107,861 7116,868 7126,876 7139,880 7156,880 7172,880 7185,877 7194,871 7203,864 7208,856 7208,845 7208,837 7206,830 7201,826 7196,822 7187,818 7174,815 L 7132,804 C 7109,798 7093,791 7084,782 7075,772 7070,759 7070,742 7070,722 7077,707 7092,695 7107,684 7127,678 7153,678 7179,678 7200,684 7216,697 7231,709 7239,725 7239,746 L 7239,747 7203,747 C 7202,735 7197,726 7189,720 7180,713 7168,710 7153,710 7138,710 7126,713 7119,718 7111,723 7107,731 7107,741 7107,748 7109,754 7114,758 7119,762 7128,765 7142,768 L 7178,777 C 7203,783 7221,791 7231,800 7240,809 7245,823 7245,840 7245,863 7237,881 7221,894 7205,907 7182,913 7153,913 7124,913 7103,906 7087,893 7072,879 7064,860 7064,834 Z"/>
       </g>
      </g>
      <g class="com.sun.star.drawing.ClosedBezierShape">
       <g id="id143">
        <path fill="rgb(0,0,0)" stroke="none" d="M 7335,850 C 7335,860 7336,867 7339,870 7342,873 7347,875 7355,875 7357,875 7360,875 7363,875 7366,875 7370,874 7375,874 L 7375,906 C 7369,907 7363,908 7358,908 7353,909 7349,909 7345,909 7328,909 7316,906 7309,899 7302,892 7298,880 7298,863 L 7298,715 7265,715 7265,685 7298,685 7298,623 7335,623 7335,685 7375,685 7375,715 7335,715 7335,850 Z"/>
       </g>
      </g>
      <g class="com.sun.star.drawing.ClosedBezierShape">
       <g id="id144">
        <path fill="rgb(0,0,0)" stroke="none" d="M 7438,776 L 7559,776 C 7559,755 7554,739 7543,728 7533,717 7518,711 7500,711 7481,711 7467,717 7456,728 7446,739 7440,755 7438,776 Z M 7558,835 L 7595,835 C 7591,859 7580,878 7563,892 7546,906 7524,913 7498,913 7468,913 7443,903 7426,882 7408,862 7399,833 7399,798 7399,760 7408,731 7425,710 7443,689 7467,678 7498,678 7530,678 7555,688 7572,707 7589,727 7598,755 7598,790 7598,795 7598,798 7598,801 7598,803 7598,805 7597,807 L 7438,807 C 7439,830 7444,848 7455,860 7467,873 7482,879 7502,879 7517,879 7529,875 7539,868 7549,860 7555,849 7558,835 Z"/>
       </g>
      </g>
      <g class="com.sun.star.drawing.ClosedBezierShape">
       <g id="id145">
        <path fill="rgb(0,0,0)" stroke="none" d="M 7642,906 L 7642,685 7678,685 7678,724 C 7684,709 7692,698 7702,691 7712,684 7724,680 7739,680 7742,680 7744,680 7745,680 7747,680 7748,680 7749,681 L 7749,719 C 7748,719 7747,719 7746,719 7744,719 7743,719 7740,719 7720,719 7705,724 7695,735 7684,746 7679,762 7679,783 L 7679,906 7642,906 Z"/>
       </g>
      </g>
      <g class="com.sun.star.drawing.ClosedBezierShape">
       <g id="id146">
        <path fill="rgb(0,0,0)" stroke="none" d="M 7767,834 L 7803,834 C 7804,849 7810,861 7819,868 7829,876 7842,880 7859,880 7875,880 7888,877 7897,871 7906,864 7911,856 7911,845 7911,837 7909,830 7904,826 7899,822 7890,818 7877,815 L 7835,804 C 7812,798 7796,791 7787,782 7778,772 7773,759 7773,742 7773,722 7780,707 7795,695 7810,684 7830,678 7856,678 7882,678 7903,684 7919,697 7934,709 7942,725 7942,746 L 7942,747 7906,747 C 7905,735 7900,726 7892,720 7883,713 7871,710 7856,710 7841,710 7829,713 7822,718 7814,723 7810,731 7810,741 7810,748 7812,754 7817,758 7822,762 7831,765 7845,768 L 7881,777 C 7906,783 7924,791 7934,800 7943,809 7948,823 7948,840 7948,863 7940,881 7924,894 7908,907 7885,913 7856,913 7827,913 7806,906 7790,893 7775,879 7767,860 7767,834 Z"/>
       </g>
      </g>
     </g>
    </g>
   </g>
  </g>
 </g>
</svg>
