<?xml version="1.0" standalone="no"?>
<!DOCTYPE svg PUBLIC "-//W3C//DTD SVG 20010904//EN"
 "http://www.w3.org/TR/2001/REC-SVG-20010904/DTD/svg10.dtd">
<svg version="1.0" xmlns="http://www.w3.org/2000/svg"
 width="700.000000pt" height="700.000000pt" viewBox="0 0 700.000000 700.000000"
 preserveAspectRatio="xMidYMid meet">
<metadata>
Created by potrace 1.11, written by Peter Selinger 2001-2013
</metadata>
<g transform="translate(0.000000,700.000000) scale(0.100000,-0.100000)"
fill="#000000" stroke="none">
<path d="M984 6096 c-2 -6 -3 -1208 -2 -2671 l3 -2660 328 0 327 0 0 35 c1 46
1 5213 0 5266 l0 40 -326 0 c-221 0 -327 -3 -330 -10z"/>
<path d="M1975 6101 c-3 -2 -5 -1204 -5 -2670 l0 -2666 443 0 442 0 3 1153 2
1152 1009 0 1009 0 0 -1144 c0 -629 2 -1148 5 -1153 3 -4 241 -8 529 -8 l523
0 0 2670 0 2670 -523 1 c-293 0 -526 -4 -529 -9 -3 -5 -5 -478 -5 -1052 l0
-1043 -1009 0 -1009 0 0 1052 0 1052 -440 0 c-242 0 -443 -2 -445 -5z"/>
</g>
</svg>
