<svg version="1.1" xmlns="http://www.w3.org/2000/svg" viewBox="0 0 964.4138523983063 298.54010091290917" width="964.4138523983063" height="298.54010091290917">
  <!-- svg-source:excalidraw -->
  
  <defs>
    <style class="style-fonts">
      @font-face {
        font-family: "Virgil";
        src: url("https://excalidraw.com/Virgil.woff2");
      }
      @font-face {
        font-family: "Cascadia";
        src: url("https://excalidraw.com/Cascadia.woff2");
      }
      @font-face {
        font-family: "Assistant";
        src: url("https://excalidraw.com/Assistant-Regular.woff2");
      }
    </style>
    
  </defs>
  <rect x="0" y="0" width="964.4138523983063" height="298.54010091290917" fill="#ffffff"></rect><g stroke-linecap="round"><g transform="translate(10 252.76128570352614) rotate(0 465.2384826413071 0)"><path d="M0 0 C251.21 0, 502.42 0, 930.48 0 M0 0 C276.87 0, 553.73 0, 930.48 0" stroke="#1e1e1e" stroke-width="2" fill="none"></path></g><g transform="translate(10 252.76128570352614) rotate(0 465.2384826413071 0)"><path d="M906.98 8.55 C913.33 6.24, 919.67 3.93, 930.48 0 M906.98 8.55 C913.97 6.01, 920.97 3.46, 930.48 0" stroke="#1e1e1e" stroke-width="2" fill="none"></path></g><g transform="translate(10 252.76128570352614) rotate(0 465.2384826413071 0)"><path d="M906.98 -8.55 C913.33 -6.24, 919.67 -3.93, 930.48 0 M906.98 -8.55 C913.97 -6.01, 920.97 -3.46, 930.48 0" stroke="#1e1e1e" stroke-width="2" fill="none"></path></g></g><mask></mask><g stroke-linecap="round" transform="translate(26.468538172388435 213.06795499999998) rotate(0 60.24661866069005 18.194677843895377)"><path d="M0 0 C0 0, 0 0, 0 0 M0 0 C0 0, 0 0, 0 0 M-0.26 6.4 C0.44 5.08, 1.94 3.4, 4.99 0.36 M-0.26 6.4 C1.22 5.42, 2.35 3.34, 4.99 0.36 M0.13 12.04 C5.13 7.95, 8.6 3.92, 10.63 -0.03 M0.13 12.04 C2.99 7.85, 6.11 5.06, 10.63 -0.03 M-0.13 18.44 C2.49 14.08, 5.8 7.83, 15.62 0.33 M-0.13 18.44 C4.98 13.72, 8.12 8.18, 15.62 0.33 M0.27 24.08 C8.66 16.77, 13.45 9.57, 21.26 -0.07 M0.27 24.08 C7.16 16.82, 12.57 8.98, 21.26 -0.07 M0 30.48 C6.48 22.21, 14.25 16.24, 26.25 0.29 M0 30.48 C5.63 24.97, 11.37 17.82, 26.25 0.29 M0.4 36.12 C7.94 27.99, 18.22 16.38, 31.89 -0.1 M0.4 36.12 C9.53 23.72, 20.3 12.87, 31.89 -0.1 M5.39 36.48 C12.1 28.19, 20.97 20.1, 36.88 0.26 M5.39 36.48 C13.87 26.06, 22.63 16.2, 36.88 0.26 M10.37 36.84 C21.46 25.41, 30.88 12.98, 42.52 -0.14 M10.37 36.84 C22.35 24.21, 32.11 11.07, 42.52 -0.14 M16.02 36.45 C27.56 26.2, 37.65 12.25, 47.51 0.22 M16.02 36.45 C22.99 28.46, 30.69 19.03, 47.51 0.22 M21 36.81 C34.7 22.25, 46.68 9.36, 53.15 -0.17 M21 36.81 C26.49 28.53, 35.07 20.94, 53.15 -0.17 M26.65 36.41 C35.78 29.56, 40.18 20.46, 58.14 0.19 M26.65 36.41 C35.57 25.95, 44.94 14.91, 58.14 0.19 M31.63 36.77 C43.59 23.05, 54.15 12.49, 63.78 -0.21 M31.63 36.77 C41.14 26.85, 48.87 17.08, 63.78 -0.21 M37.28 36.38 C44.45 29.11, 49.41 19.73, 68.77 0.15 M37.28 36.38 C47.98 25.22, 59.71 11.93, 68.77 0.15 M42.26 36.74 C51.11 28.89, 56.85 17.04, 74.41 -0.24 M42.26 36.74 C49.32 27.91, 57.27 19.62, 74.41 -0.24 M47.91 36.34 C54.31 25.42, 63.5 19.94, 79.4 0.12 M47.91 36.34 C55.84 26.29, 65.49 16.36, 79.4 0.12 M52.89 36.7 C60 28.1, 63.72 23.28, 85.04 -0.28 M52.89 36.7 C65.93 22.48, 78.86 6.99, 85.04 -0.28 M58.54 36.31 C71.37 21.58, 82.74 12.27, 90.03 0.08 M58.54 36.31 C66.87 25.74, 76 16.63, 90.03 0.08 M63.52 36.67 C70.57 28.85, 79.06 17.67, 95.67 -0.31 M63.52 36.67 C75.98 21.76, 88.78 8.78, 95.67 -0.31 M69.17 36.28 C75.42 25.12, 85.44 17.51, 100.66 0.05 M69.17 36.28 C76.02 27.36, 84.49 19.71, 100.66 0.05 M74.15 36.64 C88.34 20.5, 98.02 6.18, 106.3 -0.34 M74.15 36.64 C81.75 29.06, 87.96 20.39, 106.3 -0.34 M79.8 36.24 C92.62 22.28, 104.04 8.15, 111.29 0.02 M79.8 36.24 C86.88 29.47, 92.01 20.74, 111.29 0.02 M84.78 36.6 C93.92 23.28, 103.47 11.08, 116.27 0.38 M84.78 36.6 C92.56 28.65, 100.78 18.07, 116.27 0.38 M90.43 36.21 C96.79 28.53, 103.7 21.18, 120.61 1.49 M90.43 36.21 C102 23.58, 112.95 9.42, 120.61 1.49 M95.41 36.57 C100.15 28.27, 106.53 22.78, 120.34 7.89 M95.41 36.57 C104.99 25.5, 113.6 14.51, 120.34 7.89 M101.06 36.17 C110.16 26, 115.05 18.56, 120.74 13.53 M101.06 36.17 C107.44 28.41, 114.84 19.98, 120.74 13.53 M106.04 36.53 C107.3 31.33, 111.57 31.19, 120.48 19.93 M106.04 36.53 C110.63 30.58, 115.61 27.02, 120.48 19.93 M111.69 36.14 C114.21 32.7, 118.52 30.31, 120.22 26.33 M111.69 36.14 C114.52 33.28, 116.46 31.5, 120.22 26.33 M116.67 36.5 C118.19 35.21, 119.51 32.94, 120.61 31.97 M116.67 36.5 C117.62 35.12, 118.51 34.27, 120.61 31.97" stroke="#ffc9c9" stroke-width="0.5" fill="none"></path><path d="M0 0 C25.86 0.77, 50 -1.43, 120.49 0 M0 0 C39.5 0.58, 79.73 1.52, 120.49 0 M120.49 0 C121.96 8.32, 119.88 15.39, 120.49 36.39 M120.49 0 C119.59 13.12, 121.06 26.06, 120.49 36.39 M120.49 36.39 C76.05 34.87, 30.2 37.14, 0 36.39 M120.49 36.39 C79.3 37.17, 37.83 37.47, 0 36.39 M0 36.39 C-0.2 27.4, -0.65 17.46, 0 0 M0 36.39 C-0.27 26.39, -1.12 15.64, 0 0" stroke="transparent" stroke-width="1" fill="none"></path></g><g transform="translate(66.02765683307848 221.66263284389538) rotate(0 20.6875 9.600000000000001)"><text x="20.6875" y="15.45" font-family="Cascadia, Segoe UI Emoji" font-size="16px" fill="#1e1e1e" text-anchor="middle" style="white-space: pre;" direction="ltr" dominant-baseline="alphabetic">协程A</text></g><g transform="translate(922.4138523983063 269.3401009129092) rotate(0 16 9.6)"><text x="0" y="15.45" font-family="Cascadia, Segoe UI Emoji" font-size="16px" fill="#1e1e1e" text-anchor="start" style="white-space: pre;" direction="ltr" dominant-baseline="alphabetic">时间</text></g><g stroke-linecap="round"><g transform="translate(147.7524502656106 208.9879561752763) rotate(0 0.755520441510896 -27.10765443754181)"><path d="M0 0 C-0.37 -17.16, 2.35 -35.9, 1.51 -54.22 M0 0 C0.67 -14.7, 0.87 -30.09, 1.51 -54.22" stroke="#1e1e1e" stroke-width="1" fill="none"></path></g><g transform="translate(147.7524502656106 208.9879561752763) rotate(0 0.755520441510896 -27.10765443754181)"><path d="M3.15 -55.35 L6.19 -40.49 L-4.75 -38.97 L2.68 -55.15" stroke="none" stroke-width="0" fill="#1e1e1e" fill-rule="evenodd"></path><path d="M1.51 -54.22 C2.43 -48.51, 6.13 -43.94, 7.51 -40.47 M1.51 -54.22 C3.04 -49.66, 4.59 -45.67, 7.51 -40.47 M7.51 -40.47 C3.62 -39.34, -1.13 -41.84, -5.16 -40.78 M7.51 -40.47 C4.42 -40.13, 1.58 -40.46, -5.16 -40.78 M-5.16 -40.78 C-3.26 -44.54, -0.83 -47.81, 1.51 -54.22 M-5.16 -40.78 C-3.98 -44.01, -2.26 -47.14, 1.51 -54.22 M1.51 -54.22 C1.51 -54.22, 1.51 -54.22, 1.51 -54.22 M1.51 -54.22 C1.51 -54.22, 1.51 -54.22, 1.51 -54.22" stroke="#1e1e1e" stroke-width="1" fill="none"></path></g></g><mask></mask><g stroke-linecap="round" transform="translate(148.0865351723886 112.116423) rotate(0 60.246618660690075 18.194677843895377)"><path d="M0 0 C0 0, 0 0, 0 0 M0 0 C0 0, 0 0, 0 0 M-0.26 6.4 C1.24 4.27, 2.98 1.69, 4.99 0.36 M-0.26 6.4 C2 4.27, 4.04 1.75, 4.99 0.36 M0.13 12.04 C3.02 9.77, 5.03 5.56, 10.63 -0.03 M0.13 12.04 C3.96 7.33, 8.42 2.24, 10.63 -0.03 M-0.13 18.44 C2.86 15.55, 5.57 10.67, 15.62 0.33 M-0.13 18.44 C6.47 10.9, 13.52 4.63, 15.62 0.33 M0.27 24.08 C3.29 19.92, 10.92 13.35, 21.26 -0.07 M0.27 24.08 C8.06 15.37, 15.83 5.1, 21.26 -0.07 M0 30.48 C7.47 20.9, 15.35 10.84, 26.25 0.29 M0 30.48 C8.21 22.21, 16.95 12.07, 26.25 0.29 M0.4 36.12 C13.28 20.38, 23.73 7.53, 31.89 -0.1 M0.4 36.12 C8.49 26.78, 15.84 17.23, 31.89 -0.1 M5.39 36.48 C15.49 27.92, 20.73 15.4, 36.88 0.26 M5.39 36.48 C13.96 25.36, 25.01 15.95, 36.88 0.26 M10.37 36.84 C20.91 22.99, 32.19 10.05, 42.52 -0.14 M10.37 36.84 C20.46 23.81, 31.93 12.71, 42.52 -0.14 M16.02 36.45 C25.05 26, 36.18 14.26, 47.51 0.22 M16.02 36.45 C26.63 25.34, 36.32 12.74, 47.51 0.22 M21 36.81 C29.47 27.89, 33.27 20.49, 53.15 -0.17 M21 36.81 C31.6 27.11, 39.67 14.63, 53.15 -0.17 M26.65 36.41 C32.59 30, 40.63 21.9, 58.14 0.19 M26.65 36.41 C39.09 23.43, 50.34 8.29, 58.14 0.19 M31.63 36.77 C41.33 26.82, 51.2 16.37, 63.78 -0.21 M31.63 36.77 C39.55 27.73, 47.8 17.54, 63.78 -0.21 M37.28 36.38 C47.44 26.33, 56.74 15.57, 68.77 0.15 M37.28 36.38 C42.77 28.02, 49.9 22, 68.77 0.15 M42.26 36.74 C53.26 25.58, 65.72 11.27, 74.41 -0.24 M42.26 36.74 C49.68 26.52, 58.11 16.98, 74.41 -0.24 M47.91 36.34 C57 26.57, 66.21 15.2, 79.4 0.12 M47.91 36.34 C59.23 23.74, 69.83 11.88, 79.4 0.12 M52.89 36.7 C60.24 27.25, 69.96 16.11, 85.04 -0.28 M52.89 36.7 C60.07 27.95, 66.57 21.18, 85.04 -0.28 M58.54 36.31 C63.99 29.31, 72.26 20.4, 90.03 0.08 M58.54 36.31 C69.05 24.04, 79.21 12.34, 90.03 0.08 M63.52 36.67 C75.42 23.81, 84.72 11.46, 95.67 -0.31 M63.52 36.67 C73.92 24.68, 84.61 14.8, 95.67 -0.31 M69.17 36.28 C79.82 23.22, 92.95 9.44, 100.66 0.05 M69.17 36.28 C78.79 25.96, 88.71 12.96, 100.66 0.05 M74.15 36.64 C82.88 25.25, 93.6 14.16, 106.3 -0.34 M74.15 36.64 C82.27 25.84, 92.17 16.82, 106.3 -0.34 M79.8 36.24 C90.77 21.83, 102.18 11.03, 111.29 0.02 M79.8 36.24 C92.83 23.13, 103.49 7.26, 111.29 0.02 M84.78 36.6 C94.22 28.13, 102.67 15.97, 116.27 0.38 M84.78 36.6 C92.51 26.86, 102.08 15.59, 116.27 0.38 M90.43 36.21 C97.3 27.05, 105.85 15.27, 120.61 1.49 M90.43 36.21 C98.22 26.69, 107.16 16.51, 120.61 1.49 M95.41 36.57 C102.07 30.28, 108.85 19.44, 120.34 7.89 M95.41 36.57 C100.11 30.31, 105.57 25.85, 120.34 7.89 M101.06 36.17 C108.41 27.94, 114.23 22.71, 120.74 13.53 M101.06 36.17 C106.45 29.98, 111.62 23.78, 120.74 13.53 M106.04 36.53 C108.27 31.77, 111.12 29.36, 120.48 19.93 M106.04 36.53 C110 32.37, 112.56 29.28, 120.48 19.93 M111.69 36.14 C114.39 33.18, 117.93 28.09, 120.22 26.33 M111.69 36.14 C113.43 33.9, 115.77 30.69, 120.22 26.33 M116.67 36.5 C117.17 35.06, 117.93 33.88, 120.61 31.97 M116.67 36.5 C118.15 34.59, 119.78 33.15, 120.61 31.97" stroke="#b2f2bb" stroke-width="0.5" fill="none"></path><path d="M0 0 C47.48 0.37, 92.99 -2.17, 120.49 0 M0 0 C25.64 -0.07, 52.67 -0.8, 120.49 0 M120.49 0 C121.87 8.65, 119.05 22.08, 120.49 36.39 M120.49 0 C119.59 8.99, 120.09 16.6, 120.49 36.39 M120.49 36.39 C76.66 37.15, 29.91 38.23, 0 36.39 M120.49 36.39 C74.08 35.67, 27.77 35.9, 0 36.39 M0 36.39 C0 26.07, 0.1 12.78, 0 0 M0 36.39 C0.75 24.76, 0.95 12.69, 0 0" stroke="transparent" stroke-width="1" fill="none"></path></g><g transform="translate(187.64565383307865 120.71110084389537) rotate(0 20.6875 9.599999999999994)"><text x="20.6875" y="15.45" font-family="Cascadia, Segoe UI Emoji" font-size="16px" fill="#1e1e1e" text-anchor="middle" style="white-space: pre;" direction="ltr" dominant-baseline="alphabetic">协程B</text></g><g transform="translate(88.02896735923446 178.27835547375628) rotate(0 28.125 9.600000000000001)"><text x="0" y="15.45" font-family="Cascadia, Segoe UI Emoji" font-size="16px" fill="#1e1e1e" text-anchor="start" style="white-space: pre;" direction="ltr" dominant-baseline="alphabetic">resume</text></g><g stroke-linecap="round"><g transform="translate(268.0566608332738 106.87153793639158) rotate(0 0.002198748245916704 -27.021283060333047)"><path d="M0 0 C1.54 -16.09, 0.24 -32.1, 0 -54.04 M0 0 C0.49 -13.31, 0.09 -25.43, 0 -54.04" stroke="#1e1e1e" stroke-width="1" fill="none"></path></g><g transform="translate(268.0566608332738 106.87153793639158) rotate(0 0.002198748245916704 -27.021283060333047)"><path d="M0.07 -54.9 L7.7 -39.03 L-4.87 -39.21 L-1.1 -53.03" stroke="none" stroke-width="0" fill="#1e1e1e" fill-rule="evenodd"></path><path d="M0 -54.04 C2.74 -50.48, 3.62 -46.85, 6.42 -40.49 M0 -54.04 C1.8 -50.97, 3.04 -47.05, 6.42 -40.49 M6.42 -40.49 C0.54 -40.04, -2.33 -40.38, -6.25 -40.41 M6.42 -40.49 C2.87 -40.26, -1.92 -40.7, -6.25 -40.41 M-6.25 -40.41 C-3.62 -44.18, -1.9 -48.72, 0 -54.04 M-6.25 -40.41 C-4.16 -44.26, -2.69 -49.71, 0 -54.04 M0 -54.04 C0 -54.04, 0 -54.04, 0 -54.04 M0 -54.04 C0 -54.04, 0 -54.04, 0 -54.04" stroke="#1e1e1e" stroke-width="1" fill="none"></path></g></g><mask></mask><g stroke-linecap="round" transform="translate(268.39072117238857 10) rotate(0 60.246618660690075 18.194677843895377)"><path d="M0 0 C0 0, 0 0, 0 0 M0 0 C0 0, 0 0, 0 0 M-0.26 6.4 C1.31 4.91, 3.65 1.33, 4.99 0.36 M-0.26 6.4 C1.88 4.12, 3.5 2.25, 4.99 0.36 M0.13 12.04 C3.93 6.62, 8.5 3.81, 10.63 -0.03 M0.13 12.04 C3.48 9.1, 5.42 5.81, 10.63 -0.03 M-0.13 18.44 C4.2 12.77, 8.23 8.42, 15.62 0.33 M-0.13 18.44 C6.37 11.18, 11.45 5.36, 15.62 0.33 M0.27 24.08 C4.43 17.75, 11.25 11.7, 21.26 -0.07 M0.27 24.08 C5.39 19.08, 10.03 13.46, 21.26 -0.07 M0 30.48 C6.79 21.41, 11.54 16.46, 26.25 0.29 M0 30.48 C7.12 22.11, 15.29 12.92, 26.25 0.29 M0.4 36.12 C9.87 26.97, 18.14 14.82, 31.89 -0.1 M0.4 36.12 C9.16 26.05, 16.36 18.43, 31.89 -0.1 M5.39 36.48 C16.47 25.76, 26.97 11.34, 36.88 0.26 M5.39 36.48 C13.91 28.15, 21.68 17.71, 36.88 0.26 M10.37 36.84 C22.28 24.05, 34.76 10.73, 42.52 -0.14 M10.37 36.84 C19.88 25.45, 27.76 14.98, 42.52 -0.14 M16.02 36.45 C24.68 26.85, 34.51 16.84, 47.51 0.22 M16.02 36.45 C24.89 25.53, 35.62 15.65, 47.51 0.22 M21 36.81 C33.43 22.91, 42.89 9.99, 53.15 -0.17 M21 36.81 C29.7 25.13, 39.18 14.67, 53.15 -0.17 M26.65 36.41 C36.27 22.91, 50.89 12.65, 58.14 0.19 M26.65 36.41 C37.22 22.96, 48.65 9.88, 58.14 0.19 M31.63 36.77 C42.07 26.47, 49.78 17.66, 63.78 -0.21 M31.63 36.77 C43.01 23.71, 52.89 10.71, 63.78 -0.21 M37.28 36.38 C48.27 23.28, 56.8 11.94, 68.77 0.15 M37.28 36.38 C47.33 25.55, 57.8 12.12, 68.77 0.15 M42.26 36.74 C52.67 24.11, 67.51 8.71, 74.41 -0.24 M42.26 36.74 C52.96 25.09, 64.26 12, 74.41 -0.24 M47.91 36.34 C59.54 22.63, 69.02 9.08, 79.4 0.12 M47.91 36.34 C56.5 26.15, 64.98 15.05, 79.4 0.12 M52.89 36.7 C64.11 22, 76.22 7.75, 85.04 -0.28 M52.89 36.7 C59.68 29.05, 66.5 20.13, 85.04 -0.28 M58.54 36.31 C65.2 26.68, 73.74 18.29, 90.03 0.08 M58.54 36.31 C66.04 27.02, 71.86 19.22, 90.03 0.08 M63.52 36.67 C76.47 23.37, 88.59 7.7, 95.67 -0.31 M63.52 36.67 C71.93 27.88, 78.86 18.58, 95.67 -0.31 M69.17 36.28 C80.47 23.24, 93.83 8.5, 100.66 0.05 M69.17 36.28 C80.85 22.79, 91.7 10.78, 100.66 0.05 M74.15 36.64 C84.41 25.95, 94.35 14.01, 106.3 -0.34 M74.15 36.64 C83.64 27.18, 91.73 15.77, 106.3 -0.34 M79.8 36.24 C87.52 28.33, 95.63 16.19, 111.29 0.02 M79.8 36.24 C86.43 29.33, 93.21 21.33, 111.29 0.02 M84.78 36.6 C96.29 24.9, 104.07 13.09, 116.27 0.38 M84.78 36.6 C94.23 27.29, 101.76 15.86, 116.27 0.38 M90.43 36.21 C98.05 26.99, 105.72 16.36, 121.26 0.74 M90.43 36.21 C99.23 26.76, 107.07 17.16, 121.26 0.74 M95.41 36.57 C101.59 30.1, 106.43 23.61, 121 7.13 M95.41 36.57 C100.96 28.18, 107.41 20.52, 121 7.13 M101.06 36.17 C106.99 29.37, 115.99 21.52, 121.4 12.78 M101.06 36.17 C105.07 29.96, 109.92 25.02, 121.4 12.78 M106.04 36.53 C110.06 29.63, 116.72 25.05, 121.13 19.17 M106.04 36.53 C110.92 32.87, 115.04 27.93, 121.13 19.17 M111.69 36.14 C114.08 31.57, 118.24 26.35, 121.53 24.82 M111.69 36.14 C114.97 32.7, 117.57 29.5, 121.53 24.82 M116.67 36.5 C118.13 34.92, 119.52 33.04, 121.27 31.21 M116.67 36.5 C117.59 35.25, 118.47 34.29, 121.27 31.21" stroke="#a5d8ff" stroke-width="0.5" fill="none"></path><path d="M0 0 C38.98 -0.57, 76.84 -0.15, 120.49 0 M0 0 C25.04 0.94, 50.82 0.31, 120.49 0 M120.49 0 C121.14 14.27, 120.51 29.23, 120.49 36.39 M120.49 0 C120.31 9.41, 120.55 18.56, 120.49 36.39 M120.49 36.39 C77.64 35.55, 33.29 34.68, 0 36.39 M120.49 36.39 C84.87 36.62, 51.85 37.08, 0 36.39 M0 36.39 C-1.61 29.05, -1.18 21.64, 0 0 M0 36.39 C0.52 23, -0.04 10.86, 0 0" stroke="transparent" stroke-width="1" fill="none"></path></g><g transform="translate(307.9498398330786 18.594677843895397) rotate(0 20.6875 9.599999999999994)"><text x="20.6875" y="15.45" font-family="Cascadia, Segoe UI Emoji" font-size="16px" fill="#1e1e1e" text-anchor="middle" style="white-space: pre;" direction="ltr" dominant-baseline="alphabetic">协程C</text></g><g transform="translate(208.33315335923442 76.16193247375628) rotate(0 28.125 9.599999999999994)"><text x="0" y="15.45" font-family="Cascadia, Segoe UI Emoji" font-size="16px" fill="#1e1e1e" text-anchor="start" style="white-space: pre;" direction="ltr" dominant-baseline="alphabetic">resume</text></g><g stroke-linecap="round"><g transform="translate(388.8839585700299 50.312726596317816) rotate(0 0 26.31086843847976)"><path d="M0 0 C0.98 15.79, 0.57 31.08, 0 52.62 M0 0 C0.46 14.14, 0.17 27.7, 0 52.62" stroke="#1e1e1e" stroke-width="1" fill="none"></path></g><g transform="translate(388.8839585700299 50.312726596317816) rotate(0 0 26.31086843847976)"><path d="M0.68 52.55 L-7.01 38.68 L4.6 37.66 L1.78 52.23" stroke="none" stroke-width="0" fill="#1e1e1e" fill-rule="evenodd"></path><path d="M0 52.62 C-0.82 48.79, -2.96 44.63, -6.23 38.98 M0 52.62 C-1.59 48.94, -3.47 44.86, -6.23 38.98 M-6.23 38.98 C-2.69 40.04, 0.01 38.6, 6.45 39.08 M-6.23 38.98 C-2.13 38.71, 2.17 38.97, 6.45 39.08 M6.45 39.08 C4.25 42.15, 2.69 44.17, 0 52.62 M6.45 39.08 C3.61 43.87, 1.79 49.37, 0 52.62 M0 52.62 C0 52.62, 0 52.62, 0 52.62 M0 52.62 C0 52.62, 0 52.62, 0 52.62" stroke="#1e1e1e" stroke-width="1" fill="none"></path></g></g><mask></mask><g transform="translate(394.2190419275732 61.42208227891004) rotate(0 23.4375 9.599999999999994)"><text x="0" y="15.45" font-family="Cascadia, Segoe UI Emoji" font-size="16px" fill="#1e1e1e" text-anchor="start" style="white-space: pre;" direction="ltr" dominant-baseline="alphabetic">yield</text></g><g stroke-linecap="round" transform="translate(389.9446631723887 112.116423) rotate(0 60.246618660690075 18.194677843895377)"><path d="M0 0 C0 0, 0 0, 0 0 M0 0 C0 0, 0 0, 0 0 M-0.26 6.4 C1.39 4.18, 3.19 2.38, 4.99 0.36 M-0.26 6.4 C0.68 5.17, 2.02 3.3, 4.99 0.36 M0.13 12.04 C2.9 6.77, 9.64 2.45, 10.63 -0.03 M0.13 12.04 C1.84 9.19, 4.99 6.49, 10.63 -0.03 M-0.13 18.44 C4.93 11.81, 9.87 7.85, 15.62 0.33 M-0.13 18.44 C6.09 11.29, 12.81 5.15, 15.62 0.33 M0.27 24.08 C3.47 17.9, 9.24 11.85, 21.26 -0.07 M0.27 24.08 C7 16.17, 14.75 8.64, 21.26 -0.07 M0 30.48 C7.63 20.12, 15.98 10.22, 26.25 0.29 M0 30.48 C9.29 20.17, 17.81 8.22, 26.25 0.29 M0.4 36.12 C8.79 25.48, 21.72 12.51, 31.89 -0.1 M0.4 36.12 C11.8 22.13, 24.65 7.6, 31.89 -0.1 M5.39 36.48 C15.28 28.44, 24.14 15.55, 36.88 0.26 M5.39 36.48 C12.74 28.1, 19.43 19.74, 36.88 0.26 M10.37 36.84 C21.79 27.23, 31.98 12.74, 42.52 -0.14 M10.37 36.84 C18.1 27.33, 27.59 16.86, 42.52 -0.14 M16.02 36.45 C28.34 25.85, 38.69 10.83, 47.51 0.22 M16.02 36.45 C24.96 25.62, 33.71 15.93, 47.51 0.22 M21 36.81 C31.62 24.1, 41.77 14.72, 53.15 -0.17 M21 36.81 C28.23 27.4, 36.25 18.71, 53.15 -0.17 M26.65 36.41 C37.33 23.18, 48.26 11.73, 58.14 0.19 M26.65 36.41 C37.16 24.84, 48.79 11.53, 58.14 0.19 M31.63 36.77 C42.36 24.53, 55.72 8.48, 63.78 -0.21 M31.63 36.77 C42.62 24.95, 53.86 11.51, 63.78 -0.21 M37.28 36.38 C43.06 29.09, 50.88 20.5, 68.77 0.15 M37.28 36.38 C43.44 28.53, 50.63 20.93, 68.77 0.15 M42.26 36.74 C53.31 21.65, 64.75 10.72, 74.41 -0.24 M42.26 36.74 C54.23 23.72, 65.24 10.95, 74.41 -0.24 M47.91 36.34 C59.88 23.68, 71.57 7.04, 79.4 0.12 M47.91 36.34 C58.94 22.89, 72.06 9.13, 79.4 0.12 M52.89 36.7 C61.58 23.77, 73.71 12.26, 85.04 -0.28 M52.89 36.7 C59.92 28.93, 67.19 19.31, 85.04 -0.28 M58.54 36.31 C64.51 27, 72.79 19.36, 90.03 0.08 M58.54 36.31 C65.19 28.96, 71.36 22.22, 90.03 0.08 M63.52 36.67 C70.97 27.72, 79.86 14.79, 95.67 -0.31 M63.52 36.67 C71.74 25.96, 80.27 16.71, 95.67 -0.31 M69.17 36.28 C78.23 26.99, 88.19 16.65, 100.66 0.05 M69.17 36.28 C78.97 26.09, 88.69 14.01, 100.66 0.05 M74.15 36.64 C84.68 26.82, 93.53 14.85, 106.3 -0.34 M74.15 36.64 C85.27 23.84, 97.41 10.27, 106.3 -0.34 M79.8 36.24 C88.44 25.55, 98.91 14.99, 111.29 0.02 M79.8 36.24 C91.01 23.82, 101.57 11.57, 111.29 0.02 M84.78 36.6 C97.05 22.57, 109.66 7.77, 116.27 0.38 M84.78 36.6 C94.07 25.41, 103.01 15.56, 116.27 0.38 M90.43 36.21 C99.29 26.38, 105.69 20.07, 120.61 1.49 M90.43 36.21 C97.48 28.1, 103.84 20.33, 120.61 1.49 M95.41 36.57 C103.81 26.05, 110.36 17.91, 120.34 7.89 M95.41 36.57 C101.83 28.87, 109.06 22.6, 120.34 7.89 M101.06 36.17 C106.75 29.09, 116.81 16.92, 120.74 13.53 M101.06 36.17 C107.51 27.99, 116.44 18.96, 120.74 13.53 M106.04 36.53 C111.64 31.55, 116.86 22.54, 120.48 19.93 M106.04 36.53 C108.4 33.9, 113.42 29.85, 120.48 19.93 M111.69 36.14 C114.43 33.82, 116.92 29.25, 120.22 26.33 M111.69 36.14 C113.39 34.2, 115.53 31.01, 120.22 26.33 M116.67 36.5 C117.46 34.99, 118.57 34.37, 120.61 31.97 M116.67 36.5 C117.72 35.22, 118.46 34.25, 120.61 31.97" stroke="#b2f2bb" stroke-width="0.5" fill="none"></path><path d="M0 0 C34 0.99, 71.26 0.29, 120.49 0 M0 0 C41.31 0.01, 81.9 -1.47, 120.49 0 M120.49 0 C121.18 7.65, 119.29 13.71, 120.49 36.39 M120.49 0 C120.25 12.15, 121.01 22.68, 120.49 36.39 M120.49 36.39 C88.83 34.42, 57.82 34.15, 0 36.39 M120.49 36.39 C85.23 36.83, 51.97 37.05, 0 36.39 M0 36.39 C1.11 26.97, -0.93 22.75, 0 0 M0 36.39 C0.25 29.43, -1.19 21.99, 0 0" stroke="transparent" stroke-width="1" fill="none"></path></g><g transform="translate(429.50378183307873 120.71110084389537) rotate(0 20.6875 9.599999999999994)"><text x="20.6875" y="15.45" font-family="Cascadia, Segoe UI Emoji" font-size="16px" fill="#1e1e1e" text-anchor="middle" style="white-space: pre;" direction="ltr" dominant-baseline="alphabetic">协程B</text></g><g stroke-linecap="round"><g transform="translate(511.00448457002994 153.78050391808176) rotate(0 0 26.74466437078938)"><path d="M0 0 C1.95 10.34, 0.79 25.95, 0 53.49 M0 0 C-1.34 18.46, 0.03 34.52, 0 53.49" stroke="#1e1e1e" stroke-width="1" fill="none"></path></g><g transform="translate(511.00448457002994 153.78050391808176) rotate(0 0 26.74466437078938)"><path d="M-1.82 53.37 L-5.22 41.88 L4.17 39.19 L-0.94 51.76" stroke="none" stroke-width="0" fill="#1e1e1e" fill-rule="evenodd"></path><path d="M0 53.49 C-0.29 49.05, -2.65 48.55, -6.54 39.99 M0 53.49 C-2.64 49.59, -3.76 43.95, -6.54 39.99 M-6.54 39.99 C-2.57 39.23, 1.03 40.97, 6.14 39.8 M-6.54 39.99 C-3.48 40.04, 0.14 40.19, 6.14 39.8 M6.14 39.8 C3.13 43.05, 2.21 46.8, 0 53.49 M6.14 39.8 C4.77 44.88, 2.65 48.58, 0 53.49 M0 53.49 C0 53.49, 0 53.49, 0 53.49 M0 53.49 C0 53.49, 0 53.49, 0 53.49" stroke="#1e1e1e" stroke-width="1" fill="none"></path></g></g><mask></mask><g transform="translate(516.3395679275732 162.37361427891005) rotate(0 23.4375 9.600000000000001)"><text x="0" y="15.45" font-family="Cascadia, Segoe UI Emoji" font-size="16px" fill="#1e1e1e" text-anchor="start" style="white-space: pre;" direction="ltr" dominant-baseline="alphabetic">yield</text></g><g stroke-linecap="round" transform="translate(512.0651891723887 213.067955) rotate(0 60.24661866069007 18.194677843895377)"><path d="M0 0 C0 0, 0 0, 0 0 M0 0 C0 0, 0 0, 0 0 M-0.26 6.4 C0.4 4.51, 1.37 3.09, 4.99 0.36 M-0.26 6.4 C1.67 4.33, 3.64 1.53, 4.99 0.36 M0.13 12.04 C2.77 8.41, 7.03 3.51, 10.63 -0.03 M0.13 12.04 C2.35 9.19, 5.47 6.2, 10.63 -0.03 M-0.13 18.44 C3.52 11.37, 9.34 6.31, 15.62 0.33 M-0.13 18.44 C4.59 12.12, 8.29 7.93, 15.62 0.33 M0.27 24.08 C3.49 18.4, 10.29 13.18, 21.26 -0.07 M0.27 24.08 C4.93 17.82, 11.35 10.52, 21.26 -0.07 M0 30.48 C7.63 19.12, 16.09 11.22, 26.25 0.29 M0 30.48 C9.83 19.5, 19.73 7.56, 26.25 0.29 M0.4 36.12 C10.82 25.45, 21.97 14.81, 31.89 -0.1 M0.4 36.12 C9.65 25.63, 19.73 15.43, 31.89 -0.1 M5.39 36.48 C15.85 24.95, 24.35 13.65, 36.88 0.26 M5.39 36.48 C14.56 25.67, 25.67 14.14, 36.88 0.26 M10.37 36.84 C21.77 23.69, 33.51 7.72, 42.52 -0.14 M10.37 36.84 C19.26 26.1, 30.82 14.49, 42.52 -0.14 M16.02 36.45 C23.61 27.27, 33.36 14.66, 47.51 0.22 M16.02 36.45 C24.32 26.05, 32.56 16.37, 47.51 0.22 M21 36.81 C30.18 25.21, 38.64 14.65, 53.15 -0.17 M21 36.81 C34.75 21.04, 46.23 6.73, 53.15 -0.17 M26.65 36.41 C37.54 20.5, 51.91 8.21, 58.14 0.19 M26.65 36.41 C36.57 26.63, 44.52 15.95, 58.14 0.19 M31.63 36.77 C41.89 25.95, 49.6 19.04, 63.78 -0.21 M31.63 36.77 C40.11 28.54, 47.3 19.24, 63.78 -0.21 M37.28 36.38 C50.67 23.46, 61.72 7.91, 68.77 0.15 M37.28 36.38 C43.1 28.91, 50.63 22.44, 68.77 0.15 M42.26 36.74 C52.43 24.58, 61.73 13.64, 74.41 -0.24 M42.26 36.74 C51.4 27.53, 60.56 17.07, 74.41 -0.24 M47.91 36.34 C59.94 22.91, 71.58 6.78, 79.4 0.12 M47.91 36.34 C59.25 23.69, 70.97 9.05, 79.4 0.12 M52.89 36.7 C58.79 29, 64.75 21.58, 85.04 -0.28 M52.89 36.7 C62.75 25.97, 71.14 15.04, 85.04 -0.28 M58.54 36.31 C70.74 22.79, 81.28 12.98, 90.03 0.08 M58.54 36.31 C69.85 23.45, 82.78 8.52, 90.03 0.08 M63.52 36.67 C69.71 26.86, 77.08 17.9, 95.67 -0.31 M63.52 36.67 C71.9 28.05, 79.78 19.25, 95.67 -0.31 M69.17 36.28 C80.67 25.6, 91.67 11.92, 100.66 0.05 M69.17 36.28 C79.24 26.03, 88.3 15.27, 100.66 0.05 M74.15 36.64 C83 27.03, 91.04 15.99, 106.3 -0.34 M74.15 36.64 C81.85 29.39, 88.7 20.37, 106.3 -0.34 M79.8 36.24 C89.91 23.65, 100.75 12.8, 111.29 0.02 M79.8 36.24 C86.49 28.53, 93.34 19.9, 111.29 0.02 M84.78 36.6 C97.01 20.6, 111.37 6.71, 116.27 0.38 M84.78 36.6 C93.1 26.09, 103.05 14.27, 116.27 0.38 M90.43 36.21 C101.9 24.05, 110.4 10.62, 121.26 0.74 M90.43 36.21 C100.59 23.56, 110.32 13.52, 121.26 0.74 M95.41 36.57 C103.42 29.44, 108.2 21.77, 121 7.13 M95.41 36.57 C102.82 27.45, 110.68 17.39, 121 7.13 M101.06 36.17 C106.36 26.99, 116.43 18.69, 121.4 12.78 M101.06 36.17 C105.77 29.87, 112.74 24.49, 121.4 12.78 M106.04 36.53 C113.01 29.1, 117.39 24.16, 121.13 19.17 M106.04 36.53 C110.16 32.69, 114.32 27.99, 121.13 19.17 M111.69 36.14 C116.04 32.17, 117.54 29.04, 121.53 24.82 M111.69 36.14 C114.46 33.24, 117.83 29.02, 121.53 24.82 M116.67 36.5 C118.12 34.2, 119.41 32.39, 121.27 31.21 M116.67 36.5 C118.19 35.09, 119.32 33.56, 121.27 31.21" stroke="#ffc9c9" stroke-width="0.5" fill="none"></path><path d="M0 0 C42.64 1.6, 84.78 2, 120.49 0 M0 0 C24.83 -0.15, 51.07 -0.55, 120.49 0 M120.49 0 C120.84 13.61, 119.73 23.71, 120.49 36.39 M120.49 0 C120.11 9.91, 121.28 21.96, 120.49 36.39 M120.49 36.39 C74.94 37.33, 33.97 34.58, 0 36.39 M120.49 36.39 C79.15 35.36, 36.69 36.52, 0 36.39 M0 36.39 C1.77 27.38, 0.55 15.48, 0 0 M0 36.39 C0.19 26.83, -0.55 16.07, 0 0" stroke="transparent" stroke-width="1" fill="none"></path></g><g transform="translate(551.6243078330788 221.66263284389538) rotate(0 20.6875 9.600000000000001)"><text x="20.6875" y="15.45" font-family="Cascadia, Segoe UI Emoji" font-size="16px" fill="#1e1e1e" text-anchor="middle" style="white-space: pre;" direction="ltr" dominant-baseline="alphabetic">协程A</text></g><g stroke-linecap="round"><g transform="translate(632.0352902656106 208.9879561752763) rotate(0 0.755520441510896 -27.10765443754181)"><path d="M0 0 C0.1 -15.48, 0.77 -30.97, 1.51 -54.22 M0 0 C0.91 -19.91, 1.71 -41.53, 1.51 -54.22" stroke="#1e1e1e" stroke-width="1" fill="none"></path></g><g transform="translate(632.0352902656106 208.9879561752763) rotate(0 0.755520441510896 -27.10765443754181)"><path d="M2.19 -53.35 L6.01 -42.03 L-4.25 -38.72 L0.64 -53.25" stroke="none" stroke-width="0" fill="#1e1e1e" fill-rule="evenodd"></path><path d="M1.51 -54.22 C3.31 -51.2, 5.2 -48.2, 7.78 -40.59 M1.51 -54.22 C4.34 -48.29, 6.91 -43.67, 7.78 -40.59 M7.78 -40.59 C4.98 -40.13, 0.06 -39.48, -4.89 -40.65 M7.78 -40.59 C4.11 -40.83, 0.77 -41.19, -4.89 -40.65 M-4.89 -40.65 C-1.69 -43.92, -0.57 -48.87, 1.51 -54.22 M-4.89 -40.65 C-2.26 -45.98, 0.07 -50.28, 1.51 -54.22 M1.51 -54.22 C1.51 -54.22, 1.51 -54.22, 1.51 -54.22 M1.51 -54.22 C1.51 -54.22, 1.51 -54.22, 1.51 -54.22" stroke="#1e1e1e" stroke-width="1" fill="none"></path></g></g><mask></mask><g stroke-linecap="round" transform="translate(632.3693751723886 112.116423) rotate(0 60.24661866069007 18.194677843895377)"><path d="M0 0 C0 0, 0 0, 0 0 M0 0 C0 0, 0 0, 0 0 M-0.26 6.4 C1.37 5.25, 2.74 2.62, 4.99 0.36 M-0.26 6.4 C1.42 4.66, 3.38 2.24, 4.99 0.36 M0.13 12.04 C3.48 10.1, 6.51 5.41, 10.63 -0.03 M0.13 12.04 C3.66 8.53, 6.88 4.34, 10.63 -0.03 M-0.13 18.44 C3.11 13.01, 6.54 9.17, 15.62 0.33 M-0.13 18.44 C3.57 13.76, 9.07 7.76, 15.62 0.33 M0.27 24.08 C4.69 17.64, 10.33 14.92, 21.26 -0.07 M0.27 24.08 C7.54 15.94, 12.63 9.4, 21.26 -0.07 M0 30.48 C9.08 21.06, 16.69 8.2, 26.25 0.29 M0 30.48 C10.19 20.88, 17.66 8.5, 26.25 0.29 M0.4 36.12 C11.52 23.69, 20.25 12.4, 31.89 -0.1 M0.4 36.12 C8.06 28.36, 14.05 20.23, 31.89 -0.1 M5.39 36.48 C14.04 24.56, 27.34 12.75, 36.88 0.26 M5.39 36.48 C16.59 24.46, 26.64 10.46, 36.88 0.26 M10.37 36.84 C24.35 24.11, 35.34 8.91, 42.52 -0.14 M10.37 36.84 C21.05 24.76, 32.66 12.32, 42.52 -0.14 M16.02 36.45 C21.5 29.34, 29.16 18.85, 47.51 0.22 M16.02 36.45 C24.28 27.89, 32.34 17.66, 47.51 0.22 M21 36.81 C34.15 24.74, 44.95 9.9, 53.15 -0.17 M21 36.81 C29.27 28.76, 34.89 20.48, 53.15 -0.17 M26.65 36.41 C34.47 27.05, 40.25 23.58, 58.14 0.19 M26.65 36.41 C35.87 26.12, 44.17 16.31, 58.14 0.19 M31.63 36.77 C44.08 22.45, 54.46 10.42, 63.78 -0.21 M31.63 36.77 C41.86 23.35, 54.32 10.3, 63.78 -0.21 M37.28 36.38 C47.17 26.55, 53.58 14.47, 68.77 0.15 M37.28 36.38 C48.89 23.21, 61.04 8.47, 68.77 0.15 M42.26 36.74 C50.89 27.61, 58.57 17.56, 74.41 -0.24 M42.26 36.74 C50.22 26.2, 58.38 16.85, 74.41 -0.24 M47.91 36.34 C57.59 26.49, 67.48 11.91, 79.4 0.12 M47.91 36.34 C57.63 23.83, 69.04 13.35, 79.4 0.12 M52.89 36.7 C60.97 26.8, 69.52 15.93, 85.04 -0.28 M52.89 36.7 C64.67 21.62, 77.07 7.89, 85.04 -0.28 M58.54 36.31 C65.78 25.93, 74.25 16.56, 90.03 0.08 M58.54 36.31 C68.82 26.09, 77.94 14.51, 90.03 0.08 M63.52 36.67 C74.59 25.26, 85.32 11.1, 95.67 -0.31 M63.52 36.67 C71.49 27.85, 80.12 17.74, 95.67 -0.31 M69.17 36.28 C78.01 26.6, 90.55 12.36, 100.66 0.05 M69.17 36.28 C76.49 29.22, 83.29 21.17, 100.66 0.05 M74.15 36.64 C83.83 24.1, 96.45 12.01, 106.3 -0.34 M74.15 36.64 C82.64 25.76, 92.54 15.43, 106.3 -0.34 M79.8 36.24 C90.76 24.51, 98.49 15.85, 111.29 0.02 M79.8 36.24 C86.99 27.26, 93.91 19.46, 111.29 0.02 M84.78 36.6 C90.13 27.62, 97.74 19.05, 116.27 0.38 M84.78 36.6 C92.08 28.3, 99.44 21.44, 116.27 0.38 M90.43 36.21 C101.13 23.51, 110.55 12.56, 120.61 1.49 M90.43 36.21 C98.85 26.42, 108.85 16.72, 120.61 1.49 M95.41 36.57 C104.32 27.04, 112.77 14.79, 120.34 7.89 M95.41 36.57 C101.11 30.19, 107.04 24, 120.34 7.89 M101.06 36.17 C103.94 30.66, 111.4 26.52, 120.74 13.53 M101.06 36.17 C106.58 29.79, 111.88 22.76, 120.74 13.53 M106.04 36.53 C110.58 31.58, 117.63 24.06, 120.48 19.93 M106.04 36.53 C112.37 31.07, 116.91 23.06, 120.48 19.93 M111.69 36.14 C115.82 33.21, 118.29 28.8, 120.22 26.33 M111.69 36.14 C114.64 32.05, 117.3 28.97, 120.22 26.33 M116.67 36.5 C117.79 34.19, 119.8 33.61, 120.61 31.97 M116.67 36.5 C117.96 34.82, 118.97 33.98, 120.61 31.97" stroke="#a5d8ff" stroke-width="0.5" fill="none"></path><path d="M0 0 C42.42 2.81, 82.01 -0.88, 120.49 0 M0 0 C37.07 1.06, 73.04 0.61, 120.49 0 M120.49 0 C122.62 8.83, 119.24 15.62, 120.49 36.39 M120.49 0 C119.57 6.95, 120.45 15.33, 120.49 36.39 M120.49 36.39 C90.96 36.64, 60.81 37.06, 0 36.39 M120.49 36.39 C77.55 37.57, 37.27 36.75, 0 36.39 M0 36.39 C-1.42 26.04, 1.13 16.1, 0 0 M0 36.39 C0.74 23.72, 0.1 12.68, 0 0" stroke="transparent" stroke-width="1" fill="none"></path></g><g transform="translate(671.9284938330786 120.71110084389537) rotate(0 20.6875 9.599999999999994)"><text x="20.6875" y="15.45" font-family="Cascadia, Segoe UI Emoji" font-size="16px" fill="#1e1e1e" text-anchor="middle" style="white-space: pre;" direction="ltr" dominant-baseline="alphabetic">协程C</text></g><g transform="translate(572.3118073592344 178.27835547375628) rotate(0 28.125 9.600000000000001)"><text x="0" y="15.45" font-family="Cascadia, Segoe UI Emoji" font-size="16px" fill="#1e1e1e" text-anchor="start" style="white-space: pre;" direction="ltr" dominant-baseline="alphabetic">resume</text></g><g stroke-linecap="round" transform="translate(752.8626131723887 213.067955) rotate(0 60.246618660690075 18.194677843895377)"><path d="M0 0 C0 0, 0 0, 0 0 M0 0 C0 0, 0 0, 0 0 M-0.26 6.4 C1.66 4.06, 3 2.12, 4.99 0.36 M-0.26 6.4 C0.58 4.85, 2 3.71, 4.99 0.36 M0.13 12.04 C4.51 7.43, 8.74 2.07, 10.63 -0.03 M0.13 12.04 C3.51 8.64, 7.55 4.22, 10.63 -0.03 M-0.13 18.44 C4.48 13.48, 10.9 8.41, 15.62 0.33 M-0.13 18.44 C3.29 14.56, 6.31 11.52, 15.62 0.33 M0.27 24.08 C8.71 14.29, 14.17 6.51, 21.26 -0.07 M0.27 24.08 C7.62 16.36, 14.47 7.28, 21.26 -0.07 M0 30.48 C10.75 18.22, 20.72 9.21, 26.25 0.29 M0 30.48 C9.97 18.26, 20.44 7.53, 26.25 0.29 M0.4 36.12 C9.36 25.17, 19.2 10.23, 31.89 -0.1 M0.4 36.12 C7.15 28.15, 14.35 20.62, 31.89 -0.1 M5.39 36.48 C17.57 21.61, 28.25 7.04, 36.88 0.26 M5.39 36.48 C12.25 28.22, 20.16 18.07, 36.88 0.26 M10.37 36.84 C16.38 28.05, 23.47 17.9, 42.52 -0.14 M10.37 36.84 C17.76 27.63, 24.87 20.36, 42.52 -0.14 M16.02 36.45 C23.62 29.26, 31.83 21.95, 47.51 0.22 M16.02 36.45 C25.38 25.26, 36.35 13.4, 47.51 0.22 M21 36.81 C30.67 21.93, 43.71 12.11, 53.15 -0.17 M21 36.81 C28.24 27.68, 36.01 19.61, 53.15 -0.17 M26.65 36.41 C39.16 20.44, 52.18 5.65, 58.14 0.19 M26.65 36.41 C33.86 27.69, 40.71 21.36, 58.14 0.19 M31.63 36.77 C41.12 26.53, 52.07 16.82, 63.78 -0.21 M31.63 36.77 C41.68 25.66, 49.85 15.67, 63.78 -0.21 M37.28 36.38 C48.58 24.04, 59.42 13.45, 68.77 0.15 M37.28 36.38 C45.15 26.22, 54.53 16.48, 68.77 0.15 M42.26 36.74 C51.26 27.32, 62.3 15.6, 74.41 -0.24 M42.26 36.74 C50.81 26.36, 58.29 18.19, 74.41 -0.24 M47.91 36.34 C54.78 27.78, 64.08 17.99, 79.4 0.12 M47.91 36.34 C58.83 24.9, 68.2 12.17, 79.4 0.12 M52.89 36.7 C61.1 27.68, 71.69 16.52, 85.04 -0.28 M52.89 36.7 C65.07 23.02, 75.43 9.81, 85.04 -0.28 M58.54 36.31 C65.92 27.87, 74.68 15.88, 90.03 0.08 M58.54 36.31 C67.9 27.37, 75.38 17.05, 90.03 0.08 M63.52 36.67 C74.51 22.07, 87.7 11.12, 95.67 -0.31 M63.52 36.67 C69.66 28.4, 76.6 20.22, 95.67 -0.31 M69.17 36.28 C78.99 22.11, 90.99 12.03, 100.66 0.05 M69.17 36.28 C78.73 24.48, 87.23 15.51, 100.66 0.05 M74.15 36.64 C88.6 22.87, 98.11 7.49, 106.3 -0.34 M74.15 36.64 C82.78 26.24, 90.52 17.9, 106.3 -0.34 M79.8 36.24 C92.29 22.91, 102.8 13.42, 111.29 0.02 M79.8 36.24 C89.94 24.42, 98.46 13.43, 111.29 0.02 M84.78 36.6 C93.7 25.13, 99.64 16.39, 116.27 0.38 M84.78 36.6 C95.29 26.07, 103.77 14.83, 116.27 0.38 M90.43 36.21 C98.56 25.59, 108.98 14.62, 120.61 1.49 M90.43 36.21 C98.69 27.5, 105.82 18.95, 120.61 1.49 M95.41 36.57 C102.24 26.71, 110.29 18.2, 120.34 7.89 M95.41 36.57 C103.43 27.15, 111.86 16.54, 120.34 7.89 M101.06 36.17 C106.19 31.01, 107.9 28.21, 120.74 13.53 M101.06 36.17 C105.78 30.05, 110.03 25.64, 120.74 13.53 M106.04 36.53 C109.29 31.86, 117.38 23.36, 120.48 19.93 M106.04 36.53 C110.73 30.42, 116.57 24.95, 120.48 19.93 M111.69 36.14 C112.8 34.73, 115.79 31.68, 120.22 26.33 M111.69 36.14 C113.89 33.68, 115.77 31.95, 120.22 26.33 M116.67 36.5 C117.65 35.08, 118.12 34.13, 120.61 31.97 M116.67 36.5 C117.66 35.32, 118.99 33.81, 120.61 31.97" stroke="#ffc9c9" stroke-width="0.5" fill="none"></path><path d="M0 0 C35.05 -1.24, 71.18 1.17, 120.49 0 M0 0 C33.12 -1, 64.79 -1.99, 120.49 0 M120.49 0 C120.56 10.74, 120.39 16.82, 120.49 36.39 M120.49 0 C120.57 7.89, 120.77 17.23, 120.49 36.39 M120.49 36.39 C88.76 38.52, 58.24 36.29, 0 36.39 M120.49 36.39 C78.47 36.2, 35.02 35.2, 0 36.39 M0 36.39 C0 28.89, -1.25 19, 0 0 M0 36.39 C0.96 23.99, 0.48 13.66, 0 0" stroke="transparent" stroke-width="1" fill="none"></path></g><g transform="translate(792.4217318330788 221.66263284389538) rotate(0 20.6875 9.600000000000001)"><text x="20.6875" y="15.45" font-family="Cascadia, Segoe UI Emoji" font-size="16px" fill="#1e1e1e" text-anchor="middle" style="white-space: pre;" direction="ltr" dominant-baseline="alphabetic">协程A</text></g><g stroke-linecap="round"><g transform="translate(753.2244700078458 156.36621938446342) rotate(0 0 26.31086843847976)"><path d="M0 0 C1.91 17.64, -1.42 36.79, 0 52.62 M0 0 C0.9 14.08, 0.18 27.98, 0 52.62" stroke="#1e1e1e" stroke-width="1" fill="none"></path></g><g transform="translate(753.2244700078458 156.36621938446342) rotate(0 0 26.31086843847976)"><path d="M1.01 53.75 L-8.04 40.24 L5.06 38.53 L1.81 50.91" stroke="none" stroke-width="0" fill="#1e1e1e" fill-rule="evenodd"></path><path d="M0 52.62 C-0.75 47.87, -5.34 44.2, -6.17 38.95 M0 52.62 C-1.36 49.42, -3.51 46.03, -6.17 38.95 M-6.17 38.95 C-2.93 37.95, 2.15 40.09, 6.51 39.11 M-6.17 38.95 C-2.55 39.23, 2.89 39.17, 6.51 39.11 M6.51 39.11 C3.59 41.68, 4.76 44.54, 0 52.62 M6.51 39.11 C4.38 42.15, 3.3 46.19, 0 52.62 M0 52.62 C0 52.62, 0 52.62, 0 52.62 M0 52.62 C0 52.62, 0 52.62, 0 52.62" stroke="#1e1e1e" stroke-width="1" fill="none"></path></g></g><mask></mask><g transform="translate(758.5595533653891 167.47557506705564) rotate(0 23.4375 9.600000000000001)"><text x="0" y="15.45" font-family="Cascadia, Segoe UI Emoji" font-size="16px" fill="#1e1e1e" text-anchor="start" style="white-space: pre;" direction="ltr" dominant-baseline="alphabetic">yield</text></g></svg>