<svg version="1.1" xmlns="http://www.w3.org/2000/svg" viewBox="0 0 595.9522036580213 141.57135145522605" width="595.9522036580213" height="141.57135145522605">
  <!-- svg-source:excalidraw -->
  
  <defs>
    <style class="style-fonts">
      @font-face {
        font-family: "Virgil";
        src: url("https://excalidraw.com/Virgil.woff2");
      }
      @font-face {
        font-family: "Cascadia";
        src: url("https://excalidraw.com/Cascadia.woff2");
      }
      @font-face {
        font-family: "Assistant";
        src: url("https://excalidraw.com/Assistant-Regular.woff2");
      }
    </style>
    
  </defs>
  <rect x="0" y="0" width="595.9522036580213" height="141.57135145522605" fill="#ffffff"></rect><g stroke-linecap="round"><g transform="translate(10 55.24802432345351) rotate(0 282.52396370395047 0)"><path d="M0 0 C172.18 -1.33, 344.6 -1.09, 565.05 0 M0 0 C198.13 -1.66, 397.27 -1.64, 565.05 0" stroke="#1e1e1e" stroke-width="1" fill="none"></path></g><g transform="translate(10 55.24802432345351) rotate(0 282.52396370395047 0)"><path d="M541.5 8.4 C548.22 6.91, 555.51 4.96, 565.05 0 M541.5 8.4 C548.87 4.71, 558.72 1.81, 565.05 0" stroke="#1e1e1e" stroke-width="1" fill="none"></path></g><g transform="translate(10 55.24802432345351) rotate(0 282.52396370395047 0)"><path d="M541.61 -8.7 C548.19 -4.97, 555.44 -1.71, 565.05 0 M541.61 -8.7 C548.87 -6.39, 558.68 -3.27, 565.05 0" stroke="#1e1e1e" stroke-width="1" fill="none"></path></g></g><mask></mask><g stroke-linecap="round" transform="translate(22.669069948908145 14.702762246370753) rotate(0 60.24661866069005 18.194677843895377)"><path d="M0 0 C0 0, 0 0, 0 0 M0 0 C0 0, 0 0, 0 0 M-0.26 6.4 C1.12 4.66, 3.1 2.21, 4.99 0.36 M-0.26 6.4 C1.58 4.19, 3.85 1.34, 4.99 0.36 M0.13 12.04 C5.6 8, 8.92 4.03, 10.63 -0.03 M0.13 12.04 C2.3 8.86, 5.03 7.1, 10.63 -0.03 M-0.13 18.44 C4.99 13.23, 6.94 11.42, 15.62 0.33 M-0.13 18.44 C2.33 15.73, 5.66 10.91, 15.62 0.33 M0.27 24.08 C4.71 16.77, 10.94 12.4, 21.26 -0.07 M0.27 24.08 C7.21 16.65, 13.09 9, 21.26 -0.07 M0 30.48 C10.33 20.18, 15.58 10.75, 26.25 0.29 M0 30.48 C9.55 20.1, 19.23 8.36, 26.25 0.29 M0.4 36.12 C7.82 25.78, 19.68 13.92, 31.89 -0.1 M0.4 36.12 C8.25 27.97, 14.9 19.35, 31.89 -0.1 M5.39 36.48 C11.48 27.95, 20.96 19.94, 36.88 0.26 M5.39 36.48 C16.64 23.23, 28.28 9.46, 36.88 0.26 M10.37 36.84 C18.62 26.3, 31.89 13.18, 42.52 -0.14 M10.37 36.84 C21.03 24.79, 32.61 12.12, 42.52 -0.14 M16.02 36.45 C22.44 26.26, 29.48 20.25, 47.51 0.22 M16.02 36.45 C26.56 25.24, 34.92 14.31, 47.51 0.22 M21 36.81 C30.32 26.76, 38.24 18.68, 53.15 -0.17 M21 36.81 C31.46 25.8, 41.55 12.9, 53.15 -0.17 M26.65 36.41 C34.81 26.41, 41.88 19.87, 58.14 0.19 M26.65 36.41 C37.22 24.99, 47.14 12.19, 58.14 0.19 M31.63 36.77 C37.05 28.38, 43.46 22.01, 63.78 -0.21 M31.63 36.77 C42.75 23.42, 52.1 11.36, 63.78 -0.21 M37.28 36.38 C48.85 25.46, 59.94 11.33, 68.77 0.15 M37.28 36.38 C46.49 25.13, 55.42 14.9, 68.77 0.15 M42.26 36.74 C50.62 26.94, 58.54 21.03, 74.41 -0.24 M42.26 36.74 C50.67 26.48, 58.13 18.13, 74.41 -0.24 M47.91 36.34 C56.13 26.98, 64.04 16.03, 79.4 0.12 M47.91 36.34 C56.54 25.77, 67.53 13.78, 79.4 0.12 M52.89 36.7 C62.7 24.77, 74.95 11.65, 85.04 -0.28 M52.89 36.7 C60.54 28.03, 67.41 20.38, 85.04 -0.28 M58.54 36.31 C68.33 25.08, 75.13 15.27, 90.03 0.08 M58.54 36.31 C71.14 21.59, 83.6 8.13, 90.03 0.08 M63.52 36.67 C75.03 24.73, 84.57 13.23, 95.67 -0.31 M63.52 36.67 C72.73 25.41, 82.19 14.57, 95.67 -0.31 M69.17 36.28 C76.44 28.18, 80.76 22.99, 100.66 0.05 M69.17 36.28 C78.03 27.64, 85.78 17.4, 100.66 0.05 M74.15 36.64 C82.78 24.7, 94.19 16.83, 106.3 -0.34 M74.15 36.64 C87.01 21.02, 99.68 7.26, 106.3 -0.34 M79.8 36.24 C87.84 26.09, 95 19.13, 111.29 0.02 M79.8 36.24 C90.48 23.4, 101.68 11.85, 111.29 0.02 M84.78 36.6 C97.42 26, 107.43 12.74, 116.27 0.38 M84.78 36.6 C95.97 23.04, 107.11 12.14, 116.27 0.38 M90.43 36.21 C101.95 24.81, 109.15 11.4, 120.61 1.49 M90.43 36.21 C99.29 26.24, 107.59 18.35, 120.61 1.49 M95.41 36.57 C103.12 28.25, 113.39 18.11, 120.34 7.89 M95.41 36.57 C102.09 29.1, 109 21.64, 120.34 7.89 M101.06 36.17 C109.83 28.42, 116.98 19.82, 120.74 13.53 M101.06 36.17 C107.92 29.55, 111.96 21.79, 120.74 13.53 M106.04 36.53 C110.94 33.45, 114.5 28.76, 120.48 19.93 M106.04 36.53 C111.65 31.22, 115.67 26.2, 120.48 19.93 M111.69 36.14 C113.63 32.63, 116.04 29.79, 120.22 26.33 M111.69 36.14 C113.44 34.15, 115.4 31.29, 120.22 26.33 M116.67 36.5 C117.99 35.21, 119.13 33.31, 120.61 31.97 M116.67 36.5 C118.03 35.27, 119.08 33.77, 120.61 31.97" stroke="#ffc9c9" stroke-width="0.5" fill="none"></path><path d="M0 0 C45.55 1.11, 92.94 -1.59, 120.49 0 M0 0 C44.36 0.18, 88.05 0.29, 120.49 0 M120.49 0 C121.85 13.44, 119.37 23.43, 120.49 36.39 M120.49 0 C120.95 8.68, 120.34 17.71, 120.49 36.39 M120.49 36.39 C78.21 34.14, 37.14 35.52, 0 36.39 M120.49 36.39 C92.8 36.49, 64.58 37.63, 0 36.39 M0 36.39 C-0.86 29.51, -1.3 22.59, 0 0 M0 36.39 C0.17 21.95, -0.16 7.24, 0 0" stroke="transparent" stroke-width="1" fill="none"></path></g><g transform="translate(62.22818860959819 23.29744009026612) rotate(0 20.6875 9.600000000000001)"><text x="20.6875" y="15.45" font-family="Cascadia, Segoe UI Emoji" font-size="16px" fill="#1e1e1e" text-anchor="middle" style="white-space: pre;" direction="ltr" dominant-baseline="alphabetic">任务A</text></g><g stroke-linecap="round"><g transform="translate(147.29464034939588 10) rotate(0 0 22.275244594720704)"><path d="M0 0 C0.74 16.61, -0.48 35.74, 0 44.55 M0 0 C0.35 10.72, 0.6 22.33, 0 44.55" stroke="#1e1e1e" stroke-width="1" fill="none"></path></g></g><mask></mask><g stroke-linecap="round" transform="translate(151.4269729489082 15.40029724637077) rotate(0 60.24661866069005 18.194677843895377)"><path d="M0 0 C0 0, 0 0, 0 0 M0 0 C0 0, 0 0, 0 0 M-0.26 6.4 C0.95 4.44, 2.6 3.39, 4.99 0.36 M-0.26 6.4 C0.76 5.5, 1.96 4.09, 4.99 0.36 M0.13 12.04 C3.83 6.94, 7.28 3.11, 10.63 -0.03 M0.13 12.04 C4.09 8.73, 6.71 4.16, 10.63 -0.03 M-0.13 18.44 C4.65 10.99, 12.34 5.21, 15.62 0.33 M-0.13 18.44 C4.18 13, 8.14 8.46, 15.62 0.33 M0.27 24.08 C4.47 17.43, 12.66 8.69, 21.26 -0.07 M0.27 24.08 C6.8 16.9, 13.86 7.21, 21.26 -0.07 M0 30.48 C6.55 21.41, 16.51 12.69, 26.25 0.29 M0 30.48 C6.09 23.28, 11.37 18.23, 26.25 0.29 M0.4 36.12 C6.43 28.8, 15.36 19.02, 31.89 -0.1 M0.4 36.12 C9.58 25.69, 18.08 16.84, 31.89 -0.1 M5.39 36.48 C14.83 27.67, 20.61 19.58, 36.88 0.26 M5.39 36.48 C11.97 28.05, 19.01 22.1, 36.88 0.26 M10.37 36.84 C20.33 26.69, 29.1 18.07, 42.52 -0.14 M10.37 36.84 C20.96 24.23, 31.02 11.81, 42.52 -0.14 M16.02 36.45 C26.68 25.59, 37.91 10.05, 47.51 0.22 M16.02 36.45 C27.16 23.28, 39.59 9.39, 47.51 0.22 M21 36.81 C30.95 25.77, 42.9 13.77, 53.15 -0.17 M21 36.81 C28.76 29.43, 34.01 21.53, 53.15 -0.17 M26.65 36.41 C39.02 23.19, 50.95 8.91, 58.14 0.19 M26.65 36.41 C37.67 23.83, 47.26 11.83, 58.14 0.19 M31.63 36.77 C44.93 24.35, 52.95 8.52, 63.78 -0.21 M31.63 36.77 C38.06 28.83, 46.74 20.65, 63.78 -0.21 M37.28 36.38 C44.04 27.63, 50.87 18.19, 68.77 0.15 M37.28 36.38 C48.13 24.34, 58.41 12.14, 68.77 0.15 M42.26 36.74 C56.29 22.63, 66.55 6.6, 74.41 -0.24 M42.26 36.74 C52.09 24.92, 62.69 13.07, 74.41 -0.24 M47.91 36.34 C54.34 26.58, 62.59 21.44, 79.4 0.12 M47.91 36.34 C53.85 28.21, 61.07 21.29, 79.4 0.12 M52.89 36.7 C65.27 24.63, 74.71 11.29, 85.04 -0.28 M52.89 36.7 C65.69 24.07, 75.65 9.94, 85.04 -0.28 M58.54 36.31 C66.51 29.42, 71.1 21.84, 90.03 0.08 M58.54 36.31 C71.37 22.75, 83.24 8.14, 90.03 0.08 M63.52 36.67 C72.64 24.16, 83.3 12.08, 95.67 -0.31 M63.52 36.67 C72.25 27.34, 80.65 16.43, 95.67 -0.31 M69.17 36.28 C79.74 24.77, 93.32 10.84, 100.66 0.05 M69.17 36.28 C77.59 26.41, 85.36 17.85, 100.66 0.05 M74.15 36.64 C86.9 23.48, 95.42 10.11, 106.3 -0.34 M74.15 36.64 C84.34 25.58, 93.46 14.08, 106.3 -0.34 M79.8 36.24 C88.02 26.82, 94.8 18.63, 111.29 0.02 M79.8 36.24 C88.46 27.05, 98.29 16.5, 111.29 0.02 M84.78 36.6 C96.02 25.69, 102.88 14.77, 116.27 0.38 M84.78 36.6 C97.25 23.97, 108.18 9.16, 116.27 0.38 M90.43 36.21 C97.8 29.42, 103.33 21.75, 121.26 0.74 M90.43 36.21 C103.16 22.22, 114.74 9.62, 121.26 0.74 M95.41 36.57 C105.72 27.73, 112.34 19.24, 121 7.13 M95.41 36.57 C103.08 28.21, 111.35 19.01, 121 7.13 M101.06 36.17 C108.55 30.38, 114.96 18.99, 121.4 12.78 M101.06 36.17 C105.73 31.77, 110.33 26.74, 121.4 12.78 M106.04 36.53 C109.98 31.91, 117.24 23.95, 121.13 19.17 M106.04 36.53 C111.73 29.63, 116.98 23.04, 121.13 19.17 M111.69 36.14 C114.05 32.82, 117.08 30.04, 121.53 24.82 M111.69 36.14 C114.33 32.96, 117.41 29.58, 121.53 24.82 M116.67 36.5 C117.44 35.65, 119.26 34.06, 121.27 31.21 M116.67 36.5 C118.12 34.91, 118.76 33.75, 121.27 31.21" stroke="#b2f2bb" stroke-width="0.5" fill="none"></path><path d="M0 0 C30 2.41, 61.3 2.35, 120.49 0 M0 0 C31.97 1.37, 62.57 0.14, 120.49 0 M120.49 0 C120.15 9.62, 120.64 16.58, 120.49 36.39 M120.49 0 C119.95 13.07, 119.94 26.75, 120.49 36.39 M120.49 36.39 C86.27 37.12, 46.64 36.54, 0 36.39 M120.49 36.39 C81.26 34.59, 43.91 34.37, 0 36.39 M0 36.39 C-2.24 24.45, -0.25 10.98, 0 0 M0 36.39 C1.24 26.3, -0.25 15.8, 0 0" stroke="transparent" stroke-width="1" fill="none"></path></g><g transform="translate(190.98609160959825 23.994975090266138) rotate(0 20.6875 9.600000000000001)"><text x="20.6875" y="15.45" font-family="Cascadia, Segoe UI Emoji" font-size="16px" fill="#1e1e1e" text-anchor="middle" style="white-space: pre;" direction="ltr" dominant-baseline="alphabetic">任务B</text></g><g stroke-linecap="round"><g transform="translate(276.05254334939593 10.697535000000016) rotate(0 0 22.275244594720704)"><path d="M0 0 C-0.54 16.65, -0.62 33.37, 0 44.55 M0 0 C-0.27 16.47, -0.26 33.57, 0 44.55" stroke="#1e1e1e" stroke-width="1" fill="none"></path></g></g><mask></mask><g stroke-linecap="round" transform="translate(280.18487594890814 15.40029724637077) rotate(0 60.24661866069005 18.194677843895377)"><path d="M0 0 C0 0, 0 0, 0 0 M0 0 C0 0, 0 0, 0 0 M-0.26 6.4 C2.09 4.56, 3.71 3.03, 4.99 0.36 M-0.26 6.4 C1.08 4.25, 3.14 2.03, 4.99 0.36 M0.13 12.04 C4.4 8.87, 8.51 3.15, 10.63 -0.03 M0.13 12.04 C3.78 7.92, 6.46 4.93, 10.63 -0.03 M-0.13 18.44 C3.62 13.64, 6.84 8.29, 15.62 0.33 M-0.13 18.44 C5.03 11.47, 10.54 6.49, 15.62 0.33 M0.27 24.08 C5.46 17.91, 11.39 12.72, 21.26 -0.07 M0.27 24.08 C4.35 18.13, 9.24 13.92, 21.26 -0.07 M0 30.48 C7.96 20.89, 16.64 9.72, 26.25 0.29 M0 30.48 C9.51 19.31, 19.17 9.52, 26.25 0.29 M0.4 36.12 C8.07 25.84, 17.83 14.57, 31.89 -0.1 M0.4 36.12 C13.06 22.7, 25.34 7.52, 31.89 -0.1 M5.39 36.48 C16.09 23.88, 25.82 12.13, 36.88 0.26 M5.39 36.48 C17.68 23.81, 28.52 10.59, 36.88 0.26 M10.37 36.84 C21 21.95, 34.17 6.26, 42.52 -0.14 M10.37 36.84 C17.86 28.92, 24.76 21.31, 42.52 -0.14 M16.02 36.45 C22.68 26.49, 31.04 19.3, 47.51 0.22 M16.02 36.45 C26.99 24, 37.64 12.58, 47.51 0.22 M21 36.81 C33.61 25.15, 45.72 8.71, 53.15 -0.17 M21 36.81 C30.04 25.95, 40.31 14.91, 53.15 -0.17 M26.65 36.41 C34.67 29.81, 38.95 20.7, 58.14 0.19 M26.65 36.41 C32.95 29.39, 40.48 19.76, 58.14 0.19 M31.63 36.77 C38.79 27.08, 46.72 21.76, 63.78 -0.21 M31.63 36.77 C44.91 21.9, 57.19 7.08, 63.78 -0.21 M37.28 36.38 C44.98 28.62, 51.58 19.97, 68.77 0.15 M37.28 36.38 C48.14 24.25, 59.49 10.17, 68.77 0.15 M42.26 36.74 C52.82 25.82, 60.11 16.59, 74.41 -0.24 M42.26 36.74 C52.33 25.41, 60.87 14.99, 74.41 -0.24 M47.91 36.34 C60.36 21.64, 70.99 9.27, 79.4 0.12 M47.91 36.34 C55.75 27.18, 65.27 16.45, 79.4 0.12 M52.89 36.7 C61.18 28.86, 71.48 15.5, 85.04 -0.28 M52.89 36.7 C64.19 25.87, 73.58 13.47, 85.04 -0.28 M58.54 36.31 C67.82 25.1, 80.49 11.87, 90.03 0.08 M58.54 36.31 C68.53 24.39, 77.86 13.23, 90.03 0.08 M63.52 36.67 C70.79 26.7, 81.39 16.48, 95.67 -0.31 M63.52 36.67 C71.23 27.75, 79.06 20.27, 95.67 -0.31 M69.17 36.28 C78.99 23.4, 90.74 9.31, 100.66 0.05 M69.17 36.28 C80.41 23.15, 92.6 8.04, 100.66 0.05 M74.15 36.64 C83.61 25.66, 94.15 12.87, 106.3 -0.34 M74.15 36.64 C84.95 23.74, 96.55 10.18, 106.3 -0.34 M79.8 36.24 C90.63 22.61, 104.81 11.16, 111.29 0.02 M79.8 36.24 C91.17 23.35, 103.37 8.33, 111.29 0.02 M84.78 36.6 C95.41 25.51, 108.32 11.21, 116.27 0.38 M84.78 36.6 C91.67 28.45, 100.16 19.33, 116.27 0.38 M90.43 36.21 C102.78 24.87, 112.7 11.15, 121.26 0.74 M90.43 36.21 C102.96 23.24, 115.18 8.35, 121.26 0.74 M95.41 36.57 C104.86 25.02, 116.47 14.4, 121 7.13 M95.41 36.57 C104.17 26.52, 114.39 15.92, 121 7.13 M101.06 36.17 C106.36 31.77, 111.35 27.31, 121.4 12.78 M101.06 36.17 C108.79 27.47, 115.56 20.47, 121.4 12.78 M106.04 36.53 C109.48 31.1, 114.3 24.85, 121.13 19.17 M106.04 36.53 C109.68 32, 113.75 27.86, 121.13 19.17 M111.69 36.14 C114.86 33.34, 116.36 31.38, 121.53 24.82 M111.69 36.14 C114.86 32.52, 117.77 30.02, 121.53 24.82 M116.67 36.5 C118.16 35.22, 119.4 32.36, 121.27 31.21 M116.67 36.5 C117.48 35.14, 118.61 33.99, 121.27 31.21" stroke="#ffc9c9" stroke-width="0.5" fill="none"></path><path d="M0 0 C42.49 1.33, 88.53 0.46, 120.49 0 M0 0 C29.77 0.75, 61.73 1, 120.49 0 M120.49 0 C122.55 9.95, 119.7 21.28, 120.49 36.39 M120.49 0 C120.7 10.15, 120.73 17.6, 120.49 36.39 M120.49 36.39 C82.97 33.61, 48.18 35.77, 0 36.39 M120.49 36.39 C95.08 36.63, 68.64 37.62, 0 36.39 M0 36.39 C0.64 27.1, 0.46 12.83, 0 0 M0 36.39 C-1.14 25.55, -0.03 15.42, 0 0" stroke="transparent" stroke-width="1" fill="none"></path></g><g transform="translate(319.7439946095982 23.994975090266138) rotate(0 20.6875 9.600000000000001)"><text x="20.6875" y="15.45" font-family="Cascadia, Segoe UI Emoji" font-size="16px" fill="#1e1e1e" text-anchor="middle" style="white-space: pre;" direction="ltr" dominant-baseline="alphabetic">任务A</text></g><g stroke-linecap="round"><g transform="translate(408.9427793493958 10.000000000000028) rotate(0 0 22.275244594720704)"><path d="M0 0 C-0.3 16.72, -0.5 34.22, 0 44.55 M0 0 C0.22 13.51, 0.37 26.73, 0 44.55" stroke="#1e1e1e" stroke-width="1" fill="none"></path></g></g><mask></mask><g stroke-linecap="round" transform="translate(413.075111948908 14.702762246370781) rotate(0 60.24661866069005 18.194677843895377)"><path d="M0 0 C0 0, 0 0, 0 0 M0 0 C0 0, 0 0, 0 0 M-0.26 6.4 C0.86 3.48, 3.06 1.96, 4.99 0.36 M-0.26 6.4 C0.54 5.23, 2.27 4.03, 4.99 0.36 M0.13 12.04 C1.01 9.64, 4.49 5.27, 10.63 -0.03 M0.13 12.04 C3.87 7.27, 8.28 2.28, 10.63 -0.03 M-0.13 18.44 C3.71 14.27, 4.91 10.82, 15.62 0.33 M-0.13 18.44 C5.31 12.91, 9.65 7.77, 15.62 0.33 M0.27 24.08 C7.51 16.58, 10.86 10.67, 21.26 -0.07 M0.27 24.08 C6.65 15.93, 13.85 8.08, 21.26 -0.07 M0 30.48 C6.57 21.59, 14.45 13.23, 26.25 0.29 M0 30.48 C7.1 20.63, 15.88 11.82, 26.25 0.29 M0.4 36.12 C9.38 27.14, 18.34 17.6, 31.89 -0.1 M0.4 36.12 C9.63 25.41, 18.84 14.08, 31.89 -0.1 M5.39 36.48 C16.97 25.31, 28.59 11.31, 36.88 0.26 M5.39 36.48 C15.64 22.52, 27.23 9.87, 36.88 0.26 M10.37 36.84 C17.89 30.41, 24.42 22.65, 42.52 -0.14 M10.37 36.84 C20.66 24.47, 30.6 13.06, 42.52 -0.14 M16.02 36.45 C24.22 28.11, 31.52 19.01, 47.51 0.22 M16.02 36.45 C25.98 24.51, 38.28 12.21, 47.51 0.22 M21 36.81 C29.72 26.15, 38.26 17.71, 53.15 -0.17 M21 36.81 C33.01 22.93, 46.91 7.22, 53.15 -0.17 M26.65 36.41 C36.47 25.35, 46.62 16.49, 58.14 0.19 M26.65 36.41 C34.06 28.86, 39.68 21.6, 58.14 0.19 M31.63 36.77 C42.16 25.05, 52.56 11.64, 63.78 -0.21 M31.63 36.77 C39.9 27.33, 49 17.38, 63.78 -0.21 M37.28 36.38 C44.07 27.16, 53.98 18.49, 68.77 0.15 M37.28 36.38 C43.92 29.27, 50.76 20.55, 68.77 0.15 M42.26 36.74 C51.91 26.43, 60.81 13.37, 74.41 -0.24 M42.26 36.74 C52.64 25.34, 62 12.9, 74.41 -0.24 M47.91 36.34 C57.42 22.25, 71.03 11.34, 79.4 0.12 M47.91 36.34 C56.76 25.59, 67.27 15.92, 79.4 0.12 M52.89 36.7 C62.04 30.68, 69.17 21.25, 85.04 -0.28 M52.89 36.7 C62.53 24.89, 72.44 14.89, 85.04 -0.28 M58.54 36.31 C68.03 25.68, 76.43 13.65, 90.03 0.08 M58.54 36.31 C65.64 26.55, 74.36 18.42, 90.03 0.08 M63.52 36.67 C71.21 27.97, 79.3 19.26, 95.67 -0.31 M63.52 36.67 C74.61 22.91, 86.13 10.07, 95.67 -0.31 M69.17 36.28 C77.96 27.13, 84.76 19.64, 100.66 0.05 M69.17 36.28 C75.52 28.06, 83.24 20.39, 100.66 0.05 M74.15 36.64 C81.13 28.36, 86.97 21.84, 106.3 -0.34 M74.15 36.64 C81.59 27.9, 88.42 20.81, 106.3 -0.34 M79.8 36.24 C92.2 22.13, 104.49 9.6, 111.29 0.02 M79.8 36.24 C86.63 28.15, 93.96 21.29, 111.29 0.02 M84.78 36.6 C94.5 23.88, 105.5 14.66, 116.27 0.38 M84.78 36.6 C92.39 28.21, 100.67 18.73, 116.27 0.38 M90.43 36.21 C100.18 24.32, 113.91 11.71, 120.61 1.49 M90.43 36.21 C100.42 25.01, 109.2 14.9, 120.61 1.49 M95.41 36.57 C103.61 26.4, 112.81 19.07, 120.34 7.89 M95.41 36.57 C103.17 28.06, 111.69 19.28, 120.34 7.89 M101.06 36.17 C109.05 29.63, 114.16 21.01, 120.74 13.53 M101.06 36.17 C107.14 28.25, 113.59 21.1, 120.74 13.53 M106.04 36.53 C108.32 31.61, 113.03 27.69, 120.48 19.93 M106.04 36.53 C111.65 31.21, 116.37 24.76, 120.48 19.93 M111.69 36.14 C114.37 33.63, 116.54 30.7, 120.22 26.33 M111.69 36.14 C113.65 32.93, 117.47 29.48, 120.22 26.33 M116.67 36.5 C117.82 34.92, 118.49 33.9, 120.61 31.97 M116.67 36.5 C117.56 35.11, 118.74 34.24, 120.61 31.97" stroke="#a5d8ff" stroke-width="0.5" fill="none"></path><path d="M0 0 C40.67 -0.56, 83.9 2.36, 120.49 0 M0 0 C38.94 0.01, 76.35 -1.42, 120.49 0 M120.49 0 C118.97 8.77, 122.08 17.17, 120.49 36.39 M120.49 0 C119.51 6.46, 119.67 14.29, 120.49 36.39 M120.49 36.39 C83.04 38.47, 39.77 37.88, 0 36.39 M120.49 36.39 C83.04 36.47, 47.94 36.38, 0 36.39 M0 36.39 C1.02 25.65, -0.04 18.73, 0 0 M0 36.39 C0.27 23.25, -0.73 9.12, 0 0" stroke="transparent" stroke-width="1" fill="none"></path></g><g transform="translate(452.63423060959803 23.29744009026615) rotate(0 20.6875 9.600000000000001)"><text x="20.6875" y="15.45" font-family="Cascadia, Segoe UI Emoji" font-size="16px" fill="#1e1e1e" text-anchor="middle" style="white-space: pre;" direction="ltr" dominant-baseline="alphabetic">任务C</text></g><g stroke-linecap="round"><g transform="translate(147.29464081811136 107.39533706898632) rotate(0 0 -23.26925414430839)"><path d="M0 0 C0.21 -10.42, 0.75 -20.66, 0 -46.54 M0 0 C-0.19 -18.35, 0.16 -36.59, 0 -46.54" stroke="#1e1e1e" stroke-width="1" fill="none"></path></g><g transform="translate(147.29464081811136 107.39533706898632) rotate(0 0 -23.26925414430839)"><path d="M0.86 -47.16 L6.29 -33.53 L-5.99 -32.89 L-0.99 -45.62" stroke="none" stroke-width="0" fill="#1e1e1e" fill-rule="evenodd"></path><path d="M0 -46.54 C1.59 -43.4, 3.44 -40.1, 6.38 -32.96 M0 -46.54 C2.17 -41.4, 4.92 -36.2, 6.38 -32.96 M6.38 -32.96 C1.7 -32.97, -1.64 -33.53, -6.3 -32.93 M6.38 -32.96 C3.91 -33.26, 1.44 -32.68, -6.3 -32.93 M-6.3 -32.93 C-3.85 -37.94, -1.67 -43.59, 0 -46.54 M-6.3 -32.93 C-4.48 -37.42, -1.88 -41.7, 0 -46.54 M0 -46.54 C0 -46.54, 0 -46.54, 0 -46.54 M0 -46.54 C0 -46.54, 0 -46.54, 0 -46.54" stroke="#1e1e1e" stroke-width="1" fill="none"></path></g></g><mask></mask><g transform="translate(107.45608998479224 112.37135145522605) rotate(0 40 9.6)"><text x="0" y="15.45" font-family="Cascadia, Segoe UI Emoji" font-size="16px" fill="#1e1e1e" text-anchor="start" style="white-space: pre;" direction="ltr" dominant-baseline="alphabetic">上下文切换</text></g><g stroke-linecap="round"><g transform="translate(276.0201318181114 107.39533706898632) rotate(0 0 -23.26925414430839)"><path d="M0 0 C0.72 -15.21, -0.7 -29.72, 0 -46.54 M0 0 C0.11 -11.42, 0.12 -24.2, 0 -46.54" stroke="#1e1e1e" stroke-width="1" fill="none"></path></g><g transform="translate(276.0201318181114 107.39533706898632) rotate(0 0 -23.26925414430839)"><path d="M0.31 -46.5 L5.4 -32.05 L-5.41 -32.86 L0.91 -46.1" stroke="none" stroke-width="0" fill="#1e1e1e" fill-rule="evenodd"></path><path d="M0 -46.54 C2.72 -42.85, 3.64 -38.62, 6.4 -32.97 M0 -46.54 C1.71 -42.73, 3.35 -39.96, 6.4 -32.97 M6.4 -32.97 C2.03 -33.53, -1.47 -32.83, -6.28 -32.92 M6.4 -32.97 C3.88 -33.19, 1.03 -32.87, -6.28 -32.92 M-6.28 -32.92 C-4.1 -36.37, -2.22 -41.71, 0 -46.54 M-6.28 -32.92 C-4.78 -36.99, -2.5 -40.78, 0 -46.54 M0 -46.54 C0 -46.54, 0 -46.54, 0 -46.54 M0 -46.54 C0 -46.54, 0 -46.54, 0 -46.54" stroke="#1e1e1e" stroke-width="1" fill="none"></path></g></g><mask></mask><g transform="translate(236.18158098479228 112.37135145522605) rotate(0 40 9.6)"><text x="0" y="15.45" font-family="Cascadia, Segoe UI Emoji" font-size="16px" fill="#1e1e1e" text-anchor="start" style="white-space: pre;" direction="ltr" dominant-baseline="alphabetic">上下文切换</text></g><g stroke-linecap="round"><g transform="translate(409.1854538181117 107.39533706898632) rotate(0 0 -23.26925414430839)"><path d="M0 0 C-0.33 -10.73, -0.56 -21.22, 0 -46.54 M0 0 C-0.08 -17.95, -0.54 -36.58, 0 -46.54" stroke="#1e1e1e" stroke-width="1" fill="none"></path></g><g transform="translate(409.1854538181117 107.39533706898632) rotate(0 0 -23.26925414430839)"><path d="M0.87 -46.48 L6.94 -32.37 L-6.24 -32.17 L-0.83 -47.53" stroke="none" stroke-width="0" fill="#1e1e1e" fill-rule="evenodd"></path><path d="M0 -46.54 C1.01 -43.37, 2.23 -40.03, 6.03 -32.8 M0 -46.54 C2.33 -41.11, 4.33 -36.23, 6.03 -32.8 M6.03 -32.8 C2.73 -32.52, 1.1 -32.45, -6.65 -33.09 M6.03 -32.8 C3.45 -32.91, 0.59 -32.83, -6.65 -33.09 M-6.65 -33.09 C-4.02 -37.76, -0.97 -44.43, 0 -46.54 M-6.65 -33.09 C-4.5 -37.2, -2.54 -41.04, 0 -46.54 M0 -46.54 C0 -46.54, 0 -46.54, 0 -46.54 M0 -46.54 C0 -46.54, 0 -46.54, 0 -46.54" stroke="#1e1e1e" stroke-width="1" fill="none"></path></g></g><mask></mask><g transform="translate(369.34690298479245 112.37135145522605) rotate(0 40 9.6)"><text x="0" y="15.45" font-family="Cascadia, Segoe UI Emoji" font-size="16px" fill="#1e1e1e" text-anchor="start" style="white-space: pre;" direction="ltr" dominant-baseline="alphabetic">上下文切换</text></g><g transform="translate(553.9522036580213 71.9345454764294) rotate(0 16 9.600000000000001)"><text x="0" y="15.45" font-family="Cascadia, Segoe UI Emoji" font-size="16px" fill="#1e1e1e" text-anchor="start" style="white-space: pre;" direction="ltr" dominant-baseline="alphabetic">时间</text></g></svg>